<!-- Generated by IcoMoon.io -->
<svg version="1.1" xmlns="http://www.w3.org/2000/svg" width="80" height="80" viewBox="0 0 80 80">
<title>align-justify</title>
<path d="M76.57 34.286h-73.14c-1.893 0-3.428-1.535-3.428-3.428s1.535-3.428 3.428-3.428v0h73.14c1.893 0 3.428 1.535 3.428 3.428s-1.535 3.428-3.428 3.428v0z"></path>
<path d="M76.57 16.001h-73.14c-1.893 0-3.428-1.535-3.428-3.428s1.535-3.428 3.428-3.428v0h73.14c1.893 0 3.428 1.535 3.428 3.428s-1.535 3.428-3.428 3.428v0z"></path>
<path d="M76.57 52.571h-73.14c-1.893 0-3.428-1.535-3.428-3.428s1.535-3.428 3.428-3.428v0h73.14c1.893 0 3.428 1.535 3.428 3.428s-1.535 3.428-3.428 3.428v0z"></path>
<path d="M76.57 70.856h-73.14c-1.893 0-3.428-1.535-3.428-3.428s1.535-3.428 3.428-3.428v0h73.14c1.893 0 3.428 1.535 3.428 3.428s-1.535 3.428-3.428 3.428v0z"></path>
</svg>
