<!-- Generated by IcoMoon.io -->
<svg version="1.1" xmlns="http://www.w3.org/2000/svg" width="80" height="80" viewBox="0 0 80 80">
<title>align-left</title>
<path d="M48.753 35.465h-45.35c-1.878 0-3.401-1.523-3.401-3.401s1.523-3.401 3.401-3.401v0h45.35c1.878 0 3.401 1.523 3.401 3.401s-1.523 3.401-3.401 3.401v0z"></path>
<path d="M76.597 17.325h-72.56c-1.878 0-3.401-1.523-3.401-3.401s1.523-3.401 3.401-3.401v0h72.56c1.878 0 3.401 1.523 3.401 3.401s-1.523 3.401-3.401 3.401v0z"></path>
<path d="M76.597 53.605h-72.56c-1.878 0-3.401-1.523-3.401-3.401s1.523-3.401 3.401-3.401v0h72.56c1.878 0 3.401 1.523 3.401 3.401s-1.523 3.401-3.401 3.401v0z"></path>
<path d="M48.753 71.745h-45.35c-1.878 0-3.401-1.523-3.401-3.401s1.523-3.401 3.401-3.401v0h45.35c1.878 0 3.401 1.523 3.401 3.401s-1.523 3.401-3.401 3.401v0z"></path>
</svg>
