<!-- Generated by IcoMoon.io -->
<svg version="1.1" xmlns="http://www.w3.org/2000/svg" width="80" height="80" viewBox="0 0 80 80">
<title>amazon</title>
<path d="M46.099 23.354c-8.948 0.3-31.092 2.749-31.092 20.945 0 19.595 25.494 20.395 33.842 7.748 2.625 2.996 5.352 5.723 8.248 8.262l0.1 0.086 10.447-9.997s-5.949-4.549-5.949-9.448v-26.244c0-4.499-4.499-14.696-20.695-14.696s-24.994 9.997-24.994 18.646l13.597 1.35c1.11-4.755 5.073-8.33 9.948-8.844l0.050-0.004c7.498 0 6.499 5.299 6.499 12.347zM46.099 38.85c0 14.296-15.496 12.147-15.496 3.049s9.298-9.997 15.496-10.297zM71.092 68.043c-8.102 7.419-18.942 11.964-30.843 11.964-0.439 0-0.877-0.006-1.313-0.019l0.064 0.001c-15.309-0.613-28.912-7.434-38.448-17.998l-0.043-0.048c-1.25-1.35 0-2 1-1.45 13.497 7.948 34.642 20.995 68.483 5.399 1.55-0.65 2.649 0.35 1.2 2.15zM78.441 68.443c-0.901 2.185-2.245 4.026-3.931 5.483l-0.018 0.015c-1 0.8-1.75 0.5-1.2-0.65s3.599-8.298 2.35-9.997-6.798-0.75-8.848-0.55-2.4 0.35-2.55 0 3.999-2.799 6.898-3.149 7.548 0 8.498 1.050c0.093 0.583 0.145 1.255 0.145 1.94 0 2.097-0.497 4.079-1.379 5.833l0.034-0.075z"></path>
</svg>
