<!-- Generated by IcoMoon.io -->
<svg version="1.1" xmlns="http://www.w3.org/2000/svg" width="80" height="80" viewBox="0 0 80 80">
<title>android</title>
<path d="M70.142 26.72c-2.582 0-4.676 2.093-4.676 4.676v0 21.189c0 2.582 2.093 4.676 4.676 4.676s4.676-2.093 4.676-4.676v0-21.189c0-2.582-2.093-4.676-4.676-4.676v0z"></path>
<path d="M9.858 26.72c-2.582 0-4.676 2.093-4.676 4.676v0 21.189c0 2.582 2.093 4.676 4.676 4.676s4.676-2.093 4.676-4.676v0-21.189c0-2.582-2.093-4.676-4.676-4.676v0z"></path>
<path d="M17.916 26.72v31.833c0 2.939 2.383 5.322 5.322 5.322v0h3.382v11.291c0 2.582 2.093 4.676 4.676 4.676s4.676-2.093 4.676-4.676v0 0-11.291h8.058v11.291c0 2.582 2.093 4.676 4.676 4.676s4.676-2.093 4.676-4.676v0-11.291h3.382c2.939 0 5.322-2.383 5.322-5.322v0-31.833z"></path>
<path d="M61.487 20.104c-1.523-5.003-4.76-9.096-9.012-11.687l-0.091-0.051-0.746-0.448-0.796-0.398 0.895-1.542 2.636-4.974c0.025-0.069 0.040-0.149 0.040-0.231 0-0.231-0.113-0.436-0.286-0.563l-0.002-0.001h-0.348c-0.266 0.012-0.498 0.146-0.645 0.346l-0.002 0.002-2.686 4.626-0.846 1.542-0.796-0.348-0.846-0.298c-2.371-0.85-5.107-1.342-7.958-1.342s-5.587 0.491-8.128 1.394l0.17-0.053-0.796 0.298-0.846 0.348-0.846-1.542-2.686-4.974c-0.124-0.219-0.356-0.364-0.622-0.364-0.394 0-0.713 0.319-0.713 0.713 0 0.128 0.034 0.248 0.093 0.352l-0.002-0.004 2.636 4.974 0.895 1.542-0.796 0.398-0.746 0.448c-4.36 2.651-7.592 6.789-9.017 11.695l-0.036 0.143c-0.369 1.181-0.602 2.545-0.646 3.955l-0.001 0.024h44.169c-0.054-1.438-0.268-2.801-0.626-4.105l0.030 0.126zM30.052 17.468c-1.099 0-1.99-0.891-1.99-1.99s0.891-1.99 1.99-1.99c1.099 0 1.99 0.891 1.99 1.99v0c0 1.099-0.891 1.99-1.99 1.99v0zM49.948 17.468c-1.099 0-1.99-0.891-1.99-1.99s0.891-1.99 1.99-1.99c1.099 0 1.99 0.891 1.99 1.99v0c0 1.099-0.891 1.99-1.99 1.99v0z"></path>
</svg>
