<!-- Generated by IcoMoon.io -->
<svg version="1.1" xmlns="http://www.w3.org/2000/svg" width="80" height="80" viewBox="0 0 80 80">
<title>angle-double-down</title>
<path d="M40 70.512c-0.006 0-0.013 0-0.020 0-1.197 0-2.28-0.489-3.059-1.278l-0-0-20.167-20.341c-0.44-0.669-0.702-1.49-0.702-2.371 0-2.407 1.951-4.359 4.359-4.359 0.793 0 1.535 0.211 2.175 0.581l-0.021-0.011 17.435 17.435 17.435-17.435c0.619-0.359 1.362-0.569 2.154-0.569 2.407 0 4.359 1.951 4.359 4.359 0 0.882-0.262 1.702-0.712 2.388l0.010-0.016-20.167 20.167c-0.761 0.859-1.852 1.41-3.073 1.453l-0.007 0z"></path>
<path d="M40 38.547c-0.006 0-0.013 0-0.020 0-1.197 0-2.28-0.489-3.059-1.278l-0-0-20.167-20.515c-0.269-0.55-0.425-1.196-0.425-1.878 0-2.407 1.951-4.359 4.359-4.359 0.683 0 1.329 0.157 1.904 0.437l-0.026-0.011 17.435 17.435 17.435-17.435c0.55-0.269 1.196-0.425 1.878-0.425 2.407 0 4.359 1.951 4.359 4.359 0 0.683-0.157 1.329-0.437 1.904l0.011-0.026-20.341 20.341c-0.721 0.82-1.743 1.362-2.891 1.452l-0.015 0.001z"></path>
</svg>
