<!-- Generated by IcoMoon.io -->
<svg version="1.1" xmlns="http://www.w3.org/2000/svg" width="80" height="80" viewBox="0 0 80 80">
<title>angle-down</title>
<path d="M40 56.579c-0.007 0-0.015 0-0.023 0-1.366 0-2.602-0.558-3.491-1.459l-0-0-23.012-23.211c-0.502-0.764-0.8-1.7-0.8-2.706 0-2.747 2.227-4.974 4.974-4.974 0.904 0 1.752 0.241 2.482 0.663l-0.024-0.013 19.895 19.895 19.895-19.895c0.707-0.409 1.554-0.65 2.459-0.65 2.747 0 4.974 2.227 4.974 4.974 0 1.006-0.298 1.942-0.812 2.725l0.012-0.019-23.211 23.211c-0.85 0.862-2.014 1.41-3.307 1.459l-0.009 0z"></path>
</svg>
