<!-- Generated by IcoMoon.io -->
<svg version="1.1" xmlns="http://www.w3.org/2000/svg" width="80" height="80" viewBox="0 0 80 80">
<title>angle-double-left</title>
<path d="M34.108 65.043c-0.006 0-0.013 0-0.020 0-1.214 0-2.311-0.496-3.102-1.296l-0-0-20.447-20.623c-0.798-0.8-1.292-1.904-1.292-3.123s0.494-2.324 1.292-3.123v0l20.447-20.447c0.679-0.446 1.51-0.711 2.405-0.711 2.441 0 4.419 1.979 4.419 4.419 0 0.804-0.215 1.557-0.589 2.206l0.011-0.021-17.677 17.677 17.677 17.677c0.798 0.8 1.292 1.904 1.292 3.123s-0.494 2.324-1.292 3.123v0c-0.77 0.697-1.796 1.124-2.922 1.124-0.070 0-0.141-0.002-0.21-0.005l0.010 0z"></path>
<path d="M66.516 65.043c-1.179-0.093-2.215-0.642-2.942-1.468l-0.004-0.005-20.623-20.623c-0.798-0.8-1.292-1.904-1.292-3.123s0.494-2.324 1.292-3.123v0l20.623-20.27c0.557-0.272 1.212-0.431 1.905-0.431 2.441 0 4.419 1.979 4.419 4.419 0 0.692-0.159 1.348-0.443 1.931l0.011-0.026-17.677 17.677 17.677 17.677c0.699 0.778 1.126 1.813 1.126 2.946s-0.427 2.168-1.129 2.95l0.004-0.004c-0.732 0.831-1.767 1.38-2.931 1.472l-0.015 0.001z"></path>
</svg>
