<!-- Generated by IcoMoon.io -->
<svg version="1.1" xmlns="http://www.w3.org/2000/svg" width="80" height="80" viewBox="0 0 80 80">
<title>angle-double-up</title>
<path d="M60.058 38.567c-0.006 0-0.013 0-0.020 0-1.18 0-2.248-0.482-3.017-1.261l-17.193-17.193-17.193 17.193c-0.546 0.27-1.189 0.428-1.869 0.428-2.374 0-4.298-1.924-4.298-4.298 0-0.813 0.226-1.575 0.619-2.223l-0.011 0.019 19.886-19.886c0.778-0.777 1.851-1.257 3.037-1.257s2.26 0.481 3.037 1.257v0l20.058 20.058c0.777 0.778 1.257 1.851 1.257 3.037s-0.481 2.26-1.257 3.037v0c-0.749 0.678-1.747 1.094-2.842 1.094-0.069 0-0.137-0.001-0.205-0.005l0.010 0.001z"></path>
<path d="M60.058 70.087c-1.147-0.091-2.154-0.624-2.862-1.428l-0.004-0.005-17.193-17.193-17.193 17.193c-0.542 0.265-1.179 0.42-1.852 0.42-2.374 0-4.298-1.924-4.298-4.298 0-0.674 0.155-1.31 0.431-1.878l-0.011 0.026 20.058-20.058c0.778-0.777 1.851-1.257 3.037-1.257s2.26 0.481 3.037 1.257v0l19.714 20.058c0.679 0.757 1.095 1.763 1.095 2.865s-0.415 2.109-1.098 2.869l0.003-0.004c-0.711 0.809-1.719 1.343-2.85 1.432l-0.015 0.001z"></path>
</svg>
