<!-- Generated by IcoMoon.io -->
<svg version="1.1" xmlns="http://www.w3.org/2000/svg" width="80" height="80" viewBox="0 0 80 80">
<title>angle-double-right</title>
<path d="M45.867 64.936c-0.006 0-0.013 0-0.020 0-1.209 0-2.302-0.494-3.089-1.291l-0-0c-0.795-0.796-1.287-1.896-1.287-3.11s0.491-2.313 1.287-3.11v0l17.602-17.602-17.602-17.602c-0.276-0.559-0.438-1.218-0.438-1.913 0-2.431 1.97-4.4 4.4-4.4 0.833 0 1.612 0.232 2.277 0.634l-0.020-0.011 20.536 20.536c0.795 0.796 1.287 1.896 1.287 3.11s-0.491 2.313-1.287 3.11v0l-20.536 20.184c-0.768 0.868-1.87 1.424-3.102 1.467l-0.007 0z"></path>
<path d="M13.597 64.936c-1.174-0.092-2.205-0.639-2.929-1.462l-0.004-0.005c-0.695-0.775-1.12-1.805-1.12-2.934s0.425-2.159 1.124-2.938l-0.004 0.004 17.602-17.602-17.602-17.602c-0.271-0.555-0.429-1.207-0.429-1.897 0-2.431 1.97-4.4 4.4-4.4 0.689 0 1.342 0.158 1.923 0.441l-0.026-0.011 20.536 20.536c0.795 0.796 1.287 1.896 1.287 3.11s-0.491 2.313-1.287 3.11v0l-20.536 20.184c-0.728 0.828-1.759 1.375-2.919 1.466l-0.015 0.001z"></path>
</svg>
