<!-- Generated by IcoMoon.io -->
<svg version="1.1" xmlns="http://www.w3.org/2000/svg" width="80" height="80" viewBox="0 0 80 80">
<title>angle-right</title>
<path d="M29.516 65.46c-1.266-0.044-2.391-0.612-3.171-1.493l-0.004-0.005c-0.812-0.813-1.314-1.936-1.314-3.175s0.502-2.362 1.314-3.175v0l17.972-17.972-17.972-17.972c-0.215-0.506-0.339-1.094-0.339-1.711 0-2.482 2.012-4.493 4.493-4.493 0.807 0 1.564 0.213 2.218 0.585l-0.022-0.012 20.968 20.968c0.812 0.813 1.314 1.935 1.314 3.175s-0.502 2.362-1.314 3.175v0l-20.968 20.608c-0.784 0.885-1.909 1.454-3.167 1.497l-0.008 0z"></path>
</svg>
