<!-- Generated by IcoMoon.io -->
<svg version="1.1" xmlns="http://www.w3.org/2000/svg" width="80" height="80" viewBox="0 0 80 80">
<title>angle-up</title>
<path d="M62.891 56.35c-0.007 0-0.015 0-0.023 0-1.347 0-2.565-0.55-3.443-1.439l-19.621-19.621-19.621 19.621c-0.623 0.308-1.357 0.488-2.133 0.488-2.709 0-4.905-2.196-4.905-4.905 0-0.929 0.258-1.797 0.706-2.537l-0.012 0.022 22.891-22.891c0.887-0.886 2.113-1.435 3.466-1.435s2.579 0.548 3.466 1.435v0l22.891 22.891c0.886 0.887 1.435 2.113 1.435 3.466s-0.548 2.579-1.435 3.466v0c-0.878 0.891-2.099 1.444-3.448 1.444-0.075 0-0.15-0.002-0.225-0.005l0.010 0z"></path>
</svg>
