<!-- Generated by IcoMoon.io -->
<svg version="1.1" xmlns="http://www.w3.org/2000/svg" width="80" height="80" viewBox="0 0 80 80">
<title>apple</title>
<path d="M62.577 42.298c-0.002-0.096-0.003-0.209-0.003-0.322 0-6.339 3.568-11.845 8.804-14.619l0.090-0.043c-3.413-4.705-8.819-7.785-14.953-7.991l-0.032-0.001c-6.344-0.5-13.237 3.696-15.784 3.696s-8.841-3.496-13.636-3.496c-9.99 0-20.529 7.942-20.529 23.776 0.052 5.206 0.981 10.178 2.646 14.799l-0.099-0.313c2.198 6.394 10.439 22.427 19.031 22.178 4.495 0 7.692-3.197 13.536-3.197s8.591 3.197 13.636 3.197c8.641 0 16.134-14.735 18.282-21.279-6.502-2.71-10.989-9.014-10.989-16.366 0-0.006 0-0.012 0-0.018v0.001zM52.587 12.977c2.631-2.957 4.239-6.875 4.239-11.169 0-0.623-0.034-1.238-0.1-1.843l0.007 0.075c-4.836 0.545-9.053 2.839-12.071 6.225l-0.016 0.019c-2.897 3.047-4.678 7.178-4.678 11.725 0 0.374 0.012 0.744 0.036 1.112l-0.003-0.050c0.125 0.004 0.273 0.006 0.421 0.006 4.932 0 9.307-2.383 12.038-6.060l0.029-0.040z"></path>
</svg>
