<!-- Generated by IcoMoon.io -->
<svg version="1.1" xmlns="http://www.w3.org/2000/svg" width="80" height="80" viewBox="0 0 80 80">
<title>arrow-circle-up</title>
<path d="M40 80c-22.091 0-40-17.909-40-40s17.909-40 40-40c22.091 0 40 17.909 40 40v0c0 22.091-17.909 40-40 40v0zM40 6.667c-18.409 0-33.333 14.924-33.333 33.333s14.924 33.333 33.333 33.333c18.409 0 33.333-14.924 33.333-33.333v0c0-18.409-14.924-33.333-33.333-33.333v0z"></path>
<path d="M57.778 43.333c-0.005 0-0.010 0-0.016 0-0.915 0-1.743-0.374-2.34-0.978l-15.422-15.422-15.422 15.422c-0.594 0.554-1.393 0.895-2.272 0.895-1.841 0-3.333-1.492-3.333-3.333 0-0.879 0.34-1.679 0.896-2.274l-0.002 0.002 17.778-17.778c0.603-0.602 1.436-0.975 2.356-0.975s1.753 0.372 2.356 0.975v0l17.778 17.778c0.602 0.603 0.975 1.436 0.975 2.356s-0.373 1.752-0.975 2.356v0c-0.597 0.604-1.425 0.978-2.34 0.978-0.005 0-0.011 0-0.016 0h0.001z"></path>
<path d="M40 61.111c-1.831-0.025-3.309-1.502-3.333-3.331v-35.558c0-1.841 1.492-3.333 3.333-3.333s3.333 1.492 3.333 3.333v0 35.556c-0.025 1.831-1.502 3.309-3.331 3.333h-0.002z"></path>
</svg>
