<!-- Generated by IcoMoon.io -->
<svg version="1.1" xmlns="http://www.w3.org/2000/svg" width="80" height="80" viewBox="0 0 80 80">
<title>arrow-down-left</title>
<path d="M58.519 69.819c2.167 0 3.924-1.757 3.924-3.924s-1.757-3.924-3.924-3.924v0h-34.946l45.095-45.095c0.769-0.718 1.249-1.739 1.249-2.871 0-2.167-1.757-3.924-3.924-3.924-1.132 0-2.152 0.48-2.868 1.246l-0.002 0.002-45.095 45.095v-34.946c0-2.167-1.757-3.924-3.924-3.924s-3.924 1.757-3.924 3.924v0 44.677c0.003 0.549 0.118 1.070 0.324 1.543l-0.010-0.025c0.619 1.414 1.998 2.388 3.607 2.406h0.002z"></path>
</svg>
