<!-- Generated by IcoMoon.io -->
<svg version="1.1" xmlns="http://www.w3.org/2000/svg" width="80" height="80" viewBox="0 0 80 80">
<title>arrow-up-left</title>
<path d="M10.052 58.599c0 2.176 1.764 3.94 3.94 3.94s3.94-1.764 3.94-3.94v0-35.097l45.29 45.29c0.721 0.773 1.746 1.254 2.883 1.254 2.176 0 3.94-1.764 3.94-3.94 0-1.137-0.482-2.162-1.252-2.881l-0.002-0.002-45.29-45.29h35.097c2.176 0 3.94-1.764 3.94-3.94s-1.764-3.94-3.94-3.94v0h-44.607c-0.551 0.003-1.074 0.119-1.549 0.325l0.026-0.010c-1.421 0.621-2.399 2.007-2.417 3.623v0.002z"></path>
</svg>
