<!-- Generated by IcoMoon.io -->
<svg version="1.1" xmlns="http://www.w3.org/2000/svg" width="80" height="80" viewBox="0 0 80 80">
<title>arrows-v</title>
<path d="M41.326 79.723c0.425-0.183 0.789-0.43 1.098-0.732l18.284-18.284c0.57-0.611 0.92-1.433 0.92-2.337 0-1.893-1.535-3.428-3.428-3.428-0.904 0-1.727 0.35-2.339 0.922l0.002-0.002-12.433 12.433v-56.59l12.433 12.433c0.611 0.57 1.433 0.92 2.337 0.92 1.893 0 3.428-1.535 3.428-3.428 0-0.904-0.35-1.727-0.922-2.339l0.002 0.002-18.284-18.284c-0.308-0.301-0.672-0.548-1.074-0.722l-0.023-0.009c-0.391-0.174-0.846-0.275-1.326-0.275s-0.935 0.101-1.347 0.283l0.021-0.008c-0.425 0.183-0.789 0.43-1.098 0.732l-18.284 18.284c-0.619 0.62-1.003 1.477-1.003 2.423s0.383 1.802 1.003 2.423v0c0.62 0.619 1.477 1.003 2.423 1.003s1.802-0.383 2.423-1.003v0l12.433-12.433v56.59l-12.433-12.433c-0.62-0.619-1.477-1.003-2.423-1.003s-1.802 0.383-2.423 1.003v0c-0.619 0.62-1.003 1.477-1.003 2.423s0.383 1.802 1.003 2.423v0l18.284 18.284c0.308 0.301 0.672 0.548 1.074 0.722l0.023 0.009c0.391 0.174 0.846 0.275 1.326 0.275s0.935-0.101 1.347-0.283l-0.021 0.008z"></path>
</svg>
