<!-- Generated by IcoMoon.io -->
<svg version="1.1" xmlns="http://www.w3.org/2000/svg" width="80" height="80" viewBox="0 0 80 80">
<title>arrows-alt</title>
<path d="M79.724 41.326c-0.183 0.411-0.411 0.777-0.731 1.097l-11.428 11.428c-0.685 0.685-1.554 1.006-2.423 1.006s-1.737-0.32-2.423-1.006c-1.326-1.326-1.326-3.52 0-4.846l5.577-5.577h-24.867v24.867l5.577-5.577c1.326-1.326 3.52-1.326 4.846 0s1.326 3.52 0 4.846l-11.428 11.428c-0.32 0.32-0.685 0.549-1.097 0.731s-0.869 0.274-1.326 0.274-0.914-0.091-1.326-0.274c-0.411-0.183-0.777-0.411-1.097-0.731l-11.428-11.428c-1.326-1.326-1.326-3.52 0-4.846s3.52-1.326 4.846 0l5.577 5.577v-24.867h-24.867l5.577 5.577c1.326 1.326 1.326 3.52 0 4.846-0.685 0.685-1.554 1.006-2.423 1.006s-1.737-0.32-2.423-1.006l-11.428-11.428c-0.32-0.32-0.549-0.685-0.731-1.097-0.366-0.823-0.366-1.783 0-2.605 0.183-0.411 0.411-0.777 0.731-1.097l11.428-11.428c1.326-1.326 3.52-1.326 4.846 0s1.326 3.52 0 4.846l-5.577 5.577h24.867v-24.913l-5.577 5.577c-1.326 1.326-3.52 1.326-4.846 0s-1.326-3.52 0-4.846l11.428-11.428c0.32-0.32 0.685-0.549 1.097-0.731 0.823-0.366 1.783-0.366 2.605 0 0.411 0.183 0.777 0.411 1.097 0.731l11.428 11.428c1.326 1.326 1.326 3.52 0 4.846-0.685 0.685-1.554 1.006-2.423 1.006s-1.737-0.32-2.423-1.006l-5.577-5.577v24.867h24.867l-5.577-5.577c-1.326-1.326-1.326-3.52 0-4.846s3.52-1.326 4.846 0l11.428 11.428c0.32 0.32 0.549 0.685 0.731 1.097 0.366 0.823 0.366 1.783 0 2.605z"></path>
</svg>
