<!-- Generated by IcoMoon.io -->
<svg version="1.1" xmlns="http://www.w3.org/2000/svg" width="80" height="80" viewBox="0 0 80 80">
<title>arrow-down</title>
<path d="M40 79.999c-0.005 0-0.012 0-0.018 0-1.063 0-2.025-0.434-2.717-1.135l-30.967-30.967c-0.644-0.689-1.039-1.618-1.039-2.639 0-2.138 1.733-3.871 3.871-3.871 1.021 0 1.949 0.395 2.641 1.041l-0.002-0.002 28.231 28.231 28.231-28.231c0.689-0.644 1.618-1.039 2.639-1.039 2.138 0 3.871 1.733 3.871 3.871 0 1.021-0.395 1.949-1.041 2.641l0.002-0.002-30.967 30.967c-0.693 0.701-1.654 1.135-2.717 1.135-0.006 0-0.013 0-0.019 0h0.001z"></path>
<path d="M40 79.999c-2.126-0.029-3.842-1.745-3.871-3.868v-72.258c0-2.138 1.733-3.871 3.871-3.871s3.871 1.733 3.871 3.871v0 72.256c-0.029 2.126-1.745 3.842-3.868 3.871h-0.003z"></path>
</svg>
