<!-- Generated by IcoMoon.io -->
<svg version="1.1" xmlns="http://www.w3.org/2000/svg" width="80" height="80" viewBox="0 0 80 80">
<title>arrow-left</title>
<path d="M34.839 74.838c-0.005 0-0.012 0-0.018 0-1.063 0-2.025-0.434-2.717-1.135l-30.967-30.967c-0.699-0.7-1.132-1.667-1.132-2.735s0.433-2.035 1.132-2.735v0l30.967-30.967c0.689-0.644 1.618-1.039 2.639-1.039 2.138 0 3.871 1.733 3.871 3.871 0 1.021-0.395 1.949-1.041 2.641l0.002-0.002-28.231 28.231 28.231 28.231c0.699 0.7 1.132 1.667 1.132 2.735s-0.433 2.035-1.132 2.735v0c-0.693 0.701-1.654 1.135-2.717 1.135-0.006 0-0.013 0-0.019 0h0.001z"></path>
<path d="M76.128 43.871h-72.256c-2.138 0-3.871-1.733-3.871-3.871s1.733-3.871 3.871-3.871v0h72.256c2.138 0 3.871 1.733 3.871 3.871s-1.733 3.871-3.871 3.871v0z"></path>
</svg>
