<!-- Generated by IcoMoon.io -->
<svg version="1.1" xmlns="http://www.w3.org/2000/svg" width="80" height="80" viewBox="0 0 80 80">
<title>arrow-right-arrow-left</title>
<path d="M79.996 60.643c0 2.116-1.755 3.871-3.871 3.871h-62.91l6.296 6.296c1.497 1.497 1.497 3.974 0 5.47-0.774 0.774-1.755 1.135-2.735 1.135s-1.961-0.361-2.735-1.135l-12.902-12.902c-0.361-0.361-0.619-0.774-0.826-1.239-0.413-0.929-0.413-2.013 0-2.942 0.206-0.464 0.464-0.877 0.826-1.239l12.902-12.902c1.497-1.497 3.974-1.497 5.47 0s1.497 3.974 0 5.47l-6.296 6.296h62.91c2.116 0 3.871 1.755 3.871 3.871zM3.875 23.227h62.91l-6.296 6.296c-1.497 1.497-1.497 3.974 0 5.47 0.774 0.774 1.755 1.135 2.735 1.135s1.961-0.361 2.735-1.135l12.902-12.902c0.361-0.361 0.619-0.774 0.826-1.239 0.413-0.929 0.413-2.013 0-2.942-0.206-0.464-0.464-0.877-0.826-1.239l-12.902-12.902c-1.497-1.497-3.974-1.497-5.47 0s-1.497 3.974 0 5.47l6.296 6.296h-62.91c-2.116 0-3.871 1.755-3.871 3.871s1.755 3.871 3.871 3.871z"></path>
</svg>
