<!-- Generated by IcoMoon.io -->
<svg version="1.1" xmlns="http://www.w3.org/2000/svg" width="80" height="80" viewBox="0 0 80 80">
<title>arrow-up-right</title>
<path d="M21.401 10.052c-2.176 0-3.941 1.764-3.941 3.941s1.764 3.941 3.941 3.941v0h35.097l-45.29 45.29c-0.773 0.721-1.254 1.746-1.254 2.883 0 2.176 1.764 3.941 3.941 3.941 1.137 0 2.162-0.482 2.881-1.252l0.002-0.002 45.29-45.29v35.097c0 2.176 1.764 3.941 3.941 3.941s3.941-1.764 3.941-3.941v0-44.607c-0.003-0.551-0.119-1.074-0.325-1.549l0.010 0.026c-0.584-1.346-1.849-2.295-3.348-2.416l-0.014-0.001z"></path>
</svg>
