<!-- Generated by IcoMoon.io -->
<svg version="1.1" xmlns="http://www.w3.org/2000/svg" width="80" height="80" viewBox="0 0 80 80">
<title>arrow-down-right</title>
<path d="M70.047 21.339c0-2.184-1.77-3.954-3.954-3.954s-3.954 1.77-3.954 3.954v0 35.213l-45.439-45.439c-0.704-0.658-1.652-1.061-2.695-1.061-2.184 0-3.954 1.77-3.954 3.954 0 1.043 0.404 1.991 1.063 2.698l-0.002-0.002 45.439 45.439h-35.213c-2.184 0-3.954 1.77-3.954 3.954s1.77 3.954 3.954 3.954v0h45.017c0.553-0.003 1.078-0.119 1.554-0.326l-0.026 0.010c1.243-0.653 2.092-1.906 2.161-3.365l0-0.009z"></path>
</svg>
