<!-- Generated by IcoMoon.io -->
<svg version="1.1" xmlns="http://www.w3.org/2000/svg" width="80" height="80" viewBox="0 0 80 80">
<title>arrows-h</title>
<path d="M79.723 38.674c-0.183-0.425-0.43-0.789-0.732-1.098l-18.284-18.284c-0.628-0.672-1.519-1.091-2.508-1.091-1.893 0-3.428 1.535-3.428 3.428 0 0.989 0.419 1.881 1.089 2.506l0.002 0.002 12.433 12.433h-56.59l12.433-12.433c0.57-0.611 0.92-1.433 0.92-2.337 0-1.893-1.535-3.428-3.428-3.428-0.904 0-1.727 0.35-2.339 0.922l0.002-0.002-18.284 18.284c-0.301 0.308-0.548 0.672-0.722 1.074l-0.009 0.023c-0.174 0.391-0.275 0.846-0.275 1.326s0.101 0.935 0.283 1.347l-0.008-0.021c0.183 0.425 0.43 0.789 0.732 1.098l18.284 18.284c0.62 0.619 1.477 1.003 2.423 1.003s1.802-0.383 2.423-1.003v0c0.619-0.62 1.003-1.477 1.003-2.423s-0.383-1.802-1.003-2.423v0l-12.433-12.433h56.59l-12.433 12.433c-0.619 0.62-1.003 1.477-1.003 2.423s0.383 1.802 1.003 2.423v0c0.62 0.619 1.477 1.003 2.423 1.003s1.802-0.383 2.423-1.003v0l18.284-18.284c0.301-0.308 0.548-0.672 0.722-1.074l0.009-0.023c0.174-0.391 0.275-0.846 0.275-1.326s-0.101-0.935-0.283-1.347l0.008 0.021z"></path>
</svg>
