<!-- Generated by IcoMoon.io -->
<svg version="1.1" xmlns="http://www.w3.org/2000/svg" width="80" height="80" viewBox="0 0 80 80">
<title>at</title>
<path d="M40 0.002c-22.090 0-39.998 17.908-39.998 39.998v0c-0.002 0.137-0.003 0.298-0.003 0.46 0 21.838 17.703 39.541 39.541 39.541 0.162 0 0.323-0.001 0.484-0.003l-0.024 0c1.893 0 3.428-1.535 3.428-3.428s-1.535-3.428-3.428-3.428v0c-0.109 0.001-0.239 0.002-0.368 0.002-18.101 0-32.775-14.674-32.775-32.775 0-0.129 0.001-0.258 0.002-0.387l-0 0.020c0.026-18.293 14.848-33.115 33.139-33.141h0.002c21.987 0 33.141 11.154 33.141 33.141v6.308c0.015 0.165 0.023 0.358 0.023 0.552 0 3.686-2.988 6.674-6.674 6.674s-6.674-2.988-6.674-6.674c0-0.194 0.008-0.387 0.025-0.577l-0.002 0.025v-22.856c0-1.893-1.535-3.428-3.428-3.428s-3.428 1.535-3.428 3.428v0 1.554c-3.441-3.010-7.976-4.845-12.94-4.845-0.015 0-0.029 0-0.044 0h0.002c-10.957 0-19.839 8.882-19.839 19.839s8.882 19.839 19.839 19.839v0c5.909-0.021 11.2-2.646 14.79-6.787l0.021-0.024c2.369 4.082 6.72 6.784 11.702 6.784 7.448 0 13.485-6.037 13.485-13.485 0-0.007 0-0.013 0-0.020v0.001-6.308c0-25.781-14.216-39.998-39.998-39.998zM40 52.982c-7.17 0-12.982-5.812-12.982-12.982s5.812-12.982 12.982-12.982c7.17 0 12.982 5.812 12.982 12.982v0c-0.026 7.159-5.823 12.956-12.98 12.982h-0.002z"></path>
</svg>
