<!-- Generated by IcoMoon.io -->
<svg version="1.1" xmlns="http://www.w3.org/2000/svg" width="80" height="80" viewBox="0 0 80 80">
<title>backward</title>
<path d="M77.942 4.847c-1.234-0.549-2.697-0.274-3.703 0.64l-33.233 31.176v-28.662c0-1.371-0.823-2.606-2.057-3.154s-2.697-0.274-3.703 0.64l-34.148 31.999c-0.686 0.64-1.097 1.554-1.097 2.514s0.411 1.874 1.097 2.514l34.148 31.999c0.64 0.594 1.509 0.914 2.331 0.914 0.457 0 0.914-0.091 1.371-0.274 1.234-0.549 2.057-1.783 2.057-3.154v-28.662l33.233 31.176c0.64 0.594 1.509 0.914 2.331 0.914 0.457 0 0.914-0.091 1.371-0.274 1.234-0.549 2.057-1.783 2.057-3.154v-63.998c0-1.371-0.823-2.606-2.057-3.154zM34.149 64.091l-25.691-24.091 25.691-24.091v48.182zM73.142 64.091l-25.691-24.091 25.691-24.091v48.182z"></path>
</svg>
