<!-- Generated by IcoMoon.io -->
<svg version="1.1" xmlns="http://www.w3.org/2000/svg" width="80" height="80" viewBox="0 0 80 80">
<title>ban</title>
<path d="M40 0c-22.091 0-40 17.909-40 40s17.909 40 40 40c22.091 0 40-17.909 40-40v0c0-22.091-17.909-40-40-40v0zM6.667 40c0-0.009 0-0.019 0-0.029 0-8.017 2.853-15.368 7.6-21.093l-0.044 0.055 46.844 46.844c-5.697 4.7-13.071 7.55-21.111 7.55-18.385 0-33.289-14.904-33.289-33.289 0-0.014 0-0.028 0-0.041v0.002zM65.778 61.067l-46.844-46.844c5.692-4.686 13.055-7.527 21.082-7.527 18.385 0 33.289 14.904 33.289 33.289 0 8.027-2.841 15.391-7.573 21.14l0.046-0.057z"></path>
</svg>
