<!-- Generated by IcoMoon.io -->
<svg version="1.1" xmlns="http://www.w3.org/2000/svg" width="80" height="80" viewBox="0 0 80 80">
<title>bars</title>
<path d="M76.128 43.871h-72.256c-2.138 0-3.871-1.733-3.871-3.871s1.733-3.871 3.871-3.871v0h72.256c2.138 0 3.871 1.733 3.871 3.871s-1.733 3.871-3.871 3.871v0z"></path>
<path d="M76.128 20.646h-72.256c-2.138 0-3.871-1.733-3.871-3.871s1.733-3.871 3.871-3.871v0h72.256c2.138 0 3.871 1.733 3.871 3.871s-1.733 3.871-3.871 3.871v0z"></path>
<path d="M76.128 67.096h-72.256c-2.138 0-3.871-1.733-3.871-3.871s1.733-3.871 3.871-3.871v0h72.256c2.138 0 3.871 1.733 3.871 3.871s-1.733 3.871-3.871 3.871v0z"></path>
</svg>
