<!-- Generated by IcoMoon.io -->
<svg version="1.1" xmlns="http://www.w3.org/2000/svg" width="80" height="80" viewBox="0 0 80 80">
<title>bell</title>
<path d="M76.865 58.368c-0.389 0-9.119-1.556-9.119-27.011 0-17.979-10.459-29.172-27.746-29.172s-27.746 11.194-27.746 29.172c0 25.931-9.033 27.011-8.989 27.011-1.79 0-3.241 1.451-3.241 3.241s1.451 3.241 3.241 3.241v0h20.874c1.509 7.49 8.035 13.051 15.861 13.051s14.352-5.561 15.844-12.947l0.017-0.104h20.918c1.79 0 3.241-1.451 3.241-3.241s-1.451-3.241-3.241-3.241v0zM40 71.333c-4.193-0.008-7.76-2.681-9.098-6.415l-0.021-0.068h18.238c-1.359 3.802-4.926 6.475-9.118 6.483h-0.001zM13.032 58.368c3.112-4.711 5.705-12.965 5.705-27.011s7.779-22.69 21.263-22.69 21.263 8.255 21.263 22.69 2.593 22.301 5.705 27.011z"></path>
</svg>
