<!-- Generated by IcoMoon.io -->
<svg version="1.1" xmlns="http://www.w3.org/2000/svg" width="80" height="80" viewBox="0 0 80 80">
<title>bitcoin</title>
<path d="M47.596 48.345c-1.349 5.447-10.494 2.499-13.492 1.749l2.399-9.644c2.998 0.75 12.493 2.199 11.094 7.895zM39.8 27.257l-2.199 8.745c2.499 0.6 10.144 3.148 11.393-1.799 1.249-5.147-6.696-6.346-9.195-6.946zM78.777 49.644c-5.347 21.388-27.034 34.43-48.472 29.133-21.388-5.347-34.48-27.034-29.133-48.422 5.347-21.437 27.034-34.43 48.472-29.133 21.387 5.347 34.48 27.034 29.133 48.422zM26.858 46.696c-0.2 0.55-0.75 1.349-1.999 1.049-0.2 0-3.198-0.8-3.198-0.8l-2.199 4.997 5.697 1.399c1.099 0.3 2.099 0.55 3.148 0.849l-1.799 7.246 4.348 1.099 1.799-7.196c1.199 0.35 2.349 0.6 3.498 0.899l-1.799 7.146 4.398 1.099 1.799-7.246c7.496 1.399 13.142 0.849 15.491-5.946 1.899-5.447-0.1-8.595-4.048-10.644 2.848-0.65 4.997-2.549 5.597-6.446 0.8-5.297-3.248-8.195-8.795-10.044l1.799-7.246-4.398-1.099-1.749 6.996c-1.149-0.3-2.349-0.55-3.548-0.849l1.749-7.046-4.348-1.099-1.799 7.196c-0.949-0.2-1.899-0.45-2.798-0.65l-6.046-1.549-1.149 4.697s3.198 0.75 3.198 0.8c1.749 0.45 2.049 1.599 2.049 2.549l-4.947 19.739z"></path>
</svg>
