<!-- Generated by IcoMoon.io -->
<svg version="1.1" xmlns="http://www.w3.org/2000/svg" width="80" height="80" viewBox="0 0 80 80">
<title>bolt</title>
<path d="M36.162 80.065c-0.152 0.029-0.327 0.046-0.506 0.046s-0.354-0.017-0.524-0.048l0.017 0.003c-1.452-0.448-2.489-1.779-2.489-3.351 0-0.023 0-0.046 0.001-0.068l-0 0.003v-0.464l3.796-26.78h-18.303c-0.001 0-0.002 0-0.003 0-1.293 0-2.416-0.727-2.983-1.795l-0.009-0.018c-0.31-0.519-0.493-1.145-0.493-1.814s0.183-1.294 0.502-1.83l-0.009 0.016 8.435-14.719 17.291-27.497c0.591-0.985 1.653-1.634 2.867-1.634 0.362 0 0.71 0.058 1.037 0.164l-0.024-0.007c1.452 0.448 2.489 1.779 2.489 3.351 0 0.023-0 0.046-0.001 0.068l0-0.003v0.464l-3.796 26.78h18.346c0.001 0 0.002 0 0.003 0 1.293 0 2.416 0.727 2.983 1.795l0.009 0.018c0.31 0.519 0.493 1.145 0.493 1.814s-0.183 1.294-0.502 1.83l0.009-0.016-8.435 14.719-17.291 27.497c-0.606 0.897-1.62 1.479-2.769 1.479-0.050 0-0.099-0.001-0.148-0.003l0.007 0zM33.927 74.962v0zM22.835 42.91h16.87c1.938 0.024 3.501 1.601 3.501 3.542 0 0.015-0 0.030-0 0.045v-0.002 0.464l-2.488 17.46 10.544-16.87 6.073-10.459h-16.87c-1.938-0.024-3.501-1.601-3.501-3.542 0-0.015 0-0.030 0-0.045v0.002-0.464l2.488-17.46-10.544 16.87zM46.073 4.996v0z"></path>
</svg>
