<!-- Generated by IcoMoon.io -->
<svg version="1.1" xmlns="http://www.w3.org/2000/svg" width="80" height="80" viewBox="0 0 80 80">
<title>book</title>
<path d="M71.995 0.007h-55.991c-0.097-0.003-0.211-0.005-0.326-0.005-6.007 0-10.9 4.769-11.1 10.728l-0 0.018v56.676c0.25 6.998 5.983 12.576 13.019 12.576 0.147 0 0.294-0.003 0.44-0.007l-0.021 0h53.98c1.883-0.025 3.403-1.545 3.428-3.425v-73.133c-0.025-1.883-1.545-3.403-3.425-3.428h-0.003zM68.567 73.137h-50.551c-0.128 0.010-0.277 0.015-0.427 0.015-3.252 0-5.917-2.516-6.153-5.708l-0.001-0.020c0.238-3.212 2.902-5.728 6.155-5.728 0.15 0 0.3 0.005 0.447 0.016l-0.020-0.001h50.551zM68.567 54.855h-50.551c-2.415 0.003-4.682 0.629-6.651 1.727l0.070-0.036v-45.798c0.212-2.194 2.046-3.895 4.278-3.895 0.103 0 0.205 0.004 0.307 0.011l-0.014-0.001h52.563z"></path>
<path d="M25.145 25.145h29.709c1.893 0 3.428-1.535 3.428-3.428s-1.535-3.428-3.428-3.428v0h-29.709c-1.893 0-3.428 1.535-3.428 3.428s1.535 3.428 3.428 3.428v0z"></path>
<path d="M25.145 41.143h29.709c1.893 0 3.428-1.535 3.428-3.428s-1.535-3.428-3.428-3.428v0h-29.709c-1.893 0-3.428 1.535-3.428 3.428s1.535 3.428 3.428 3.428v0z"></path>
</svg>
