<!-- Generated by IcoMoon.io -->
<svg version="1.1" xmlns="http://www.w3.org/2000/svg" width="80" height="80" viewBox="0 0 80 80">
<title>bookmark-fill</title>
<path d="M57.137 0.014h-34.274c-6.941 0-12.567 5.626-12.567 12.567v0 63.977c-0 0.008-0 0.016-0 0.025 0 1.893 1.535 3.427 3.427 3.427 0.736 0 1.417-0.232 1.976-0.627l-0.011 0.007 24.311-16.954 24.311 16.954c0.54 0.372 1.209 0.594 1.929 0.594 0.013 0 0.025-0 0.038-0h-0.002c0.582-0.007 1.131-0.141 1.623-0.376l-0.023 0.010c1.091-0.606 1.819-1.748 1.828-3.060v-63.979c0-6.941-5.626-12.567-12.567-12.567v0z"></path>
</svg>
