<!-- Generated by IcoMoon.io -->
<svg version="1.1" xmlns="http://www.w3.org/2000/svg" width="80" height="80" viewBox="0 0 80 80">
<title>bookmark</title>
<path d="M66.286 80c-0.731-0.015-1.409-0.234-1.981-0.603l0.015 0.009-24.32-16.96-24.32 16.96c-0.508 0.314-1.124 0.5-1.783 0.5s-1.275-0.186-1.798-0.509l0.015 0.008c-1.047-0.548-1.764-1.6-1.828-2.826l-0-0.008v-64c0-6.943 5.628-12.571 12.571-12.571v0h34.286c6.943 0 12.571 5.628 12.571 12.571v0 64c0 0.004 0 0.008 0 0.012 0 1.3-0.734 2.43-1.81 2.996l-0.019 0.009c-0.462 0.258-1.013 0.41-1.6 0.411h-0zM40 54.857c0.011-0 0.023-0 0.036-0 0.721 0 1.389 0.222 1.941 0.602l-0.012-0.008 20.891 14.537v-57.417c0-3.156-2.558-5.714-5.714-5.714v0h-34.286c-3.156 0-5.714 2.558-5.714 5.714v0 57.417l20.891-14.537c0.54-0.372 1.209-0.594 1.93-0.594 0.013 0 0.025 0 0.038 0h-0.002z"></path>
</svg>
