<!-- Generated by IcoMoon.io -->
<svg version="1.1" xmlns="http://www.w3.org/2000/svg" width="80" height="80" viewBox="0 0 80 80">
<title>box</title>
<path d="M79.907 60.662s0-0.32 0-0.503v-40.319c-0.002-0.551-0.137-1.070-0.374-1.527l0.009 0.019c-0.344-0.729-0.917-1.302-1.625-1.637l-0.021-0.009-36.57-16.365c-0.416-0.194-0.903-0.307-1.417-0.307s-1.001 0.113-1.438 0.315l0.021-0.009-36.57 16.365c-1.17 0.599-1.968 1.778-2.011 3.148l-0 0.006v40.319c0.074 1.367 0.86 2.534 1.991 3.144l0.020 0.010 36.57 16.365c0.415 0.202 0.902 0.321 1.417 0.321s1.002-0.118 1.437-0.329l-0.020 0.009 36.57-16.365c1.058-0.493 1.819-1.466 2.009-2.631l0.003-0.020zM6.767 25.098l29.713 13.348v32.822l-29.713-13.302zM43.337 38.446l29.713-13.348v32.867l-29.713 13.302zM40 7.178l28.205 12.662-28.205 12.617-28.205-12.617z"></path>
</svg>
