<!-- Generated by IcoMoon.io -->
<svg version="1.1" xmlns="http://www.w3.org/2000/svg" width="80" height="80" viewBox="0 0 80 80">
<title>briefcase</title>
<path d="M71.999 13.715h-17.142v-5.714c-0.335-4.495-4.065-8.016-8.617-8.016-0.185 0-0.368 0.006-0.55 0.017l0.025-0.001h-11.428c-0.157-0.010-0.341-0.016-0.525-0.016-4.552 0-8.282 3.52-8.615 7.987l-0.002 0.029v5.714h-17.142c-4.408 0.026-7.974 3.592-8 7.997v45.715c0.026 4.408 3.592 7.974 7.997 8h64.001c4.408-0.026 7.974-3.592 8-7.997v-45.715c-0.026-4.408-3.592-7.974-7.997-8h-0.002zM32 8.001c0-0.366 0.869-1.143 2.286-1.143h11.428c1.417 0 2.286 0.777 2.286 1.143v5.714h-15.999zM8.001 20.572h63.998c0.631 0 1.143 0.512 1.143 1.143v0 14.857h-66.284v-14.857c0-0.631 0.512-1.143 1.143-1.143v0zM25.143 43.428h29.713v6.857h-29.713zM71.999 68.571h-63.998c-0.631 0-1.143-0.512-1.143-1.143v0-23.999h11.428v10.285c0.025 1.883 1.545 3.403 3.426 3.428h36.573c1.883-0.025 3.403-1.545 3.428-3.426v-10.288h11.428v23.999c0 0.631-0.512 1.143-1.143 1.143v0z"></path>
</svg>
