<!-- Generated by IcoMoon.io -->
<svg version="1.1" xmlns="http://www.w3.org/2000/svg" width="80" height="80" viewBox="0 0 80 80">
<title>building</title>
<path d="M28.572 12.573h4.571c1.262 0 2.286 1.023 2.286 2.286v4.571c0 1.262-1.023 2.286-2.286 2.286h-4.571c-1.262 0-2.286-1.023-2.286-2.286v-4.571c0-1.262 1.023-2.286 2.286-2.286z"></path>
<path d="M46.857 12.573h4.571c1.262 0 2.286 1.023 2.286 2.286v4.571c0 1.262-1.023 2.286-2.286 2.286h-4.571c-1.262 0-2.286-1.023-2.286-2.286v-4.571c0-1.262 1.023-2.286 2.286-2.286z"></path>
<path d="M28.572 28.572h4.571c1.262 0 2.286 1.023 2.286 2.286v4.571c0 1.262-1.023 2.286-2.286 2.286h-4.571c-1.262 0-2.286-1.023-2.286-2.286v-4.571c0-1.262 1.023-2.286 2.286-2.286z"></path>
<path d="M46.857 28.572h4.571c1.262 0 2.286 1.023 2.286 2.286v4.571c0 1.262-1.023 2.286-2.286 2.286h-4.571c-1.262 0-2.286-1.023-2.286-2.286v-4.571c0-1.262 1.023-2.286 2.286-2.286z"></path>
<path d="M28.572 44.571h4.571c1.262 0 2.286 1.023 2.286 2.286v4.571c0 1.262-1.023 2.286-2.286 2.286h-4.571c-1.262 0-2.286-1.023-2.286-2.286v-4.571c0-1.262 1.023-2.286 2.286-2.286z"></path>
<path d="M46.857 44.571h4.571c1.262 0 2.286 1.023 2.286 2.286v4.571c0 1.262-1.023 2.286-2.286 2.286h-4.571c-1.262 0-2.286-1.023-2.286-2.286v-4.571c0-1.262 1.023-2.286 2.286-2.286z"></path>
<path d="M68.57 73.141h-2.286v-69.71c-0.025-1.883-1.545-3.403-3.426-3.428h-45.714c-1.883 0.025-3.403 1.545-3.428 3.426v69.713h-2.286c-1.893 0-3.428 1.535-3.428 3.428s1.535 3.428 3.428 3.428v0h57.14c1.893 0 3.428-1.535 3.428-3.428s-1.535-3.428-3.428-3.428v0zM59.427 73.141h-23.999v-10.285c0-1.262-1.023-2.286-2.286-2.286v0h-4.571c-1.262 0-2.286 1.023-2.286 2.286v0 10.285h-5.714v-66.282h38.855z"></path>
</svg>
