<!-- Generated by IcoMoon.io -->
<svg version="1.1" xmlns="http://www.w3.org/2000/svg" width="80" height="80" viewBox="0 0 80 80">
<title>calculator</title>
<path d="M54.359 24.616h-28.717c-1.149 0-2.051-0.903-2.051-2.051v-6.154c0-1.149 0.903-2.051 2.051-2.051h28.717c1.149 0 2.051 0.903 2.051 2.051v6.154c0 1.149-0.903 2.051-2.051 2.051zM56.41 36.923v-4.102c0-1.149-0.903-2.051-2.051-2.051h-4.102c-1.149 0-2.051 0.903-2.051 2.051v4.102c0 1.149 0.903 2.051 2.051 2.051h4.102c1.149 0 2.051-0.903 2.051-2.051zM31.795 36.923v-4.102c0-1.149-0.903-2.051-2.051-2.051h-4.102c-1.149 0-2.051 0.903-2.051 2.051v4.102c0 1.149 0.903 2.051 2.051 2.051h4.102c1.149 0 2.051-0.903 2.051-2.051zM44.102 36.923v-4.102c0-1.149-0.903-2.051-2.051-2.051h-4.102c-1.149 0-2.051 0.903-2.051 2.051v4.102c0 1.149 0.903 2.051 2.051 2.051h4.102c1.149 0 2.051-0.903 2.051-2.051zM56.41 50.256v-4.102c0-1.149-0.903-2.051-2.051-2.051h-4.102c-1.149 0-2.051 0.903-2.051 2.051v4.102c0 1.149 0.903 2.051 2.051 2.051h4.102c1.149 0 2.051-0.903 2.051-2.051zM31.795 50.256v-4.102c0-1.149-0.903-2.051-2.051-2.051h-4.102c-1.149 0-2.051 0.903-2.051 2.051v4.102c0 1.149 0.903 2.051 2.051 2.051h4.102c1.149 0 2.051-0.903 2.051-2.051zM44.102 50.256v-4.102c0-1.149-0.903-2.051-2.051-2.051h-4.102c-1.149 0-2.051 0.903-2.051 2.051v4.102c0 1.149 0.903 2.051 2.051 2.051h4.102c1.149 0 2.051-0.903 2.051-2.051zM56.41 63.589v-4.103c0-1.149-0.903-2.051-2.051-2.051h-4.102c-1.149 0-2.051 0.903-2.051 2.051v4.102c0 1.149 0.903 2.051 2.051 2.051h4.102c1.149 0 2.051-0.903 2.051-2.051zM44.102 63.589v-4.103c0-1.149-0.903-2.051-2.051-2.051h-16.41c-1.149 0-2.051 0.903-2.051 2.051v4.102c0 1.149 0.903 2.051 2.051 2.051h16.41c1.149 0 2.051-0.903 2.051-2.051zM69.743 70.768v-61.537c0-5.087-4.143-9.23-9.23-9.23h-41.024c-5.087 0-9.23 4.143-9.23 9.23v61.537c0 5.087 4.143 9.23 9.23 9.23h41.024c5.087 0 9.23-4.143 9.23-9.23zM60.512 6.155c1.682 0 3.077 1.395 3.077 3.077v61.537c0 1.682-1.395 3.077-3.077 3.077h-41.024c-1.682 0-3.077-1.395-3.077-3.077v-61.537c0-1.682 1.395-3.077 3.077-3.077h41.024z"></path>
</svg>
