<!-- Generated by IcoMoon.io -->
<svg version="1.1" xmlns="http://www.w3.org/2000/svg" width="80" height="80" viewBox="0 0 80 80">
<title>calendar-plus</title>
<path d="M61.622 8.649h-5.405v-5.405c0-1.791-1.452-3.243-3.243-3.243s-3.243 1.452-3.243 3.243v0 5.405h-19.459v-5.405c0-1.791-1.452-3.243-3.243-3.243s-3.243 1.452-3.243 3.243v0 5.405h-5.405c-6.568 0-11.892 5.324-11.892 11.892v0 47.568c0 6.568 5.324 11.892 11.892 11.892v0h43.243c6.568 0 11.892-5.324 11.892-11.892v0-47.568c0-6.568-5.324-11.892-11.892-11.892v0zM18.378 15.135h5.405v5.405c0 1.791 1.452 3.243 3.243 3.243s3.243-1.452 3.243-3.243v0-5.405h19.459v5.405c0 1.791 1.452 3.243 3.243 3.243s3.243-1.452 3.243-3.243v0-5.405h5.405c2.985 0 5.405 2.42 5.405 5.405v0 11.892h-54.054v-11.892c0-2.985 2.42-5.405 5.405-5.405v0zM61.622 73.514h-43.243c-2.985 0-5.405-2.42-5.405-5.405v0-29.189h54.054v29.189c0 2.985-2.42 5.405-5.405 5.405v0z"></path>
<path d="M48.649 54.054h-5.405v-5.405c0-1.791-1.452-3.243-3.243-3.243s-3.243 1.452-3.243 3.243v0 5.405h-5.405c-1.791 0-3.243 1.452-3.243 3.243s1.452 3.243 3.243 3.243v0h5.405v5.405c0 1.791 1.452 3.243 3.243 3.243s3.243-1.452 3.243-3.243v0-5.405h5.405c1.791 0 3.243-1.452 3.243-3.243s-1.452-3.243-3.243-3.243v0z"></path>
</svg>
