<!-- Generated by IcoMoon.io -->
<svg version="1.1" xmlns="http://www.w3.org/2000/svg" width="80" height="80" viewBox="0 0 80 80">
<title>calendar</title>
<path d="M61.621 8.649h-5.405v-5.405c0-1.791-1.452-3.243-3.243-3.243s-3.243 1.452-3.243 3.243v0 5.405h-19.459v-5.405c0-1.791-1.452-3.243-3.243-3.243s-3.243 1.452-3.243 3.243v0 5.405h-5.405c-6.567 0-11.891 5.324-11.891 11.891v0 47.566c0 6.567 5.324 11.891 11.891 11.891v0h43.241c6.567 0 11.891-5.324 11.891-11.891v0-47.566c0-6.567-5.324-11.891-11.891-11.891v0zM18.379 15.136h5.405v5.405c0 1.791 1.452 3.243 3.243 3.243s3.243-1.452 3.243-3.243v0-5.405h19.459v5.405c0 1.791 1.452 3.243 3.243 3.243s3.243-1.452 3.243-3.243v0-5.405h5.405c2.985 0 5.405 2.42 5.405 5.405v0 11.891h-54.052v-11.891c0-2.985 2.42-5.405 5.405-5.405v0zM61.621 73.511h-43.241c-2.985 0-5.405-2.42-5.405-5.405v0-29.188h54.052v29.188c0 2.985-2.42 5.405-5.405 5.405v0z"></path>
</svg>
