<!-- Generated by IcoMoon.io -->
<svg version="1.1" xmlns="http://www.w3.org/2000/svg" width="80" height="80" viewBox="0 0 80 80">
<title>calendar-times</title>
<path d="M61.622 8.649h-5.405v-5.405c0-1.791-1.452-3.243-3.243-3.243s-3.243 1.452-3.243 3.243v0 5.405h-19.459v-5.405c0-1.791-1.452-3.243-3.243-3.243s-3.243 1.452-3.243 3.243v0 5.405h-5.405c-6.568 0-11.892 5.324-11.892 11.892v0 47.568c0 6.568 5.324 11.892 11.892 11.892v0h43.243c6.568 0 11.892-5.324 11.892-11.892v0-47.568c0-6.568-5.324-11.892-11.892-11.892v0zM18.378 15.135h5.405v5.405c0 1.791 1.452 3.243 3.243 3.243s3.243-1.452 3.243-3.243v0-5.405h19.459v5.405c0 1.791 1.452 3.243 3.243 3.243s3.243-1.452 3.243-3.243v0-5.405h5.405c2.985 0 5.405 2.42 5.405 5.405v0 11.892h-54.054v-11.892c0-2.985 2.42-5.405 5.405-5.405v0zM61.622 73.514h-43.243c-2.985 0-5.405-2.42-5.405-5.405v0-29.189h54.054v29.189c0 2.985-2.42 5.405-5.405 5.405v0z"></path>
<path d="M48.389 48.908c-0.582-0.597-1.394-0.967-2.292-0.967s-1.71 0.37-2.291 0.966l-0.001 0.001-3.805 3.805-3.805-3.805c-0.578-0.539-1.356-0.87-2.211-0.87-1.791 0-3.243 1.452-3.243 3.243 0 0.855 0.331 1.633 0.872 2.213l-0.002-0.002 3.805 3.805-3.805 3.805c-0.597 0.582-0.967 1.394-0.967 2.292s0.37 1.71 0.966 2.291l0.001 0.001c0.56 0.587 1.349 0.952 2.223 0.952 0.024 0 0.049-0 0.073-0.001l-0.004 0c0.004 0 0.010 0 0.015 0 0.891 0 1.696-0.364 2.276-0.951l3.806-3.806 3.805 3.805c0.58 0.587 1.386 0.951 2.277 0.951 0.005 0 0.011 0 0.016 0h-0.001c0.021 0 0.045 0.001 0.069 0.001 0.874 0 1.662-0.365 2.221-0.951l0.001-0.001c0.597-0.582 0.967-1.394 0.967-2.292s-0.37-1.71-0.966-2.291l-0.001-0.001-3.805-3.805 3.805-3.805c0.597-0.582 0.967-1.394 0.967-2.292s-0.37-1.71-0.966-2.291l-0.001-0.001z"></path>
</svg>
