<!-- Generated by IcoMoon.io -->
<svg version="1.1" xmlns="http://www.w3.org/2000/svg" width="80" height="80" viewBox="0 0 80 80">
<title>camera</title>
<path d="M67.429 73.143h-54.857c-6.943 0-12.571-5.628-12.571-12.571v0-27.429c0-6.943 5.628-12.571 12.571-12.571v0h2.743l5.394-8c2.298-3.383 6.127-5.576 10.469-5.577h17.646c4.342 0.001 8.171 2.194 10.44 5.533l0.028 0.044 5.394 8h2.743c6.943 0 12.571 5.628 12.571 12.571v0 27.429c0 6.943-5.628 12.571-12.571 12.571v0zM12.571 27.429c-3.156 0-5.714 2.558-5.714 5.714v0 27.429c0 3.156 2.558 5.714 5.714 5.714v0h54.857c3.156 0 5.714-2.558 5.714-5.714v0-27.429c0-3.156-2.558-5.714-5.714-5.714v0h-4.571c-1.175-0.002-2.21-0.595-2.827-1.497l-0.008-0.012-6.309-9.646c-0.997-1.506-2.662-2.501-4.563-2.56l-0.009-0h-17.966c-1.909 0.059-3.574 1.054-4.558 2.539l-0.013 0.021-6.629 9.646c-0.624 0.914-1.66 1.506-2.834 1.509h-0z"></path>
<path d="M40 59.429c-8.205 0-14.857-6.652-14.857-14.857s6.652-14.857 14.857-14.857c8.205 0 14.857 6.652 14.857 14.857v0c-0.026 8.195-6.662 14.831-14.855 14.857h-0.002zM40 36.571c-4.418 0-8 3.582-8 8s3.582 8 8 8c4.418 0 8-3.582 8-8v0c-0.026-4.408-3.592-7.974-7.998-8h-0.002z"></path>
</svg>
