<!-- Generated by IcoMoon.io -->
<svg version="1.1" xmlns="http://www.w3.org/2000/svg" width="80" height="80" viewBox="0 0 80 80">
<title>car</title>
<path d="M75.529 31.836l-8.392-22.804c-1.089-3.157-4.019-5.39-7.475-5.427h-39.227c-3.419 0.008-6.332 2.164-7.462 5.19l-0.018 0.055-8.392 22.804c-2.683 1.306-4.51 3.991-4.561 7.108l-0 0.007v20.523c-0.001 0.046-0.001 0.1-0.001 0.155 0 2.746 1.402 5.164 3.53 6.577l0.029 0.018s0 0.274 0 0.274v9.121c0 2.519 2.042 4.561 4.561 4.561v0h4.561c2.519 0 4.561-2.042 4.561-4.561v0-7.981h45.607v7.981c0 2.519 2.042 4.561 4.561 4.561v0h4.561c2.519 0 4.561-2.042 4.561-4.561v0-9.121s0 0 0-0.274c2.104-1.439 3.466-3.827 3.466-6.533 0-0.012 0-0.024-0-0.036v0.002-20.523c-0.032-3.106-1.823-5.786-4.423-7.094l-0.046-0.021zM73.111 59.474c0 0.63-0.511 1.14-1.14 1.14v0h-63.85c-0.63 0-1.14-0.511-1.14-1.14v0-20.523c0-0.63 0.511-1.14 1.14-1.14v0h63.85c0.63 0 1.14 0.511 1.14 1.14v0zM19.386 11.176c0.168-0.426 0.573-0.723 1.048-0.73h39.223c0.476 0.006 0.881 0.304 1.046 0.722l0.003 0.008 6.385 17.513h-54.090z"></path>
<path d="M28.644 49.213c0 3.778-3.063 6.841-6.841 6.841s-6.841-3.063-6.841-6.841c0-3.778 3.063-6.841 6.841-6.841s6.841 3.063 6.841 6.841z"></path>
<path d="M65.13 49.213c0 3.778-3.063 6.841-6.841 6.841s-6.841-3.063-6.841-6.841c0-3.778 3.063-6.841 6.841-6.841s6.841 3.063 6.841 6.841z"></path>
</svg>
