<!-- Generated by IcoMoon.io -->
<svg version="1.1" xmlns="http://www.w3.org/2000/svg" width="80" height="80" viewBox="0 0 80 80">
<title>caret-left</title>
<path d="M60.738 74.995c-0.005 0-0.011 0-0.017 0-0.874 0-1.68-0.292-2.325-0.785l0.009 0.007-41.476-31.107c-0.949-0.717-1.555-1.843-1.555-3.111s0.607-2.394 1.546-3.104l0.010-0.007 41.476-31.107c0.643-0.488 1.457-0.782 2.339-0.782 0.641 0 1.245 0.155 1.778 0.43l-0.022-0.010c1.266 0.667 2.116 1.97 2.126 3.472v62.215c-0.009 1.504-0.86 2.807-2.104 3.463l-0.021 0.010c-0.516 0.249-1.12 0.4-1.758 0.415l-0.005 0zM25.743 40l31.107 23.33v-46.66z"></path>
</svg>
