<!-- Generated by IcoMoon.io -->
<svg version="1.1" xmlns="http://www.w3.org/2000/svg" width="80" height="80" viewBox="0 0 80 80">
<title>caret-up</title>
<path d="M69.226 63.137h-58.451c-1.413-0.009-2.637-0.808-3.254-1.977l-0.010-0.020c-0.248-0.48-0.394-1.048-0.394-1.65 0-0.829 0.276-1.594 0.742-2.207l-0.007 0.009 29.226-38.967c0.693-0.857 1.744-1.4 2.923-1.4s2.229 0.543 2.917 1.393l0.005 0.007 29.226 38.967c0.459 0.604 0.735 1.369 0.735 2.198 0 0.602-0.146 1.17-0.404 1.671l0.010-0.020c-0.626 1.189-1.851 1.988-3.262 1.997h-0.001zM18.081 55.831h43.838l-21.919-29.226z"></path>
</svg>
