<!-- Generated by IcoMoon.io -->
<svg version="1.1" xmlns="http://www.w3.org/2000/svg" width="80" height="80" viewBox="0 0 80 80">
<title>caret-right</title>
<path d="M19.259 75.001c-0.625-0.008-1.213-0.16-1.734-0.425l0.022 0.010c-1.295-0.645-2.171-1.956-2.178-3.473v-62.224c0.007-1.518 0.883-2.829 2.155-3.464l0.022-0.010c0.504-0.26 1.1-0.413 1.731-0.413 0.873 0 1.678 0.291 2.323 0.783l-0.009-0.007 41.482 31.112c0.949 0.717 1.556 1.843 1.556 3.111s-0.607 2.394-1.546 3.104l-0.010 0.007-41.482 31.112c-0.636 0.485-1.442 0.778-2.316 0.778-0.006 0-0.012 0-0.018 0h0.001zM23.148 16.666v46.667l31.112-23.334z"></path>
</svg>
