<!-- Generated by IcoMoon.io -->
<svg version="1.1" xmlns="http://www.w3.org/2000/svg" width="80" height="80" viewBox="0 0 80 80">
<title>caret-down</title>
<path d="M40 63.144c-0.007 0-0.016 0-0.024 0-1.184 0-2.235-0.571-2.892-1.452l-0.007-0.010-29.234-38.979c-0.459-0.604-0.735-1.369-0.735-2.198 0-0.602 0.146-1.17 0.404-1.671l-0.010 0.021c0.627-1.19 1.851-1.989 3.263-1.998h58.47c1.413 0.009 2.638 0.808 3.255 1.977l0.010 0.020c0.248 0.481 0.394 1.048 0.394 1.651 0 0.829-0.276 1.594-0.742 2.207l0.007-0.009-29.234 38.979c-0.664 0.891-1.715 1.462-2.899 1.462-0.009 0-0.017 0-0.026-0h0.001zM18.074 24.165l21.926 29.234 21.926-29.234z"></path>
</svg>
