<!-- Generated by IcoMoon.io -->
<svg version="1.1" xmlns="http://www.w3.org/2000/svg" width="80" height="80" viewBox="0 0 80 80">
<title>cart-plus</title>
<path d="M32.64 37.714c0-1.874 1.554-3.429 3.429-3.429h5.714v-5.714c0-1.874 1.554-3.429 3.429-3.429s3.429 1.554 3.429 3.429v5.714h5.714c1.874 0 3.429 1.554 3.429 3.429s-1.554 3.429-3.429 3.429h-5.714v5.714c0 1.874-1.554 3.429-3.429 3.429s-3.429-1.554-3.429-3.429v-5.714h-5.714c-1.874 0-3.429-1.554-3.429-3.429zM36.571 70.858c0 3.794-3.063 6.857-6.857 6.857s-6.857-3.063-6.857-6.857 3.063-6.857 6.857-6.857 6.857 3.063 6.857 6.857zM66.286 70.858c0 3.794-3.063 6.857-6.857 6.857s-6.857-3.063-6.857-6.857 3.063-6.857 6.857-6.857 6.857 3.063 6.857 6.857zM79.909 20.251l-9.143 36.572c-0.366 1.509-1.737 2.606-3.337 2.606h-45.715c-1.646 0-3.063-1.189-3.383-2.834l-8.64-47.452h-6.263c-1.874 0-3.429-1.554-3.429-3.429s1.554-3.429 3.429-3.429h9.143c1.646 0 3.063 1.189 3.383 2.834l1.966 10.88h58.652c1.051 0 2.057 0.503 2.697 1.326s0.869 1.92 0.64 2.926zM72.183 22.857h-53.029l5.394 29.715h40.183l7.406-29.715z"></path>
</svg>
