<!-- Generated by IcoMoon.io -->
<svg version="1.1" xmlns="http://www.w3.org/2000/svg" width="80" height="80" viewBox="0 0 80 80">
<title>chart-pie</title>
<path d="M46.063 5.029v-1.407c-0.027-1.998-1.64-3.611-3.635-3.638h-0.003c-23.467 0.14-42.436 19.196-42.436 42.682 0 7.721 2.050 14.962 5.635 21.211l-0.11-0.208c0.644 1.081 1.807 1.795 3.136 1.795 0.006 0 0.012 0 0.017 0h-0.001c0.661-0.001 1.28-0.181 1.811-0.494l-0.017 0.009 1.407-0.728c6.892 9.573 18.005 15.732 30.557 15.732 20.734 0 37.541-16.808 37.541-37.541 0-19.453-14.795-35.449-33.746-37.352l-0.157-0.013zM38.787 7.454v32.885l-28.568 16.394c-1.876-4.172-2.968-9.044-2.968-14.171 0-18.172 13.727-33.138 31.378-35.094l0.159-0.014zM42.425 72.74c-9.887-0.029-18.661-4.771-24.196-12.097l-0.056-0.077 26.046-14.988c1.107-0.613 1.843-1.774 1.843-3.107 0-0.016-0-0.032-0-0.048v0.002-30.072c15.017 1.963 26.492 14.678 26.492 30.072 0 16.677-13.467 30.209-30.12 30.314h-0.010z"></path>
</svg>
