<!-- Generated by IcoMoon.io -->
<svg version="1.1" xmlns="http://www.w3.org/2000/svg" width="80" height="80" viewBox="0 0 80 80">
<title>chart-bar</title>
<path d="M3.636 80c-1.997-0.027-3.609-1.639-3.636-3.634v-72.73c0-2.008 1.628-3.636 3.636-3.636s3.636 1.628 3.636 3.636v0 72.727c-0.027 1.997-1.639 3.609-3.634 3.636h-0.003z"></path>
<path d="M76.364 80h-72.727c-2.008 0-3.636-1.628-3.636-3.636s1.628-3.636 3.636-3.636v0h72.727c2.008 0 3.636 1.628 3.636 3.636s-1.628 3.636-3.636 3.636v0z"></path>
<path d="M20.606 63.030c-1.997-0.027-3.609-1.639-3.636-3.634v-19.397c0-2.008 1.628-3.636 3.636-3.636s3.636 1.628 3.636 3.636v0 19.394c-0.027 1.997-1.639 3.609-3.634 3.636h-0.003z"></path>
<path d="M37.576 63.030c-1.997-0.027-3.609-1.639-3.636-3.634v-38.79c0-2.008 1.628-3.636 3.636-3.636s3.636 1.628 3.636 3.636v0 38.788c-0.027 1.997-1.639 3.609-3.634 3.636h-0.003z"></path>
<path d="M54.545 63.030c-1.997-0.027-3.609-1.639-3.636-3.634v-19.397c0-2.008 1.628-3.636 3.636-3.636s3.636 1.628 3.636 3.636v0 19.394c-0.027 1.997-1.639 3.609-3.634 3.636h-0.003z"></path>
<path d="M71.515 63.030c-1.997-0.027-3.609-1.639-3.636-3.634v-38.79c0-2.008 1.628-3.636 3.636-3.636s3.636 1.628 3.636 3.636v0 38.788c-0.027 1.997-1.639 3.609-3.634 3.636h-0.003z"></path>
</svg>
