<!-- Generated by IcoMoon.io -->
<svg version="1.1" xmlns="http://www.w3.org/2000/svg" width="80" height="80" viewBox="0 0 80 80">
<title>chart-line</title>
<path d="M3.636 80c-1.997-0.027-3.609-1.639-3.636-3.634v-72.73c0-2.008 1.628-3.636 3.636-3.636s3.636 1.628 3.636 3.636v0 72.727c-0.027 1.997-1.639 3.609-3.634 3.636h-0.003z"></path>
<path d="M76.364 80h-72.727c-2.008 0-3.636-1.628-3.636-3.636s1.628-3.636 3.636-3.636v0h72.727c2.008 0 3.636 1.628 3.636 3.636s-1.628 3.636-3.636 3.636v0z"></path>
<path d="M49.697 53.333c-0.005 0-0.011 0-0.017 0-0.999 0-1.902-0.408-2.552-1.066l-11.976-11.976-11.976 11.976c-0.648 0.605-1.52 0.976-2.479 0.976-2.008 0-3.636-1.628-3.636-3.636 0-0.959 0.371-1.831 0.978-2.481l-0.002 0.002 14.545-14.545c0.658-0.657 1.566-1.064 2.57-1.064s1.912 0.406 2.57 1.064v0l11.976 11.976 16.824-16.824c0.648-0.605 1.52-0.976 2.479-0.976 2.008 0 3.636 1.628 3.636 3.636 0 0.959-0.371 1.831-0.978 2.481l0.002-0.002-19.394 19.394c-0.651 0.659-1.554 1.067-2.553 1.067-0.006 0-0.012 0-0.018 0h0.001z"></path>
<path d="M71.515 48.921c-1.997-0.027-3.609-1.639-3.636-3.634v-13.772h-13.333c-2.008 0-3.636-1.628-3.636-3.636s1.628-3.636 3.636-3.636v0h16.97c1.997 0.027 3.609 1.639 3.636 3.634v17.409c-0.027 1.997-1.639 3.609-3.634 3.636h-0.003z"></path>
</svg>
