<!-- Generated by IcoMoon.io -->
<svg version="1.1" xmlns="http://www.w3.org/2000/svg" width="80" height="80" viewBox="0 0 80 80">
<title>check-circle</title>
<path d="M33.347 54.415c-0.888-0.070-1.667-0.483-2.215-1.105l-0.003-0.004-13.306-13.306c-0.205-0.419-0.325-0.913-0.325-1.434 0-1.837 1.489-3.326 3.326-3.326 0.521 0 1.014 0.12 1.453 0.334l-0.020-0.009 10.955 10.955 37.833-37.567c0.419-0.205 0.912-0.325 1.434-0.325 1.837 0 3.326 1.489 3.326 3.326 0 0.521-0.12 1.014-0.334 1.453l0.009-0.020-39.918 39.918c-0.551 0.626-1.33 1.039-2.206 1.108l-0.011 0.001z"></path>
<path d="M40 79.918c-14.959-0.025-27.986-8.274-34.802-20.467l-0.104-0.202c-2.495-4.362-4.187-9.494-4.733-14.964l-0.013-0.16c-0.137-1.24-0.215-2.678-0.215-4.134 0-14.963 8.233-28.003 20.416-34.838l0.201-0.104c4.362-2.495 9.494-4.187 14.964-4.733l0.16-0.013c1.261-0.144 2.722-0.225 4.203-0.225 4.119 0 8.090 0.634 11.821 1.809l-0.278-0.076c1.536 0.315 2.675 1.655 2.675 3.262 0 1.837-1.489 3.326-3.326 3.326-0.453 0-0.884-0.090-1.277-0.254l0.022 0.008c-2.912-0.908-6.261-1.431-9.732-1.431-1.259 0-2.502 0.069-3.725 0.203l0.151-0.013c-4.689 0.492-8.959 1.896-12.762 4.033l0.166-0.086c-3.833 2.14-7.070 4.868-9.71 8.101l-0.047 0.060c-4.648 5.632-7.468 12.924-7.468 20.875 0 1.256 0.070 2.495 0.207 3.714l-0.014-0.15c0.492 4.689 1.896 8.959 4.033 12.762l-0.086-0.166c2.14 3.833 4.868 7.070 8.101 9.71l0.060 0.047c5.632 4.648 12.924 7.468 20.875 7.468 1.256 0 2.495-0.070 3.714-0.207l-0.15 0.014c4.689-0.492 8.959-1.896 12.762-4.033l-0.166 0.086c3.833-2.14 7.070-4.868 9.71-8.101l0.047-0.060c4.648-5.632 7.468-12.924 7.468-20.875 0-1.256-0.070-2.495-0.207-3.714l0.014 0.15c-0.010-0.1-0.016-0.215-0.016-0.333 0-1.932 1.566-3.498 3.498-3.498 1.815 0 3.306 1.382 3.481 3.15l0.001 0.014c0.135 1.233 0.212 2.663 0.212 4.11 0 14.98-8.251 28.033-20.457 34.861l-0.202 0.104c-4.415 2.599-9.621 4.368-15.179 4.953l-0.167 0.014c-1.375 0-2.794 0-4.125 0z"></path>
</svg>
