<!-- Generated by IcoMoon.io -->
<svg version="1.1" xmlns="http://www.w3.org/2000/svg" width="85" height="80" viewBox="0 0 85 80">
<title>check</title>
<path d="M28.748 68.571c-0.966-0.034-1.825-0.467-2.42-1.139l-0.003-0.004-22.857-22.857c-0.947-0.621-1.563-1.677-1.563-2.877 0-1.894 1.535-3.429 3.429-3.429 1.27 0 2.379 0.691 2.972 1.717l0.009 0.017 20.434 20.297 47.862-47.725c0.526-0.346 1.172-0.552 1.865-0.552 1.894 0 3.429 1.535 3.429 3.429 0 0.623-0.166 1.208-0.457 1.711l0.009-0.017-50.285 50.285c-0.598 0.676-1.457 1.109-2.417 1.143l-0.006 0z"></path>
</svg>
