<!-- Generated by IcoMoon.io -->
<svg version="1.1" xmlns="http://www.w3.org/2000/svg" width="80" height="80" viewBox="0 0 80 80">
<title>check-square</title>
<path d="M67.429 80h-54.857c-6.943 0-12.571-5.628-12.571-12.571v0-54.857c0-6.943 5.628-12.571 12.571-12.571v0h40.503c1.894 0 3.429 1.535 3.429 3.429s-1.535 3.429-3.429 3.429v0h-40.503c-3.156 0-5.714 2.558-5.714 5.714v0 54.857c0 3.156 2.558 5.714 5.714 5.714v0h54.857c3.156 0 5.714-2.558 5.714-5.714v0-35.246c0-1.894 1.535-3.429 3.429-3.429s3.429 1.535 3.429 3.429v0 35.246c0 6.943-5.628 12.571-12.571 12.571v0z"></path>
<path d="M33.143 54.857c-0.915-0.072-1.718-0.498-2.283-1.139l-0.003-0.004-13.714-13.714c-0.211-0.432-0.335-0.94-0.335-1.478 0-1.894 1.535-3.429 3.429-3.429 0.537 0 1.045 0.124 1.498 0.344l-0.020-0.009 11.291 11.291 38.994-38.72c0.432-0.211 0.94-0.335 1.478-0.335 1.894 0 3.429 1.535 3.429 3.429 0 0.537-0.124 1.045-0.344 1.498l0.009-0.020-41.143 41.143c-0.568 0.645-1.371 1.071-2.274 1.142l-0.012 0.001z"></path>
</svg>
