<!-- Generated by IcoMoon.io -->
<svg version="1.1" xmlns="http://www.w3.org/2000/svg" width="80" height="80" viewBox="0 0 80 80">
<title>chevron-left</title>
<path d="M53.064 77.558c-0.007 0-0.015 0-0.023 0-1.345 0-2.562-0.55-3.439-1.437l-32.659-32.659c-0.885-0.886-1.433-2.11-1.433-3.462s0.547-2.576 1.433-3.462v0l32.659-32.659c0.872-0.815 2.048-1.315 3.34-1.315 2.706 0 4.899 2.193 4.899 4.899 0 1.292-0.5 2.467-1.318 3.343l0.003-0.003-29.197 29.197 29.197 29.197c0.885 0.886 1.433 2.11 1.433 3.462s-0.547 2.576-1.433 3.462v0c-0.877 0.888-2.094 1.437-3.439 1.437-0.008 0-0.016 0-0.024 0h0.001z"></path>
</svg>
