<!-- Generated by IcoMoon.io -->
<svg version="1.1" xmlns="http://www.w3.org/2000/svg" width="80" height="80" viewBox="0 0 80 80">
<title>chevron-down</title>
<path d="M40 60.49c-0.007 0-0.014 0-0.022 0-1.299 0-2.473-0.53-3.319-1.387l-31.523-31.523c-0.516-0.747-0.825-1.671-0.825-2.668 0-2.611 2.117-4.728 4.728-4.728 1.045 0 2.010 0.339 2.792 0.912l-0.013-0.009 28.181 27.992 28.181-27.992c0.726-0.477 1.616-0.761 2.572-0.761 2.611 0 4.728 2.117 4.728 4.728 0 0.86-0.229 1.665-0.63 2.36l0.012-0.023-31.522 31.522c-0.825 0.932-2.009 1.53-3.333 1.576l-0.008 0z"></path>
</svg>
