<!-- Generated by IcoMoon.io -->
<svg version="1.1" xmlns="http://www.w3.org/2000/svg" width="80" height="80" viewBox="0 0 80 80">
<title>chevron-up</title>
<path d="M71.291 60.339c-0.006 0-0.014 0-0.022 0-1.289 0-2.455-0.527-3.295-1.376l-27.975-27.975-27.975 27.787c-0.721 0.474-1.604 0.755-2.554 0.755-2.592 0-4.694-2.101-4.694-4.694 0-0.853 0.228-1.653 0.625-2.343l-0.012 0.023 31.291-31.291c0.849-0.848 2.022-1.373 3.317-1.373s2.468 0.525 3.317 1.373v0l31.291 31.291c0.848 0.849 1.373 2.022 1.373 3.317s-0.525 2.468-1.373 3.317v0c-0.818 0.741-1.908 1.194-3.104 1.194-0.075 0-0.149-0.002-0.224-0.005l0.010 0z"></path>
</svg>
