<!-- Generated by IcoMoon.io -->
<svg version="1.1" xmlns="http://www.w3.org/2000/svg" width="80" height="80" viewBox="0 0 80 80">
<title>chevron-right</title>
<path d="M26.936 77.559c-0.007 0-0.015 0-0.023 0-1.345 0-2.562-0.55-3.439-1.437l-0-0c-0.885-0.886-1.433-2.11-1.433-3.462s0.547-2.576 1.433-3.462v0l29.198-29.198-29.198-29.198c-0.815-0.872-1.315-2.048-1.315-3.34 0-2.706 2.193-4.899 4.899-4.899 1.292 0 2.467 0.5 3.343 1.318l-0.003-0.003 32.66 32.66c0.885 0.886 1.433 2.11 1.433 3.462s-0.547 2.576-1.433 3.462v0l-32.66 32.66c-0.877 0.888-2.094 1.437-3.439 1.437-0.008 0-0.016 0-0.024 0h0.001z"></path>
</svg>
