<!-- Generated by IcoMoon.io -->
<svg version="1.1" xmlns="http://www.w3.org/2000/svg" width="80" height="80" viewBox="0 0 80 80">
<title>clock</title>
<path d="M40 80c-22.091 0-40-17.909-40-40s17.909-40 40-40c22.091 0 40 17.909 40 40v0c0 22.091-17.909 40-40 40v0zM40 6.667c-18.409 0-33.333 14.924-33.333 33.333s14.924 33.333 33.333 33.333c18.409 0 33.333-14.924 33.333-33.333v0c0-18.409-14.924-33.333-33.333-33.333v0z"></path>
<path d="M53.333 43.333h-13.333c-1.831-0.025-3.309-1.502-3.333-3.331v-22.225c0-1.841 1.492-3.333 3.333-3.333s3.333 1.492 3.333 3.333v0 18.889h10c1.841 0 3.333 1.492 3.333 3.333s-1.492 3.333-3.333 3.333v0z"></path>
</svg>
