<!-- Generated by IcoMoon.io -->
<svg version="1.1" xmlns="http://www.w3.org/2000/svg" width="80" height="80" viewBox="0 0 80 80">
<title>clone</title>
<path d="M49.143 61.714h-36.571c-6.943 0-12.571-5.628-12.571-12.571v0-36.571c0-6.943 5.628-12.571 12.571-12.571v0h36.571c6.943 0 12.571 5.628 12.571 12.571v0 36.571c0 6.943-5.628 12.571-12.571 12.571v0zM12.571 6.857c-3.156 0-5.714 2.558-5.714 5.714v0 36.571c0 3.156 2.558 5.714 5.714 5.714v0h36.571c3.156 0 5.714-2.558 5.714-5.714v0-36.571c0-3.156-2.558-5.714-5.714-5.714v0z"></path>
<path d="M67.429 80h-36.571c-6.943 0-12.571-5.628-12.571-12.571v0-9.143h6.857v9.143c0 3.156 2.558 5.714 5.714 5.714v0h36.571c3.156 0 5.714-2.558 5.714-5.714v0-36.571c0-3.156-2.558-5.714-5.714-5.714v0h-9.143v-6.857h9.143c6.943 0 12.571 5.628 12.571 12.571v0 36.571c0 6.943-5.628 12.571-12.571 12.571v0z"></path>
</svg>
