<!-- Generated by IcoMoon.io -->
<svg version="1.1" xmlns="http://www.w3.org/2000/svg" width="80" height="80" viewBox="0 0 80 80">
<title>cloud-upload</title>
<path d="M63.718 66.952c-1.786 0-3.234-1.448-3.234-3.234s1.448-3.234 3.234-3.234v0c7.158 0 9.703-3.579 9.703-13.713-0.663-7.459-6.556-13.353-13.956-14.011l-0.059-0.004c-1.556 0.041-3.033 0.322-4.413 0.807l0.101-0.031c-0.364 0.156-0.787 0.247-1.231 0.247-1.467 0-2.703-0.99-3.076-2.338l-0.005-0.022c-3.012-9.206-11.524-15.739-21.562-15.739-12.442 0-22.541 10.037-22.639 22.456l-0 0.009c0 14.834 3.277 22.338 9.703 22.338 1.786 0 3.234 1.448 3.234 3.234s-1.448 3.234-3.234 3.234v0c-10.781 0-16.171-9.703-16.171-28.806-0.004-0.172-0.006-0.374-0.006-0.577 0-16.076 13.032-29.108 29.108-29.108 12.117 0 22.505 7.404 26.887 17.935l0.071 0.193c1.014-0.192 2.18-0.302 3.372-0.302 0.027 0 0.055 0 0.082 0h-0.004c11.021 0.697 19.787 9.462 20.48 20.42l0.003 0.063c-0.216 5.52-0.216 20.182-16.387 20.182z"></path>
<path d="M52.204 55.74c-0.891-0.011-1.696-0.371-2.286-0.949l-9.918-9.918-9.918 9.918c-0.576 0.538-1.352 0.868-2.205 0.868-1.786 0-3.234-1.448-3.234-3.234 0-0.853 0.33-1.629 0.87-2.207l-0.002 0.002 12.204-12.204c0.58-0.595 1.39-0.964 2.285-0.964s1.705 0.369 2.285 0.963l0.001 0.001 12.204 12.204c0.584 0.585 0.946 1.393 0.946 2.285s-0.361 1.7-0.946 2.286v0c-0.594 0.571-1.396 0.929-2.282 0.949l-0.004 0z"></path>
<path d="M40 70.962c-1.786 0-3.234-1.448-3.234-3.234v0-27.426c0-1.786 1.448-3.234 3.234-3.234s3.234 1.448 3.234 3.234v0 27.426c0 1.786-1.448 3.234-3.234 3.234v0z"></path>
</svg>
