<!-- Generated by IcoMoon.io -->
<svg version="1.1" xmlns="http://www.w3.org/2000/svg" width="80" height="80" viewBox="0 0 80 80">
<title>cloud</title>
<path d="M59.46 69.19h-30.271c-16.12-0.001-29.187-13.069-29.187-29.19s13.069-29.19 29.19-29.19c11.947 0 22.218 7.178 26.736 17.456l0.073 0.187c1.035-0.209 2.229-0.335 3.45-0.346l0.009-0c11.052 0.699 19.842 9.489 20.538 20.477l0.003 0.064c0 11.344-9.196 20.541-20.541 20.541v0zM29.189 17.297c-12.539 0-22.703 10.164-22.703 22.703s10.164 22.703 22.703 22.703v0h30.271c7.752-0.025 14.030-6.302 14.054-14.052v-0.002c-0.664-7.48-6.575-13.39-13.995-14.050l-0.059-0.004c-1.562 0.036-3.043 0.334-4.416 0.852l0.092-0.030c-0.371 0.153-0.802 0.242-1.254 0.242s-0.883-0.089-1.277-0.25l0.023 0.008c-0.766-0.392-1.341-1.065-1.594-1.88l-0.006-0.022c-2.869-9.454-11.507-16.217-21.724-16.217-0.040 0-0.080 0-0.12 0h0.006z"></path>
</svg>
