<!-- Generated by IcoMoon.io -->
<svg version="1.1" xmlns="http://www.w3.org/2000/svg" width="80" height="80" viewBox="0 0 80 80">
<title>code</title>
<path d="M28.708 14.719c-0.62-0.62-1.477-1.003-2.423-1.003s-1.803 0.383-2.423 1.003v0l-22.859 22.859c-0.62 0.62-1.003 1.477-1.003 2.423s0.383 1.803 1.003 2.423v0l22.859 22.859c0.62 0.62 1.477 1.003 2.423 1.003s1.803-0.383 2.423-1.003v0c0.62-0.62 1.003-1.477 1.003-2.423s-0.383-1.803-1.003-2.423v0l-20.435-20.435 20.435-20.435c0.62-0.62 1.003-1.477 1.003-2.423s-0.383-1.803-1.003-2.423v0z"></path>
<path d="M78.997 37.577l-22.859-22.859c-0.611-0.57-1.433-0.92-2.337-0.92-1.894 0-3.429 1.535-3.429 3.429 0 0.904 0.35 1.727 0.922 2.34l-0.002-0.002 20.435 20.435-20.435 20.435c-0.62 0.62-1.003 1.477-1.003 2.423s0.383 1.803 1.003 2.423v0c0.62 0.62 1.477 1.003 2.423 1.003s1.803-0.383 2.423-1.003v0l22.859-22.859c0.62-0.62 1.003-1.477 1.003-2.423s-0.383-1.803-1.003-2.423v0z"></path>
</svg>
