<!-- Generated by IcoMoon.io -->
<svg version="1.1" xmlns="http://www.w3.org/2000/svg" width="80" height="80" viewBox="0 0 80 80">
<title>comments</title>
<path d="M3.65 64.905c-0.018 0-0.039 0.001-0.061 0.001-1.943 0-3.518-1.575-3.518-3.518 0-0.42 0.074-0.824 0.209-1.198l-0.008 0.025 5.863-19.324c-1.146-3.050-1.83-6.574-1.876-10.251l-0-0.020c0-0.020-0-0.044-0-0.068 0-4.229 0.88-8.252 2.467-11.897l-0.075 0.192c4.721-11.035 15.485-18.627 28.023-18.627 8.331 0 15.878 3.352 21.369 8.78l-0.003-0.003c2.671 2.712 4.852 5.915 6.394 9.46l0.078 0.202c1.493 3.462 2.361 7.492 2.361 11.726s-0.868 8.264-2.436 11.923l0.075-0.197c-1.621 3.747-3.802 6.95-6.477 9.666l0.004-0.004c-5.498 5.489-13.089 8.883-21.472 8.883-3.793 0-7.424-0.695-10.771-1.964l0.209 0.069-19.324 6.004c-0.309 0.089-0.664 0.14-1.032 0.141h-0zM34.559 7.168c-0.020-0-0.043-0-0.067-0-3.246 0-6.334 0.673-9.134 1.887l0.149-0.057c-5.569 2.392-9.93 6.708-12.323 12.092l-0.059 0.149c-1.155 2.68-1.827 5.799-1.827 9.076s0.672 6.396 1.885 9.229l-0.058-0.153c0.133 0.356 0.21 0.767 0.21 1.196s-0.077 0.84-0.217 1.22l0.008-0.024-4.315 14.071 14.071-4.315c0.356-0.133 0.767-0.21 1.196-0.21s0.84 0.077 1.22 0.217l-0.024-0.008c2.657 1.134 5.749 1.794 8.995 1.794 9.599 0 17.851-5.767 21.48-14.025l0.059-0.15c1.020-2.532 1.612-5.469 1.612-8.544 0-12.744-10.164-23.113-22.828-23.443l-0.031-0.001z"></path>
<path d="M76.35 79.867c-0.155 0.022-0.334 0.034-0.516 0.034s-0.361-0.013-0.536-0.037l0.020 0.002-19.324-5.863c-3.158 1.229-6.814 1.941-10.637 1.941-12.349 0-22.961-7.433-27.607-18.070l-0.076-0.194c-0.224-0.443-0.355-0.965-0.355-1.517 0-1.427 0.873-2.65 2.114-3.165l0.023-0.008c0.431-0.203 0.936-0.322 1.469-0.322 1.431 0 2.663 0.855 3.212 2.081l0.009 0.022c1.181 2.775 2.762 5.152 4.699 7.186l-0.009-0.010c4.235 4.189 10.060 6.778 16.491 6.778 3.257 0 6.359-0.664 9.178-1.864l-0.153 0.058c0.356-0.133 0.767-0.21 1.196-0.21s0.84 0.077 1.22 0.217l-0.024-0.008 14.071 4.315-4.315-14.071c-0.133-0.356-0.21-0.767-0.21-1.196s0.077-0.84 0.217-1.22l-0.008 0.024c1.156-2.651 1.829-5.74 1.829-8.985 0-0.024 0-0.047-0-0.070v0.004c0-0.025 0-0.054 0-0.084 0-6.399-2.6-12.192-6.8-16.378l-0.001-0.001c-0.973-1.223-2.002-2.312-3.117-3.308l-0.026-0.023c-1.030-0.626-1.708-1.742-1.708-3.016 0-1.943 1.575-3.518 3.518-3.518 0.804 0 1.546 0.27 2.138 0.724l-0.008-0.006c1.76 1.145 3.293 2.365 4.701 3.716l-0.011-0.010c2.687 2.702 4.871 5.909 6.397 9.464l0.076 0.198c1.512 3.458 2.392 7.488 2.392 11.724 0 0.034-0 0.067-0 0.101v-0.005c-0.011 3.79-0.698 7.416-1.946 10.768l0.070-0.215 5.863 19.324c0.128 0.349 0.201 0.753 0.201 1.173 0 1.943-1.575 3.518-3.518 3.518-0.021 0-0.043-0-0.064-0.001h0.003z"></path>
</svg>
