<!-- Generated by IcoMoon.io -->
<svg version="1.1" xmlns="http://www.w3.org/2000/svg" width="80" height="80" viewBox="0 0 80 80">
<title>comment</title>
<path d="M6.97 76.333c-0.017 0-0.037 0.001-0.057 0.001-1.824 0-3.303-1.479-3.303-3.303 0-0.395 0.069-0.774 0.196-1.124l-0.007 0.023 7.046-23.121c-1.45-3.649-2.29-7.876-2.29-12.301 0-0.057 0-0.114 0-0.171v0.009c0-0.016 0-0.034 0-0.053 0-4.909 1.004-9.583 2.818-13.829l-0.087 0.23c1.874-4.307 4.397-7.986 7.489-11.1l-0.002 0.002c3.108-3.12 6.807-5.648 10.917-7.401l0.225-0.085c4.021-1.753 8.707-2.773 13.63-2.773s9.609 1.020 13.856 2.861l-0.226-0.087c12.622 5.507 21.296 17.851 21.359 32.229v0.008c-0.030 9.662-3.944 18.404-10.263 24.751l0.001-0.001c-3.112 3.090-6.791 5.613-10.868 7.397l-0.23 0.090c-4.019 1.729-8.697 2.735-13.609 2.735-4.495 0-8.794-0.842-12.746-2.376l0.24 0.082-23.121 7.046c-0.282 0.124-0.608 0.217-0.95 0.262l-0.019 0.002zM43.523 8.071c-11.678 0.052-21.698 7.1-26.088 17.167l-0.072 0.184c-1.381 3.254-2.184 7.038-2.184 11.010s0.803 7.756 2.255 11.2l-0.071-0.19c0.125 0.334 0.197 0.72 0.197 1.123s-0.072 0.789-0.204 1.146l0.007-0.023-5.417 18.364 18.276-5.549c0.334-0.125 0.72-0.197 1.123-0.197s0.789 0.072 1.146 0.204l-0.023-0.007c3.253 1.388 7.037 2.195 11.010 2.195s7.757-0.807 11.198-2.266l-0.188 0.071c10.284-4.411 17.357-14.449 17.357-26.14 0-4-0.828-7.807-2.322-11.258l0.071 0.184c-4.451-10.2-14.441-17.203-26.069-17.22h-0.002z"></path>
</svg>
