<!-- Generated by IcoMoon.io -->
<svg version="1.1" xmlns="http://www.w3.org/2000/svg" width="80" height="80" viewBox="0 0 80 80">
<title>compass</title>
<path d="M57.511 20.533l-21.689 8.889c-3.017 1.214-5.364 3.56-6.55 6.499l-0.028 0.078-8.889 21.689c-0.066 0.164-0.105 0.354-0.105 0.553 0 0.632 0.388 1.174 0.939 1.399l0.010 0.004c0.165 0.063 0.356 0.1 0.556 0.1s0.39-0.036 0.567-0.103l-0.011 0.004 21.689-8.889c3.017-1.214 5.364-3.56 6.55-6.499l0.028-0.078 8.889-21.689c0.066-0.164 0.105-0.354 0.105-0.553 0-0.632-0.388-1.174-0.939-1.399l-0.010-0.004c-0.165-0.063-0.356-0.1-0.556-0.1s-0.39 0.036-0.567 0.103l0.011-0.004zM40 44.444c-2.455 0-4.444-1.99-4.444-4.444s1.99-4.444 4.444-4.444c2.455 0 4.444 1.99 4.444 4.444v0c0 2.455-1.99 4.444-4.444 4.444v0z"></path>
<path d="M40 80c-22.091 0-40-17.909-40-40s17.909-40 40-40c22.091 0 40 17.909 40 40v0c0 22.091-17.909 40-40 40v0zM40 6.667c-18.409 0-33.333 14.924-33.333 33.333s14.924 33.333 33.333 33.333c18.409 0 33.333-14.924 33.333-33.333v0c0-18.409-14.924-33.333-33.333-33.333v0z"></path>
</svg>
