<!-- Generated by IcoMoon.io -->
<svg version="1.1" xmlns="http://www.w3.org/2000/svg" width="80" height="80" viewBox="0 0 80 80">
<title>copy</title>
<path d="M70.891 23.59l-22.686-22.686c-0.556-0.557-1.325-0.902-2.174-0.903h-10.133c-6.231 0-11.282 5.051-11.282 11.282v0 5.128h-5.128c-6.231 0-11.282 5.051-11.282 11.282v0 41.024c0 6.231 5.051 11.282 11.282 11.282v0h28.717c6.231 0 11.282-5.051 11.282-11.282v0-5.128h1.026c6.231 0 11.282-5.051 11.282-11.282v0-26.666c-0.035-0.804-0.373-1.524-0.903-2.051l-0-0zM49.23 10.504l12.061 12.061h-12.061zM53.333 68.717c0 2.832-2.296 5.128-5.128 5.128v0h-28.717c-2.832 0-5.128-2.296-5.128-5.128v0-41.024c0-2.832 2.296-5.128 5.128-5.128v0h5.128v29.742c0 6.231 5.051 11.282 11.282 11.282v0h17.435zM60.512 57.435h-24.614c-2.832 0-5.128-2.296-5.128-5.128v0-41.024c0-2.832 2.296-5.128 5.128-5.128v0h7.179v19.486c0.023 1.69 1.387 3.054 3.075 3.077h19.489v23.589c0 2.832-2.296 5.128-5.128 5.128v0z"></path>
</svg>
