<!-- Generated by IcoMoon.io -->
<svg version="1.1" xmlns="http://www.w3.org/2000/svg" width="80" height="80" viewBox="0 0 80 80">
<title>credit-card</title>
<path d="M71.999 9.144h-63.998c-4.408 0.026-7.974 3.592-8 7.997v45.716c0.026 4.408 3.592 7.974 7.997 8h64.001c4.408-0.026 7.974-3.592 8-7.997v-45.716c-0.026-4.408-3.592-7.974-7.997-8h-0.003zM8.001 16.001h63.998c0.631 0 1.143 0.512 1.143 1.143v0 10.285h-66.284v-10.285c0-0.631 0.512-1.143 1.143-1.143v0zM71.999 63.999h-63.998c-0.631 0-1.143-0.512-1.143-1.143v0-28.571h66.284v28.571c0 0.631-0.512 1.143-1.143 1.143v0z"></path>
<path d="M26.286 44.571h-9.143c-2.525 0-4.571 2.047-4.571 4.571s2.047 4.571 4.571 4.571v0h9.143c2.525 0 4.571-2.047 4.571-4.571s-2.047-4.571-4.571-4.571v0z"></path>
</svg>
