<!-- Generated by IcoMoon.io -->
<svg version="1.1" xmlns="http://www.w3.org/2000/svg" width="80" height="80" viewBox="0 0 80 80">
<title>database</title>
<path d="M72.344 7.742c-9.466-4.528-20.529-7.34-32.206-7.736l-0.138-0.004c-11.815 0.4-22.878 3.212-32.846 7.955l0.502-0.215c-2.576 1.231-4.324 3.816-4.324 6.81 0 0.023 0 0.046 0 0.069v-0.004 50.765c-0 0.019-0 0.043-0 0.066 0 2.993 1.748 5.578 4.279 6.79l0.045 0.020c9.466 4.528 20.529 7.34 32.206 7.736l0.138 0.004c11.815-0.4 22.878-3.212 32.846-7.955l-0.502 0.215c2.576-1.231 4.324-3.816 4.324-6.81 0-0.023-0-0.046-0-0.069v0.004-50.765c0-0.019 0-0.043 0-0.066 0-2.993-1.748-5.578-4.279-6.79l-0.045-0.020zM70.269 42.335c-8.844 4.321-19.193 7.020-30.127 7.433l-0.141 0.004c-11.076-0.417-21.425-3.116-30.725-7.637l0.456 0.2v-16.691c8.895 4.014 19.255 6.483 30.157 6.786l0.112 0.002c11.014-0.306 21.374-2.775 30.779-6.993l-0.51 0.205zM10.38 13.623c8.666-4.161 18.795-6.752 29.488-7.131l0.132-0.004c10.84 0.391 20.983 2.981 30.125 7.333l-0.462-0.198c0.362 0.191 0.604 0.564 0.605 0.994v3.762c-8.844 4.321-19.193 7.020-30.127 7.433l-0.141 0.004c-11.076-0.417-21.425-3.116-30.725-7.637l0.456 0.2v-3.892c0.048-0.39 0.299-0.713 0.642-0.862l0.007-0.003zM69.62 66.377c-8.666 4.161-18.795 6.752-29.488 7.131l-0.132 0.004c-10.84-0.391-20.983-2.981-30.125-7.333l0.462 0.198c-0.362-0.191-0.604-0.564-0.605-0.994v-15.956c8.895 4.014 19.255 6.483 30.157 6.786l0.112 0.002c11.014-0.306 21.374-2.775 30.779-6.993l-0.51 0.205v15.956c0 0.001 0 0.002 0 0.004 0 0.441-0.264 0.82-0.642 0.988l-0.007 0.003z"></path>
</svg>
