<!-- Generated by IcoMoon.io -->
<svg version="1.1" xmlns="http://www.w3.org/2000/svg" width="80" height="80" viewBox="0 0 80 80">
<title>desktop</title>
<path d="M71.999 61.713h-63.997c-4.408-0.026-7.974-3.592-8-7.997v-45.715c0.026-4.408 3.592-7.974 7.997-8h64c4.408 0.026 7.974 3.592 8 7.997v45.715c-0.026 4.408-3.592 7.974-7.997 8h-0.002zM8.001 6.859c-0.631 0-1.143 0.512-1.143 1.143v0 45.712c0 0.631 0.512 1.143 1.143 1.143v0h63.997c0.631 0 1.143-0.512 1.143-1.143v0-45.712c0-0.631-0.512-1.143-1.143-1.143v0z"></path>
<path d="M53.714 79.998h-13.714c-1.883-0.025-3.403-1.545-3.428-3.426v-18.287c0-1.893 1.535-3.428 3.428-3.428s3.428 1.535 3.428 3.428v0 14.856h10.285c1.893 0 3.428 1.535 3.428 3.428s-1.535 3.428-3.428 3.428v0z"></path>
<path d="M40 79.998h-13.714c-1.893 0-3.428-1.535-3.428-3.428s1.535-3.428 3.428-3.428v0h13.714c1.893 0 3.428 1.535 3.428 3.428s-1.535 3.428-3.428 3.428v0z"></path>
</svg>
