<!-- Generated by IcoMoon.io -->
<svg version="1.1" xmlns="http://www.w3.org/2000/svg" width="80" height="80" viewBox="0 0 80 80">
<title>directions</title>
<path d="M40 79.998c-0 0-0.001 0-0.001 0-2.161 0-4.117-0.876-5.534-2.292l-32.171-32.171c-1.417-1.416-2.293-3.373-2.293-5.535s0.876-4.118 2.293-5.535l32.171-32.171c1.439-1.367 3.389-2.207 5.535-2.207s4.096 0.841 5.538 2.211l-0.003-0.003 32.171 32.171c1.417 1.416 2.293 3.373 2.293 5.535s-0.876 4.118-2.293 5.535l-32.171 32.171c-1.416 1.416-3.373 2.292-5.534 2.292-0 0-0.001 0-0.001 0h0zM40 6.488c-0.011-0-0.024-0.001-0.037-0.001-0.345 0-0.656 0.15-0.87 0.389l-0.001 0.001-32.214 32.214c-0.24 0.229-0.389 0.551-0.389 0.908s0.149 0.679 0.389 0.908l32.215 32.215c0.195 0.299 0.529 0.494 0.908 0.494s0.713-0.195 0.906-0.49l0.002-0.004 32.214-32.214c0.24-0.229 0.389-0.551 0.389-0.908s-0.149-0.679-0.389-0.908l-32.215-32.215c-0.215-0.24-0.525-0.39-0.871-0.39-0.013 0-0.026 0-0.039 0.001h0.002z"></path>
<path d="M45.492 50.464c-0.004 0-0.010 0-0.015 0-0.891 0-1.696-0.364-2.276-0.951l-0-0c-0.586-0.587-0.949-1.397-0.949-2.292s0.362-1.705 0.949-2.292v0l7.351-7.264-7.351-7.264c-0.636-0.594-1.032-1.437-1.032-2.373 0-1.791 1.452-3.243 3.243-3.243 0.936 0 1.779 0.396 2.371 1.030l0.002 0.002 9.513 9.556c0.599 0.589 0.97 1.408 0.97 2.313s-0.371 1.725-0.97 2.313l-0 0-9.513 9.513c-0.58 0.587-1.386 0.951-2.277 0.951-0.005 0-0.011 0-0.016 0h0.001z"></path>
<path d="M24.866 52.972c-1.781-0.024-3.219-1.462-3.243-3.241v-12.066c0.024-1.781 1.462-3.219 3.241-3.243h30.271c1.791 0 3.243 1.452 3.243 3.243s-1.452 3.243-3.243 3.243v0h-27.026v8.648c0.002 0.039 0.002 0.084 0.002 0.13 0 1.801-1.448 3.263-3.243 3.286h-0.002z"></path>
</svg>
