<!-- Generated by IcoMoon.io -->
<svg version="1.1" xmlns="http://www.w3.org/2000/svg" width="80" height="80" viewBox="0 0 80 80">
<title>discord</title>
<path d="M67.735 14.285c-5.177-2.399-10.69-4.167-16.498-5.177-0.715 1.263-1.557 2.988-2.104 4.377-6.145-0.926-12.247-0.926-18.265 0-0.589-1.389-1.431-3.114-2.146-4.377-5.808 1.010-11.321 2.778-16.498 5.177-10.437 15.74-13.257 31.102-11.868 46.211 6.944 5.177 13.636 8.291 20.244 10.353 1.641-2.231 3.072-4.629 4.335-7.113-2.399-0.884-4.672-2.020-6.818-3.325 0.589-0.421 1.136-0.884 1.684-1.305 13.173 6.145 27.44 6.145 40.445 0 0.547 0.463 1.094 0.884 1.684 1.305-2.146 1.305-4.461 2.399-6.818 3.325 1.263 2.483 2.694 4.882 4.335 7.113 6.608-2.062 13.341-5.177 20.244-10.353 1.641-17.55-2.82-32.743-11.868-46.211zM26.701 51.237c-3.956 0-7.197-3.661-7.197-8.165s3.156-8.165 7.197-8.165 7.239 3.661 7.197 8.165c0 4.461-3.156 8.165-7.197 8.165zM53.257 51.237c-3.956 0-7.197-3.661-7.197-8.165s3.156-8.165 7.197-8.165 7.239 3.661 7.197 8.165c0 4.461-3.156 8.165-7.197 8.165z"></path>
</svg>
