<!-- Generated by IcoMoon.io -->
<svg version="1.1" xmlns="http://www.w3.org/2000/svg" width="80" height="80" viewBox="0 0 80 80">
<title>dollar</title>
<path d="M40 79.998c-1.883-0.025-3.403-1.545-3.428-3.426v-73.142c0-1.893 1.535-3.428 3.428-3.428s3.428 1.535 3.428 3.428v0 73.14c-0.025 1.883-1.545 3.403-3.426 3.428h-0.003z"></path>
<path d="M46.857 70.856h-29.713c-1.893 0-3.428-1.535-3.428-3.428s1.535-3.428 3.428-3.428v0h29.713c0.309 0.029 0.668 0.046 1.031 0.046 5.962 0 10.874-4.493 11.535-10.278l0.005-0.053c-0.666-5.838-5.579-10.331-11.54-10.331-0.363 0-0.722 0.017-1.076 0.049l0.046-0.003h-13.714c-0.352 0.024-0.762 0.038-1.176 0.038-9.71 0-17.652-7.568-18.249-17.128l-0.003-0.052c0.6-9.612 8.542-17.18 18.251-17.18 0.414 0 0.824 0.014 1.231 0.041l-0.055-0.003h25.142c1.893 0 3.428 1.535 3.428 3.428s-1.535 3.428-3.428 3.428v0h-25.142c-0.309-0.029-0.668-0.046-1.031-0.046-5.962 0-10.874 4.493-11.535 10.278l-0.005 0.053c0.666 5.838 5.579 10.331 11.54 10.331 0.363 0 0.722-0.017 1.076-0.049l-0.046 0.003h13.714c0.352-0.024 0.762-0.038 1.176-0.038 9.71 0 17.652 7.568 18.249 17.128l0.003 0.052c-0.6 9.612-8.542 17.18-18.251 17.18-0.414 0-0.824-0.014-1.231-0.041l0.055 0.003z"></path>
</svg>
