<!-- Generated by IcoMoon.io -->
<svg version="1.1" xmlns="http://www.w3.org/2000/svg" width="80" height="80" viewBox="0 0 80 80">
<title>eject</title>
<path d="M76.127 43.871h-72.253c-2.136-0.002-3.867-1.734-3.867-3.871 0-1.068 0.433-2.035 1.132-2.735v0l36.127-36.127c0.7-0.699 1.667-1.132 2.735-1.132s2.035 0.433 2.735 1.132v0l36.127 36.127c0.699 0.7 1.132 1.667 1.132 2.735 0 2.136-1.731 3.869-3.867 3.871h-0zM13.215 36.129h53.571l-26.785-26.785z"></path>
<path d="M70.966 79.997h-61.931c-4.976-0.029-9.003-4.055-9.032-9.029v-10.325c0.029-4.976 4.055-9.003 9.029-9.032h61.934c4.976 0.029 9.003 4.055 9.032 9.029v10.325c-0.029 4.976-4.055 9.003-9.029 9.032h-0.003zM9.034 59.354c-0.713 0-1.29 0.578-1.29 1.29v0 10.322c0 0.713 0.578 1.29 1.29 1.29v0h61.931c0.713 0 1.29-0.578 1.29-1.29v0-10.322c0-0.713-0.578-1.29-1.29-1.29v0z"></path>
</svg>
