<!-- Generated by IcoMoon.io -->
<svg version="1.1" xmlns="http://www.w3.org/2000/svg" width="80" height="80" viewBox="0 0 80 80">
<title>ellipsis-v</title>
<path d="M47.999 40c0 4.418-3.581 7.999-7.999 7.999s-7.999-3.581-7.999-7.999c0-4.418 3.581-7.999 7.999-7.999s7.999 3.581 7.999 7.999z"></path>
<path d="M47.999 8.002c0 4.418-3.581 7.999-7.999 7.999s-7.999-3.581-7.999-7.999c0-4.418 3.581-7.999 7.999-7.999s7.999 3.581 7.999 7.999z"></path>
<path d="M47.999 71.998c0 4.418-3.581 7.999-7.999 7.999s-7.999-3.581-7.999-7.999c0-4.418 3.581-7.999 7.999-7.999s7.999 3.581 7.999 7.999z"></path>
</svg>
