<!-- Generated by IcoMoon.io -->
<svg version="1.1" xmlns="http://www.w3.org/2000/svg" width="80" height="80" viewBox="0 0 80 80">
<title>ellipsis-h</title>
<path d="M47.998 40c0 4.417-3.581 7.998-7.998 7.998s-7.998-3.581-7.998-7.998c0-4.417 3.581-7.998 7.998-7.998s7.998 3.581 7.998 7.998z"></path>
<path d="M79.991 40c0 4.417-3.581 7.998-7.998 7.998s-7.998-3.581-7.998-7.998c0-4.417 3.581-7.998 7.998-7.998s7.998 3.581 7.998 7.998z"></path>
<path d="M16.005 40c0 4.417-3.581 7.998-7.998 7.998s-7.998-3.581-7.998-7.998c0-4.417 3.581-7.998 7.998-7.998s7.998 3.581 7.998 7.998z"></path>
</svg>
