<!-- Generated by IcoMoon.io -->
<svg version="1.1" xmlns="http://www.w3.org/2000/svg" width="80" height="80" viewBox="0 0 80 80">
<title>envelope</title>
<path d="M71.999 4.572h-63.998c-4.408 0.026-7.974 3.592-8 7.997v54.858c0.026 4.408 3.592 7.974 7.997 8h64.001c4.408-0.026 7.974-3.592 8-7.997v-54.858c-0.026-4.408-3.592-7.974-7.997-8h-0.003zM8.001 11.429h63.998c0.631 0 1.143 0.512 1.143 1.143v0 7.040l-33.142 16.548-33.142-16.548v-7.040c0-0.631 0.512-1.143 1.143-1.143v0zM71.999 68.571h-63.998c-0.631 0-1.143-0.512-1.143-1.143v0-40.182l31.588 15.817c0.453 0.231 0.988 0.367 1.554 0.367s1.101-0.136 1.574-0.376l-0.020 0.009 31.588-15.817v40.182c0 0.631-0.512 1.143-1.143 1.143v0z"></path>
</svg>
