<!-- Generated by IcoMoon.io -->
<svg version="1.1" xmlns="http://www.w3.org/2000/svg" width="80" height="80" viewBox="0 0 80 80">
<title>eraser</title>
<path d="M74.998 30.837c0-1.951-0.764-3.818-2.164-5.218l-18.454-18.454c-2.885-2.885-7.551-2.885-10.436 0l-36.78 36.78c-1.4 1.4-2.164 3.266-2.164 5.218s0.764 3.818 2.164 5.218l18.454 18.454c1.442 1.442 3.309 2.164 5.218 2.164 0.17 0 0.382 0 0.552-0.042 0.085 0 0.127 0 0.212 0h33.895c1.739 0 3.182-1.442 3.182-3.182s-1.442-3.182-3.182-3.182h-25.241l32.538-32.538c1.4-1.4 2.164-3.266 2.164-5.218zM11.662 49.884c-0.254-0.254-0.297-0.552-0.297-0.721s0-0.467 0.297-0.721l16.12-16.12 19.896 19.896-16.12 16.12c-0.382 0.382-1.018 0.382-1.442 0l-18.454-18.496zM68.338 31.6l-16.12 16.12-19.896-19.896 16.12-16.12c0.382-0.382 1.018-0.382 1.442 0l18.454 18.496c0.254 0.254 0.297 0.552 0.297 0.721s0 0.467-0.297 0.721z"></path>
</svg>
