<!-- Generated by IcoMoon.io -->
<svg version="1.1" xmlns="http://www.w3.org/2000/svg" width="80" height="80" viewBox="0 0 80 80">
<title>euro</title>
<path d="M49.581 80.083h-0.687c-21.756-0.491-39.205-18.244-39.205-40.073 0-11.217 4.608-21.358 12.034-28.633l0.007-0.007c7.061-6.975 16.771-11.283 27.486-11.283 0.37 0 0.739 0.005 1.107 0.015l-0.054-0.001c10.719 0.158 20.394 4.498 27.492 11.459l-0.006-0.006c0.621 0.621 1.005 1.48 1.005 2.428s-0.384 1.806-1.005 2.428v0c-0.621 0.621-1.48 1.005-2.428 1.005s-1.806-0.384-2.428-1.005v0c-5.999-5.905-14.236-9.552-23.326-9.552-18.368 0-33.257 14.89-33.257 33.257s14.89 33.257 33.257 33.257c8.667 0 16.561-3.316 22.48-8.748l-0.024 0.022 1.008-0.962c0.648-0.618 1.528-0.999 2.496-0.999s1.849 0.381 2.498 1l-0.001-0.001c0.665 0.59 1.083 1.448 1.083 2.402 0 0.842-0.325 1.608-0.855 2.181l0.002-0.002-0.229 0.229-1.328 1.283c-7.055 6.394-16.461 10.308-26.782 10.308-0.118 0-0.237-0.001-0.355-0.001l0.018 0z"></path>
<path d="M67.904 36.564h-64.132c-1.897 0-3.436-1.538-3.436-3.436s1.538-3.436 3.436-3.436v0h64.132c1.897 0 3.436 1.538 3.436 3.436s-1.538 3.436-3.436 3.436v0z"></path>
<path d="M61.033 50.307h-57.261c-1.897 0-3.436-1.538-3.436-3.436s1.538-3.436 3.436-3.436v0h57.261c1.897 0 3.436 1.538 3.436 3.436s-1.538 3.436-3.436 3.436v0z"></path>
</svg>
