<!-- Generated by IcoMoon.io -->
<svg version="1.1" xmlns="http://www.w3.org/2000/svg" width="80" height="80" viewBox="0 0 80 80">
<title>exclamation-triangle</title>
<path d="M76.582 75.367h-73.164c-1.257-0.004-2.356-0.674-2.964-1.676l-0.009-0.015c-0.28-0.494-0.446-1.085-0.446-1.715s0.165-1.221 0.455-1.732l-0.009 0.017 36.582-64.018c0.648-0.967 1.737-1.595 2.972-1.595s2.324 0.628 2.964 1.582l0.008 0.013 36.582 64.018c0.28 0.494 0.446 1.085 0.446 1.715s-0.165 1.221-0.455 1.732l0.009-0.017c-0.616 1.017-1.715 1.688-2.972 1.692h-0.001zM9.317 68.508h61.366l-30.683-53.684z"></path>
<path d="M40 50.217c-1.884-0.025-3.404-1.546-3.43-3.427v-16.007c0-1.894 1.535-3.43 3.43-3.43s3.43 1.535 3.43 3.43v0 16.005c-0.025 1.884-1.546 3.404-3.427 3.43h-0.003z"></path>
<path d="M40 63.935c-1.884-0.025-3.404-1.546-3.43-3.427v-2.289c0-1.894 1.535-3.43 3.43-3.43s3.43 1.535 3.43 3.43v0 2.286c-0.025 1.884-1.546 3.404-3.427 3.43h-0.003z"></path>
</svg>
