<!-- Generated by IcoMoon.io -->
<svg version="1.1" xmlns="http://www.w3.org/2000/svg" width="80" height="80" viewBox="0 0 80 80">
<title>external-link</title>
<path d="M67.352 79.888h-54.704c-6.924 0-12.536-5.613-12.536-12.536v0-54.704c0-6.924 5.613-12.536 12.536-12.536v0h27.352c1.888 0 3.419 1.531 3.419 3.419s-1.531 3.419-3.419 3.419v0h-27.352c-3.147 0-5.698 2.551-5.698 5.698v0 54.704c0 3.147 2.551 5.698 5.698 5.698v0h54.704c3.147 0 5.698-2.551 5.698-5.698v0-27.352c0-1.888 1.531-3.419 3.419-3.419s3.419 1.531 3.419 3.419v0 27.352c0 6.924-5.613 12.536-12.536 12.536v0z"></path>
<path d="M76.469 25.184c-1.878-0.025-3.394-1.541-3.419-3.417v-14.818h-14.816c-1.888 0-3.419-1.531-3.419-3.419s1.531-3.419 3.419-3.419v0h18.235c1.878 0.025 3.394 1.541 3.419 3.417v18.237c-0.025 1.878-1.541 3.394-3.417 3.419h-0.002z"></path>
<path d="M46.838 36.581c-0.912-0.072-1.713-0.496-2.276-1.136l-0.003-0.004c-0.54-0.602-0.871-1.402-0.871-2.279s0.33-1.677 0.873-2.282l-0.003 0.003 29.631-29.631c0.626-0.67 1.515-1.088 2.501-1.088 1.888 0 3.419 1.531 3.419 3.419 0 0.987-0.418 1.876-1.086 2.5l-0.002 0.002-29.905 29.358c-0.566 0.643-1.367 1.068-2.268 1.139l-0.012 0.001z"></path>
</svg>
