<!-- Generated by IcoMoon.io -->
<svg version="1.1" xmlns="http://www.w3.org/2000/svg" width="80" height="80" viewBox="0 0 80 80">
<title>eye-slash</title>
<path d="M79.711 38.629c-0.548-1.188-13.069-29.475-39.711-29.475-0.011 0-0.024 0-0.037 0-2.675 0-5.28 0.3-7.784 0.867l0.235-0.045c-1.41 0.446-2.414 1.743-2.414 3.274 0 1.893 1.534 3.427 3.427 3.427 0.158 0 0.314-0.011 0.467-0.031l-0.018 0.002c1.839-0.402 3.953-0.635 6.12-0.64h0.004c19.101 0 30.069 18.736 32.765 23.991-1.802 3.491-3.714 6.484-5.864 9.283l0.106-0.144c-0.449 0.574-0.72 1.306-0.72 2.102 0 1.889 1.528 3.421 3.416 3.427h0.001c1.093-0.004 2.065-0.518 2.69-1.318l0.006-0.008c2.728-3.437 5.166-7.323 7.152-11.467l0.159-0.369c0.192-0.424 0.304-0.919 0.304-1.439s-0.112-1.016-0.313-1.462l0.009 0.023z"></path>
<path d="M15.004 10.16c-0.61-0.57-1.433-0.92-2.336-0.92-1.893 0-3.427 1.534-3.427 3.427 0 0.904 0.35 1.726 0.922 2.339l-0.002-0.002 4.204 4.204c-5.836 5.381-10.578 11.848-13.92 19.094l-0.154 0.373c-0.172 0.398-0.272 0.861-0.272 1.348s0.1 0.95 0.281 1.371l-0.009-0.023c0.548 1.188 13.069 29.475 39.711 29.475 0.053 0 0.116 0 0.179 0 7.399 0 14.281-2.218 20.016-6.025l-0.134 0.084 4.935 4.935c0.62 0.619 1.476 1.002 2.422 1.002s1.802-0.383 2.422-1.002v0c0.619-0.62 1.002-1.476 1.002-2.422s-0.383-1.802-1.002-2.422v0zM32.506 37.578l10.099 10.145c-0.777 0.266-1.672 0.42-2.602 0.42-2.196 0-4.192-0.856-5.673-2.252l0.004 0.004c-1.463-1.443-2.369-3.447-2.369-5.662 0-1.037 0.199-2.028 0.56-2.937l-0.019 0.054zM40 63.991c-19.147 0-30.069-18.782-32.765-23.991 3.122-6.203 7.132-11.482 11.935-15.914l0.038-0.034 8.18 8.18c-1.39 2.214-2.215 4.906-2.215 7.79 0 8.177 6.629 14.806 14.806 14.806 2.884 0 5.576-0.825 7.852-2.251l-0.062 0.036 7.357 7.357c-4.278 2.528-9.427 4.022-14.925 4.022-0.071 0-0.141-0-0.212-0.001l0.011 0z"></path>
</svg>
