<!-- Generated by IcoMoon.io -->
<svg version="1.1" xmlns="http://www.w3.org/2000/svg" width="80" height="80" viewBox="0 0 80 80">
<title>eye</title>
<path d="M40 70.857c-26.651 0-39.177-28.297-39.726-29.486-0.173-0.405-0.274-0.877-0.274-1.371s0.101-0.966 0.283-1.395l-0.009 0.023c0.549-1.189 13.074-29.486 39.726-29.486s39.177 28.297 39.726 29.486c0.173 0.405 0.274 0.877 0.274 1.371s-0.101 0.966-0.283 1.395l0.009-0.023c-0.549 1.189-13.074 29.486-39.726 29.486zM7.223 40c2.697 5.257 13.714 24 32.777 24s30.080-18.743 32.777-24c-2.697-5.257-13.714-24-32.777-24s-30.080 18.743-32.777 24z"></path>
<path d="M40 54.857c-8.205 0-14.857-6.652-14.857-14.857s6.652-14.857 14.857-14.857c8.205 0 14.857 6.652 14.857 14.857v0c-0.026 8.195-6.662 14.831-14.855 14.857h-0.002zM40 32c-4.418 0-8 3.582-8 8s3.582 8 8 8c4.418 0 8-3.582 8-8v0c-0.026-4.408-3.592-7.974-7.998-8h-0.002z"></path>
</svg>
