<!-- Generated by IcoMoon.io -->
<svg version="1.1" xmlns="http://www.w3.org/2000/svg" width="80" height="80" viewBox="0 0 80 80">
<title>facebook</title>
<path d="M79.999 40.25c-0.278-21.878-18.078-39.507-39.996-39.507-22.091 0-39.999 17.908-39.999 39.999 0 19.883 14.508 36.378 33.516 39.476l0.231 0.031v-28.349h-10v-11.65h10v-8.85c-0.056-0.474-0.089-1.024-0.089-1.581 0-7.815 6.335-14.15 14.15-14.15 0.33 0 0.658 0.011 0.983 0.034l-0.044-0.002c3.195 0.045 6.287 0.334 9.303 0.85l-0.353-0.050v10h-5c-0.218-0.029-0.47-0.046-0.726-0.046-3.203 0-5.8 2.597-5.8 5.8 0 0.192 0.009 0.382 0.027 0.569l-0.002-0.024v7.55h11.1l-1.8 11.65h-9.25v27.999c19.24-3.128 33.75-19.623 33.75-39.508 0-0.085-0-0.169-0.001-0.254l0 0.013z"></path>
</svg>
