<!-- Generated by IcoMoon.io -->
<svg version="1.1" xmlns="http://www.w3.org/2000/svg" width="80" height="80" viewBox="0 0 80 80">
<title>fast-forward</title>
<path d="M76.57 4.572c-1.874 0-3.429 1.554-3.429 3.429v28.296l-30.719-30.719c-0.96-0.96-2.469-1.28-3.749-0.731s-2.103 1.783-2.103 3.154v28.296l-30.719-30.719c-0.96-0.96-2.469-1.28-3.749-0.731s-2.103 1.783-2.103 3.154v63.998c0 1.371 0.823 2.651 2.103 3.154 0.411 0.183 0.869 0.274 1.326 0.274 0.914 0 1.783-0.366 2.423-1.006l30.719-30.719v28.296c0 1.371 0.823 2.651 2.103 3.154 0.411 0.183 0.869 0.274 1.326 0.274 0.914 0 1.783-0.366 2.423-1.006l30.719-30.719v28.296c0 1.874 1.554 3.429 3.429 3.429s3.429-1.554 3.429-3.429v-63.998c0-1.874-1.554-3.429-3.429-3.429zM6.858 63.725v-47.45l23.725 23.725-23.725 23.725zM43.429 63.725v-47.45l23.725 23.725-23.725 23.725z"></path>
</svg>
