<!-- Generated by IcoMoon.io -->
<svg version="1.1" xmlns="http://www.w3.org/2000/svg" width="80" height="80" viewBox="0 0 80 80">
<title>fast-backward</title>
<path d="M77.896 4.847c-1.28-0.549-2.743-0.229-3.749 0.731l-30.719 30.719v-28.296c0-1.371-0.823-2.651-2.103-3.154-1.28-0.549-2.743-0.229-3.749 0.731l-30.719 30.719v-28.296c0-1.874-1.554-3.429-3.429-3.429s-3.429 1.554-3.429 3.429v63.998c0 1.874 1.554 3.429 3.429 3.429s3.429-1.554 3.429-3.429v-28.296l30.719 30.719c0.64 0.64 1.509 1.006 2.423 1.006 0.457 0 0.869-0.091 1.326-0.274 1.28-0.549 2.103-1.783 2.103-3.154v-28.296l30.719 30.719c0.64 0.64 1.509 1.006 2.423 1.006 0.457 0 0.869-0.091 1.326-0.274 1.28-0.549 2.103-1.783 2.103-3.154v-63.998c0-1.371-0.823-2.651-2.103-3.154zM36.571 63.725l-23.725-23.725 23.725-23.725v47.45zM73.142 63.725l-23.725-23.725 23.725-23.725v47.45z"></path>
</svg>
