<!-- Generated by IcoMoon.io -->
<svg version="1.1" xmlns="http://www.w3.org/2000/svg" width="80" height="80" viewBox="0 0 80 80">
<title>file-import</title>
<path d="M41.956 52.222h-38.622c-1.822 0-3.333-1.511-3.333-3.333s1.511-3.333 3.333-3.333h38.622l-7.644-7.644c-1.289-1.289-1.289-3.422 0-4.711s3.422-1.289 4.711 0l13.333 13.333c0.311 0.311 0.533 0.667 0.711 1.067 0.356 0.8 0.356 1.733 0 2.533-0.178 0.4-0.4 0.756-0.711 1.067l-13.333 13.333c-0.667 0.667-1.511 0.978-2.356 0.978s-1.689-0.311-2.356-0.978c-1.289-1.289-1.289-3.422 0-4.711l7.644-7.644zM80 28.889v37.778c0 6.756-5.467 12.222-12.222 12.222h-33.333c-6.756 0-12.222-5.467-12.222-12.222v-4.444c0-1.822 1.511-3.333 3.333-3.333s3.333 1.511 3.333 3.333v4.444c0 3.067 2.489 5.556 5.556 5.556h33.333c3.067 0 5.556-2.489 5.556-5.556v-34.444h-21.111c-1.822 0-3.333-1.511-3.333-3.333v-21.111h-14.444c-3.067 0-5.556 2.489-5.556 5.556v22.222c0 1.822-1.511 3.333-3.333 3.333s-3.333-1.511-3.333-3.333v-22.222c0-6.756 5.467-12.222 12.222-12.222h17.778c0.889 0 1.733 0.356 2.356 0.978l24.444 24.444c0.622 0.622 0.978 1.467 0.978 2.356zM55.556 25.556h13.067l-13.067-13.067v13.067z"></path>
</svg>
