<!-- Generated by IcoMoon.io -->
<svg version="1.1" xmlns="http://www.w3.org/2000/svg" width="80" height="80" viewBox="0 0 80 80">
<title>file-edit</title>
<path d="M22.703 69.188h-6.486c-2.984 0-5.405-2.421-5.405-5.405v-51.89c0-2.984 2.421-5.405 5.405-5.405h16.216v20.54c0 1.773 1.47 3.243 3.243 3.243h20.756c0.432 1.254 1.6 2.162 3.027 2.162 1.773 0 3.243-1.47 3.243-3.243v-2.162c0-0.432-0.086-0.865-0.259-1.254s-0.389-0.735-0.692-1.038l-23.783-23.783c-0.303-0.303-0.649-0.519-1.038-0.692s-0.822-0.259-1.254-0.259h-19.459c-6.573 0-11.891 5.319-11.891 11.891v51.89c0 6.573 5.319 11.891 11.891 11.891h6.486c1.773 0 3.243-1.47 3.243-3.243s-1.47-3.243-3.243-3.243zM38.919 11.071l12.713 12.713h-12.713v-12.713zM72.907 37.276c-1.643-1.643-4.065-2.638-6.573-2.681-2.594-0.13-5.059 0.865-6.702 2.551l-27.631 27.675c-0.562 0.562-0.865 1.254-0.951 2.032l-0.778 9.643c-0.086 0.951 0.259 1.903 0.951 2.551 0.605 0.605 1.427 0.951 2.292 0.951 0.086 0 0.173 0 0.303 0l9.729-0.908c0.735-0.086 1.47-0.389 1.989-0.951l27.631-27.675c3.459-3.416 3.33-9.6-0.259-13.189zM68.583 45.881l-26.81 26.853-4.713 0.432 0.346-4.584 26.81-26.853c0.432-0.432 1.211-0.605 1.989-0.649 0.865 0 1.643 0.303 2.119 0.778 1.038 0.995 1.168 3.113 0.259 4.021z"></path>
</svg>
