<!-- Generated by IcoMoon.io -->
<svg version="1.1" xmlns="http://www.w3.org/2000/svg" width="80" height="80" viewBox="0 0 80 80">
<title>file-pdf</title>
<path d="M69.85 26.286l-25.279-25.279c-0.62-0.621-1.476-1.005-2.423-1.006h-20.434c-6.943 0-12.571 5.628-12.571 12.571v0 54.855c0 6.943 5.628 12.571 12.571 12.571v0h36.57c6.943 0 12.571-5.628 12.571-12.571v0-38.855c-0.039-0.896-0.416-1.698-1.006-2.285l-0-0zM45.714 11.704l13.439 13.439h-13.439zM58.285 73.141h-36.57c-3.156 0-5.714-2.558-5.714-5.714v0-54.855c0-3.156 2.558-5.714 5.714-5.714v0h17.142v21.713c0.025 1.883 1.545 3.403 3.426 3.428h21.716v35.427c0 3.156-2.558 5.714-5.714 5.714v0z"></path>
<path d="M46.811 53.028c-2.782-1.766-4.885-4.386-5.958-7.487l-0.030-0.101c0.665-1.922 1.049-4.136 1.049-6.441 0-0.953-0.066-1.89-0.193-2.808l0.012 0.106c-0.304-1.739-1.802-3.043-3.605-3.043-1.483 0-2.76 0.883-3.334 2.152l-0.009 0.023c-0.142 0.958-0.223 2.063-0.223 3.187 0 2.793 0.501 5.468 1.418 7.942l-0.051-0.158c-2.083 4.861-4.026 8.765-6.15 12.554l0.344-0.669c-3.246 1.829-7.68 4.571-8.365 7.725-0.549 2.56 4.251 9.142 12.434-5.12 3.027-1.177 6.756-2.309 10.584-3.182l0.57-0.109c2.631 1.531 5.746 2.534 9.070 2.784l0.072 0.004c0.029 0.001 0.063 0.001 0.097 0.001 2.070 0 3.748-1.678 3.748-3.748 0-0.991-0.385-1.893-1.013-2.563l0.002 0.002c-1.92-1.966-7.634-1.417-10.468-1.051zM24.961 66.742c1.32-2.233 2.982-4.114 4.938-5.635l0.044-0.033c-3.108 4.937-4.983 5.805-4.983 5.714zM38.309 35.612c1.189 0 1.097 5.257 0.274 6.674-0.347-1.162-0.546-2.496-0.546-3.878 0-0.973 0.099-1.923 0.288-2.841l-0.016 0.091zM34.332 57.919c1.367-2.428 2.721-5.32 3.867-8.314l0.155-0.462c1.25 2.297 2.907 4.217 4.893 5.728l0.044 0.032c-3.477 0.879-6.46 1.927-9.318 3.206l0.358-0.143zM55.816 57.096s-0.823 1.006-6.080-1.28c5.714-0.366 6.674 0.96 6.080 1.326z"></path>
</svg>
