<!-- Generated by IcoMoon.io -->
<svg version="1.1" xmlns="http://www.w3.org/2000/svg" width="80" height="80" viewBox="0 0 80 80">
<title>file</title>
<path d="M69.85 26.286l-25.279-25.279c-0.62-0.621-1.476-1.005-2.423-1.006h-20.434c-6.943 0-12.571 5.628-12.571 12.571v0 54.855c0 6.943 5.628 12.571 12.571 12.571v0h36.57c6.943 0 12.571-5.628 12.571-12.571v0-38.855c-0.039-0.896-0.416-1.698-1.006-2.285l-0-0zM45.714 11.704l13.439 13.439h-13.439zM58.285 73.141h-36.57c-3.156 0-5.714-2.558-5.714-5.714v0-54.855c0-3.156 2.558-5.714 5.714-5.714v0h17.142v21.713c0.025 1.883 1.545 3.403 3.426 3.428h21.716v35.427c0 3.156-2.558 5.714-5.714 5.714v0z"></path>
</svg>
