<!-- Generated by IcoMoon.io -->
<svg version="1.1" xmlns="http://www.w3.org/2000/svg" width="80" height="80" viewBox="0 0 80 80">
<title>file-excel</title>
<path d="M69.85 26.286l-25.279-25.279c-0.62-0.621-1.476-1.005-2.423-1.006h-20.434c-6.943 0-12.571 5.628-12.571 12.571v0 54.855c0 6.943 5.628 12.571 12.571 12.571v0h36.57c6.943 0 12.571-5.628 12.571-12.571v0-38.855c-0.039-0.896-0.416-1.698-1.006-2.285l-0-0zM45.714 11.704l13.439 13.439h-13.439zM58.285 73.141h-36.57c-3.156 0-5.714-2.558-5.714-5.714v0-54.855c0-3.156 2.558-5.714 5.714-5.714v0h17.142v21.713c0.025 1.883 1.545 3.403 3.426 3.428h21.716v35.427c0 3.156-2.558 5.714-5.714 5.714v0z"></path>
<path d="M51.291 39.589c-0.586-0.451-1.33-0.723-2.137-0.723-1.086 0-2.058 0.492-2.704 1.266l-0.005 0.006-6.445 8.091-6.445-8.228c-0.653-0.767-1.618-1.25-2.697-1.25-1.953 0-3.535 1.583-3.535 3.535 0 0.874 0.317 1.674 0.842 2.291l-0.004-0.005 7.268 9.142-7.268 9.142c-0.468 0.584-0.751 1.333-0.751 2.148 0 1.904 1.544 3.448 3.448 3.448 1.089 0 2.060-0.505 2.692-1.293l0.005-0.007 6.445-7.954 6.445 8.228c0.647 0.78 1.614 1.274 2.696 1.28h0.001c0.085 0.008 0.183 0.012 0.283 0.012 1.893 0 3.428-1.535 3.428-3.428 0-0.952-0.388-1.813-1.014-2.434l-0-0-7.268-9.142 7.451-9.142c0.45-0.585 0.721-1.328 0.721-2.134 0-1.167-0.568-2.201-1.442-2.842l-0.010-0.007z"></path>
</svg>
