<!-- Generated by IcoMoon.io -->
<svg version="1.1" xmlns="http://www.w3.org/2000/svg" width="80" height="80" viewBox="0 0 80 80">
<title>file-export</title>
<path d="M54.444 56.666c-1.822 0-3.333 1.511-3.333 3.333v6.666c0 3.067-2.489 5.555-5.555 5.555h-33.332c-3.067 0-5.555-2.489-5.555-5.555v-53.331c0-3.067 2.489-5.555 5.555-5.555h14.444v21.11c0 1.822 1.511 3.333 3.333 3.333h21.11v5.555c0 1.822 1.511 3.333 3.333 3.333s3.333-1.511 3.333-3.333v-8.888c0-0.889-0.355-1.733-0.978-2.355l-24.443-24.443c-0.622-0.622-1.467-0.978-2.355-0.978h-17.777c-6.755 0-12.222 5.466-12.222 12.222v53.331c0 6.755 5.466 12.222 12.222 12.222h33.332c6.755 0 12.222-5.466 12.222-12.222v-6.666c0-1.822-1.511-3.333-3.333-3.333zM33.334 12.49l13.066 13.066h-13.066v-13.066zM79.732 50.177c-0.178 0.4-0.4 0.755-0.711 1.067l-13.333 13.333c-0.667 0.667-1.511 0.978-2.355 0.978s-1.689-0.311-2.355-0.978c-1.289-1.289-1.289-3.422 0-4.711l7.644-7.644h-38.621c-1.822 0-3.333-1.511-3.333-3.333s1.511-3.333 3.333-3.333h38.621l-7.644-7.644c-1.289-1.289-1.289-3.422 0-4.711s3.422-1.289 4.711 0l13.333 13.333c0.311 0.311 0.533 0.667 0.711 1.067 0.355 0.8 0.355 1.733 0 2.533z"></path>
</svg>
