<!-- Generated by IcoMoon.io -->
<svg version="1.1" xmlns="http://www.w3.org/2000/svg" width="80" height="80" viewBox="0 0 80 80">
<title>file-word</title>
<path d="M69.85 26.149l-25.141-25.141c-0.64-0.64-1.509-1.006-2.423-1.006h-20.57c-6.948 0-12.571 5.622-12.571 12.571v54.854c0 6.948 5.622 12.571 12.571 12.571h36.569c6.948 0 12.571-5.622 12.571-12.571v-38.855c0-0.914-0.366-1.783-1.006-2.423zM45.714 11.704l13.439 13.439h-13.439v-13.439zM58.285 73.141h-36.569c-3.154 0-5.714-2.56-5.714-5.714v-54.854c0-3.154 2.56-5.714 5.714-5.714h17.142v21.713c0 1.874 1.554 3.428 3.428 3.428h21.713v35.427c0 3.154-2.56 5.714-5.714 5.714zM59.29 43.291l-6.857 22.856c-0.411 1.371-1.691 2.377-3.154 2.423-0.046 0-0.091 0-0.137 0-1.417 0-2.651-0.869-3.2-2.148l-5.943-14.902-5.943 14.902c-0.549 1.371-1.874 2.24-3.337 2.148-1.463-0.046-2.697-1.051-3.154-2.423l-6.857-22.856c-0.549-1.829 0.503-3.748 2.286-4.251 1.829-0.549 3.703 0.503 4.251 2.286l4.023 13.439 5.485-13.759c1.051-2.606 5.348-2.606 6.354 0l5.485 13.759 4.023-13.439c0.549-1.829 2.468-2.834 4.251-2.286 1.829 0.549 2.834 2.468 2.286 4.251z"></path>
</svg>
