<!-- Generated by IcoMoon.io -->
<svg version="1.1" xmlns="http://www.w3.org/2000/svg" width="80" height="80" viewBox="0 0 80 80">
<title>filter</title>
<path d="M49.411 79.998h-18.822c-1.939-0.026-3.503-1.591-3.529-3.527v-36.471l-25.175-34.398c-0.444-0.573-0.712-1.302-0.712-2.094 0-0.576 0.142-1.118 0.392-1.595l-0.009 0.019c0.605-1.149 1.788-1.921 3.152-1.929h70.585c1.365 0.009 2.547 0.78 3.143 1.91l0.009 0.020c0.241 0.458 0.383 1 0.383 1.576 0 0.792-0.268 1.521-0.718 2.102l0.006-0.008-25.175 34.398v36.469c-0.026 1.939-1.591 3.503-3.527 3.529h-0.002zM34.118 72.939h11.764v-34.116c0-0.005 0-0.011 0-0.017 0-0.778 0.266-1.493 0.711-2.061l-0.006 0.007 21.646-29.692h-56.467l21.74 29.692c0.44 0.56 0.706 1.276 0.706 2.054 0 0.006 0 0.012 0 0.017v-0.001z"></path>
</svg>
