<!-- Generated by IcoMoon.io -->
<svg version="1.1" xmlns="http://www.w3.org/2000/svg" width="80" height="80" viewBox="0 0 80 80">
<title>filter-fill</title>
<path d="M78.445 1.932c-0.605-1.149-1.788-1.921-3.152-1.929h-70.585c-1.365 0.009-2.547 0.78-3.143 1.91l-0.009 0.020c-0.241 0.458-0.383 1-0.383 1.576 0 0.792 0.268 1.521 0.718 2.102l-0.006-0.008 25.175 34.398v36.469c0.026 1.939 1.591 3.503 3.527 3.529h18.825c1.939-0.026 3.503-1.591 3.529-3.527v-36.471l25.175-34.398c0.444-0.573 0.712-1.302 0.712-2.094 0-0.576-0.142-1.118-0.392-1.595l0.009 0.019z"></path>
</svg>
