<!-- Generated by IcoMoon.io -->
<svg version="1.1" xmlns="http://www.w3.org/2000/svg" width="80" height="80" viewBox="0 0 80 80">
<title>filter-slash</title>
<path d="M78.446 1.931c-0.605-1.149-1.788-1.921-3.152-1.929h-32.941c-1.949 0-3.529 1.58-3.529 3.529s1.58 3.529 3.529 3.529v0h25.882l-8.706 12.047c-0.424 0.572-0.678 1.292-0.678 2.071 0 1.934 1.568 3.501 3.501 3.501 1.155 0 2.179-0.559 2.817-1.421l0.007-0.009 12.941-17.646c0.444-0.573 0.712-1.302 0.712-2.094 0-0.576-0.142-1.118-0.392-1.595l0.009 0.019z"></path>
<path d="M24.236 1.036s0 0-0.235 0c-0.257-0.223-0.552-0.412-0.871-0.556l-0.023-0.009c-0.304-0.12-0.655-0.204-1.022-0.234l-0.013-0.001h-17.364c-1.365 0.009-2.548 0.78-3.144 1.91l-0.009 0.020c-0.241 0.458-0.383 1-0.383 1.576 0 0.792 0.268 1.521 0.718 2.102l-0.006-0.008 25.176 34.164v36.47c0.026 1.939 1.591 3.503 3.527 3.529h18.826c1.939-0.026 3.503-1.591 3.529-3.527v-36.472l0.282-0.424 17.223 17.035c0.632 0.639 1.508 1.035 2.478 1.035 0.006 0 0.012 0 0.017 0h-0.001c0.011 0 0.023 0 0.036 0 0.963 0 1.834-0.396 2.457-1.035l0.001-0.001c0.638-0.638 1.032-1.52 1.032-2.494s-0.394-1.856-1.032-2.494v0zM46.588 36.753c-0.44 0.56-0.706 1.276-0.706 2.054 0 0.006 0 0.012 0 0.017v-0.001 34.117h-11.764v-34.117c0-0.005 0-0.011 0-0.017 0-0.778-0.266-1.494-0.711-2.061l0.006 0.007-21.646-29.693h8.564l27.811 27.529z"></path>
</svg>
