<!-- Generated by IcoMoon.io -->
<svg version="1.1" xmlns="http://www.w3.org/2000/svg" width="80" height="80" viewBox="0 0 80 80">
<title>flag</title>
<path d="M73.841 5.566c-0.535-0.374-1.2-0.597-1.917-0.597-0.443 0-0.866 0.085-1.253 0.24l0.023-0.008c-4.95 2.168-10.694 3.771-16.701 4.529l-0.31 0.032c-3.984-1.083-7.473-2.643-10.648-4.654l0.158 0.094c-3.929-2.458-8.52-4.299-13.429-5.25l-0.254-0.041c-8.396 0.76-16.136 2.536-23.437 5.22l0.633-0.204c-1.363 0.47-2.325 1.742-2.326 3.238v68.321c0 1.889 1.531 3.42 3.42 3.42s3.42-1.531 3.42-3.42v0-26.681c5.137-1.925 11.105-3.328 17.305-3.944l0.3-0.024c4.149 1.041 7.796 2.607 11.113 4.657l-0.167-0.096c3.698 2.298 7.999 4.079 12.585 5.102l0.277 0.052h1.049c7.139-0.92 13.619-2.73 19.675-5.335l-0.474 0.181c1.292-0.508 2.189-1.745 2.189-3.191 0-0 0-0.001 0-0.001v0-38.813c0.005-0.064 0.007-0.14 0.007-0.215 0-1.050-0.48-1.989-1.232-2.608l-0.006-0.005zM68.505 44.926c-4.319 1.843-9.329 3.192-14.565 3.806l-0.258 0.025c-3.984-1.083-7.473-2.643-10.648-4.654l0.158 0.094c-3.929-2.458-8.52-4.299-13.429-5.25l-0.254-0.041h-0.912c-6.357 0.585-12.209 1.876-17.762 3.807l0.522-0.158v-31.926c5.137-1.925 11.105-3.328 17.305-3.944l0.3-0.024c4.149 1.041 7.796 2.607 11.113 4.657l-0.167-0.096c3.698 2.298 7.999 4.079 12.585 5.102l0.277 0.052c5.671-0.229 11-1.431 15.91-3.443l-0.312 0.113z"></path>
</svg>
