<!-- Generated by IcoMoon.io -->
<svg version="1.1" xmlns="http://www.w3.org/2000/svg" width="80" height="80" viewBox="0 0 80 80">
<title>flag-fill</title>
<path d="M73.822 5.586c-0.535-0.374-1.199-0.597-1.916-0.597-0.442 0-0.865 0.085-1.252 0.24l0.023-0.008c-4.953 2.209-10.699 3.815-16.718 4.531l-0.285 0.028c-3.981-1.082-7.468-2.642-10.642-4.652l0.158 0.093c-3.925-2.465-8.515-4.306-13.424-5.248l-0.25-0.040c-5.88-0.547-19.874 4.057-22.791 5.014-1.362 0.47-2.324 1.741-2.325 3.236v68.282c0 1.888 1.531 3.419 3.419 3.419s3.419-1.531 3.419-3.419v0-26.711c5.136-1.886 11.104-3.256 17.299-3.852l0.296-0.023c4.146 1.035 7.792 2.601 11.105 4.653l-0.165-0.095c3.696 2.297 7.994 4.077 12.578 5.099l0.276 0.052h1.048c7.142-0.943 13.616-2.75 19.677-5.336l-0.487 0.185c1.284-0.519 2.175-1.749 2.188-3.189v-38.837c0.004-0.064 0.007-0.139 0.007-0.215 0-1.050-0.48-1.988-1.232-2.606l-0.006-0.005z"></path>
</svg>
