<!-- Generated by IcoMoon.io -->
<svg version="1.1" xmlns="http://www.w3.org/2000/svg" width="80" height="80" viewBox="0 0 80 80">
<title>folder</title>
<path d="M66.666 75.15h-53.332c-7.364 0-13.333-5.969-13.333-13.333v0-43.635c0-7.364 5.969-13.333 13.333-13.333v0h12.121c0.003 0 0.007 0 0.010 0 1.089 0 2.068 0.466 2.751 1.209l0.003 0.003 13.43 15.709h25.017c0 0 0 0 0 0 7.364 0 13.333 5.969 13.333 13.333 0 0.017 0 0.034-0 0.051v-0.003 26.666c0 7.364-5.969 13.333-13.333 13.333v0zM13.334 12.122c-3.347 0-6.060 2.713-6.060 6.060v0 43.635c0 3.347 2.713 6.060 6.060 6.060v0h53.332c3.347 0 6.060-2.713 6.060-6.060v0-26.666c0-3.347-2.713-6.060-6.060-6.060v0h-26.666c-1.099-0.010-2.084-0.494-2.76-1.257l-0.003-0.004-13.43-15.709z"></path>
</svg>
