<!-- Generated by IcoMoon.io -->
<svg version="1.1" xmlns="http://www.w3.org/2000/svg" width="80" height="80" viewBox="0 0 80 80">
<title>folder-open</title>
<path d="M6.466 68.125h-6.49v-47.597c-0.001-0.052-0.001-0.113-0.001-0.174 0-6.431 5.177-11.653 11.591-11.725l0.007-0h10.428c0.021-0 0.046-0.001 0.071-0.001 0.966 0 1.835 0.416 2.436 1.080l0.002 0.003 11.553 13.976h21.246c0.014-0 0.030-0 0.046-0 6.476 0 11.726 5.25 11.726 11.726 0 0.091-0.001 0.182-0.003 0.273l0-0.014v2.163h-6.49v-2.163c0.001-0.039 0.002-0.084 0.002-0.13 0-2.915-2.363-5.279-5.279-5.279-0.001 0-0.001 0-0.002 0h-22.803c-0.991-0.002-1.876-0.454-2.462-1.163l-0.004-0.005-11.553-13.976h-8.914c-2.841 0.095-5.107 2.421-5.107 5.276 0 0.047 0.001 0.093 0.002 0.139l-0-0.007z"></path>
<path d="M62.154 71.371h-58.934c-1.165-0.010-2.184-0.624-2.761-1.544l-0.008-0.014c-0.266-0.46-0.422-1.012-0.422-1.601s0.157-1.141 0.431-1.617l-0.008 0.016 14.625-28.125c0.574-1.033 1.655-1.722 2.898-1.731h58.805c1.165 0.010 2.184 0.624 2.761 1.544l0.008 0.014c0.266 0.46 0.422 1.012 0.422 1.601s-0.157 1.141-0.431 1.617l0.008-0.016-14.625 28.125c-0.552 0.997-1.576 1.674-2.762 1.731l-0.008 0zM8.543 64.88h51.664l11.25-21.635h-51.664z"></path>
</svg>
