<!-- Generated by IcoMoon.io -->
<svg version="1.1" xmlns="http://www.w3.org/2000/svg" width="80" height="80" viewBox="0 0 80 80">
<title>forward</title>
<path d="M78.902 37.486l-34.148-31.999c-1.006-0.914-2.469-1.189-3.703-0.64s-2.057 1.783-2.057 3.154v28.662l-33.233-31.176c-1.006-0.914-2.469-1.189-3.703-0.64s-2.057 1.783-2.057 3.154v63.998c0 1.371 0.823 2.606 2.057 3.154 0.457 0.183 0.914 0.274 1.371 0.274 0.869 0 1.691-0.32 2.331-0.914l33.233-31.176v28.662c0 1.371 0.823 2.606 2.057 3.154 0.457 0.183 0.914 0.274 1.371 0.274 0.869 0 1.691-0.32 2.331-0.914l34.148-31.999c0.686-0.64 1.097-1.554 1.097-2.514s-0.411-1.874-1.097-2.514zM6.858 64.091v-48.182l25.691 24.091-25.691 24.091zM45.851 64.091v-48.182l25.691 24.091-25.691 24.091z"></path>
</svg>
