<!-- Generated by IcoMoon.io -->
<svg version="1.1" xmlns="http://www.w3.org/2000/svg" width="80" height="80" viewBox="0 0 80 80">
<title>gift</title>
<path d="M74.284 20.573h-6.4c1.829-2.194 2.971-4.937 2.971-8 0-6.948-5.623-12.571-12.571-12.571-7.68 0-14.445 4.068-18.285 10.102-3.84-6.034-10.605-10.102-18.285-10.102-6.948 0-12.571 5.623-12.571 12.571 0 3.063 1.143 5.805 2.971 8h-6.4c-3.154 0-5.714 2.56-5.714 5.714v11.428c0 2.743 1.966 4.937 4.571 5.485v31.084c0 3.154 2.56 5.714 5.714 5.714h59.425c3.154 0 5.714-2.56 5.714-5.714v-31.084c2.606-0.549 4.571-2.743 4.571-5.485v-11.428c0-3.154-2.56-5.714-5.714-5.714zM73.141 36.572h-29.713v-9.142h29.713v9.142zM58.285 6.859c3.154 0 5.714 2.56 5.714 5.714s-2.56 5.714-5.714 5.714h-14.445c1.554-6.537 7.451-11.428 14.445-11.428zM21.715 6.859c6.994 0 12.891 4.891 14.445 11.428h-14.445c-3.154 0-5.714-2.56-5.714-5.714s2.56-5.714 5.714-5.714zM6.859 27.429h29.713v9.142h-29.713v-9.142zM11.43 43.428h25.141v29.713h-25.141v-29.713zM68.57 73.141h-25.141v-29.713h25.141v29.713z"></path>
</svg>
