<!-- Generated by IcoMoon.io -->
<svg version="1.1" xmlns="http://www.w3.org/2000/svg" width="80" height="80" viewBox="0 0 80 80">
<title>github</title>
<path d="M26.761 64.38c0 0.35-0.35 0.6-0.849 0.6s-0.899 0-0.899-0.6 0.4-0.6 0.849-0.6 0.899 0.25 0.899 0.6zM21.765 63.631c0 0.35 0 0.749 0.699 0.849 0.095 0.047 0.206 0.074 0.324 0.074 0.295 0 0.551-0.171 0.673-0.419l0.002-0.004c0-0.35 0-0.699-0.699-0.849s-0.899 0-0.999 0.35zM28.859 63.381c-0.45 0-0.749 0.4-0.699 0.799s0.45 0.55 0.949 0.45 0.749-0.45 0.699-0.799-0.45-0.5-0.949-0.45zM39.5 0.033c-0.109-0.001-0.239-0.002-0.368-0.002-21.604 0-39.118 17.514-39.118 39.118 0 0.422 0.007 0.843 0.020 1.262l-0.001-0.061c-0.003 0.199-0.005 0.434-0.005 0.669 0 17.821 11.256 33.014 27.046 38.855l0.287 0.093c2.048 0.35 2.798-0.949 2.798-1.998s0-6.695 0-9.992c0 0-11.291 2.498-13.689-4.996 0 0-1.799-4.996-4.446-6.045 0 0-3.697-2.598 0.25-2.548 2.682 0.372 4.926 1.972 6.173 4.204l0.022 0.042c1.428 2.756 4.258 4.606 7.521 4.606 1.574 0 3.047-0.431 4.308-1.18l-0.039 0.021c0.202-2.172 1.136-4.094 2.55-5.548l-0.002 0.002c-8.993-1.049-18.085-2.348-18.085-18.285-0.011-0.201-0.018-0.436-0.018-0.672 0-3.553 1.46-6.764 3.813-9.068l0.002-0.002c-0.519-1.51-0.819-3.249-0.819-5.059 0-2.212 0.448-4.32 1.258-6.237l-0.039 0.105c3.397-1.099 11.141 4.446 11.141 4.446 3.032-0.888 6.515-1.399 10.117-1.399s7.085 0.511 10.38 1.465l-0.263-0.065s7.744-5.545 11.141-4.446c0.785 1.805 1.242 3.909 1.242 6.118 0 1.816-0.309 3.56-0.876 5.182l0.034-0.11c2.555 2.387 4.148 5.776 4.148 9.538 0 0.072-0.001 0.143-0.002 0.215l0-0.011c0 15.987-9.492 17.236-18.485 18.285 1.573 1.758 2.534 4.091 2.534 6.649 0 0.297-0.013 0.592-0.038 0.882l0.003-0.038c0 5.595 0 12.49 0 13.839-0 0.006-0 0.013-0 0.020 0 1.159 0.939 2.098 2.098 2.098 0.251 0 0.491-0.044 0.714-0.125l-0.015 0.005c15.986-5.861 27.187-20.948 27.187-38.65 0-0.305-0.003-0.61-0.010-0.913l0.001 0.045c0.001-0.105 0.001-0.229 0.001-0.353 0-22.073-17.894-39.968-39.968-39.968-0.176 0-0.352 0.001-0.528 0.003l0.027-0zM15.72 57.036s0 0.55 0 0.849c0.109 0.109 0.259 0.176 0.425 0.176s0.316-0.067 0.425-0.176v0s0-0.55 0-0.899-0.65-0.15-0.849 0.050zM13.971 55.687s0 0.5 0.35 0.65c0.083 0.102 0.209 0.167 0.35 0.167s0.267-0.065 0.349-0.166l0.001-0.001s0-0.5-0.35-0.65-0.6-0.15-0.699 0zM18.967 61.582s0 0.699 0 1.049 0.849 0.4 1.049 0 0-0.699 0-1.049-0.65-0.25-0.849 0zM17.119 59.134s0 0.6 0 0.999 0.699 0.55 0.949 0.4c0.122-0.14 0.196-0.323 0.196-0.525s-0.074-0.385-0.197-0.526l0.001 0.001c-0.25-0.4-0.65-0.55-0.949-0.35z"></path>
</svg>
