<!-- Generated by IcoMoon.io -->
<svg version="1.1" xmlns="http://www.w3.org/2000/svg" width="80" height="80" viewBox="0 0 80 80">
<title>globe</title>
<path d="M40 0c-22.091 0-40 17.909-40 40s17.909 40 40 40c22.091 0 40-17.909 40-40v0c0-22.091-17.909-40-40-40v0zM73.156 36.667h-12.267c-1.665-11.201-6.327-21.094-13.135-29.105l0.068 0.082c13.627 3.401 23.819 14.839 25.321 28.875l0.013 0.147zM25.822 43.333h28.356c-2.192 10.991-7.193 20.57-14.219 28.268l0.041-0.046c-6.985-7.652-11.985-17.231-14.115-27.848l-0.063-0.374zM25.822 36.667c2.193-10.991 7.193-20.57 14.219-28.268l-0.041 0.046c6.985 7.652 11.985 17.231 14.115 27.848l0.063 0.374zM32.178 7.644c-6.74 7.929-11.402 17.821-13.028 28.705l-0.039 0.317h-12.267c1.515-14.183 11.707-25.621 25.103-28.973l0.23-0.049zM6.844 43.2h12.267c1.665 11.201 6.327 21.094 13.135 29.105l-0.068-0.083c-13.589-3.386-23.764-14.761-25.32-28.738l-0.014-0.151zM47.822 72.222c6.74-7.929 11.402-17.821 13.028-28.705l0.039-0.317h12.267c-1.46 14.239-11.669 25.738-25.103 29.107l-0.23 0.049z"></path>
</svg>
