<!-- Generated by IcoMoon.io -->
<svg version="1.1" xmlns="http://www.w3.org/2000/svg" width="80" height="80" viewBox="0 0 80 80">
<title>google</title>
<path d="M78.796 33.851l-0.45-1.75h-37.196v15.799h22.248c-2.553 9.679-11.229 16.7-21.545 16.7-0.089 0-0.178-0-0.266-0.001l0.013 0c-6.771-0.058-12.916-2.69-17.514-6.964l0.016 0.015c-4.564-4.5-7.405-10.738-7.449-17.64v-0.008c0.081-6.876 2.851-13.090 7.304-17.653l-0.005 0.005c4.47-4.242 10.526-6.85 17.192-6.85 0.073 0 0.145 0 0.218 0.001l-0.011-0c5.777 0.046 11.034 2.238 15.020 5.818l-0.021-0.019 10.999-11.299c-6.932-6.206-16.137-9.999-26.227-9.999-0.042 0-0.084 0-0.127 0h0.007c-0.072-0-0.157-0.001-0.242-0.001-11.153 0-21.258 4.487-28.609 11.753l0.004-0.004c-7.050 7.315-11.393 17.28-11.393 28.26 0 10.75 4.163 20.527 10.964 27.808l-0.022-0.024c7.567 7.54 18.006 12.201 29.534 12.201 0.163 0 0.325-0.001 0.487-0.003l-0.025 0c0.082 0.001 0.179 0.001 0.277 0.001 10.503 0 19.99-4.347 26.761-11.34l0.010-0.010c6.454-7.077 10.407-16.532 10.407-26.91 0-0.277-0.003-0.553-0.008-0.828l0.001 0.041c0.008-0.335 0.013-0.729 0.013-1.124 0-2.106-0.132-4.181-0.388-6.218l0.025 0.243z"></path>
</svg>
