<!-- Generated by IcoMoon.io -->
<svg version="1.1" xmlns="http://www.w3.org/2000/svg" width="80" height="80" viewBox="0 0 80 80">
<title>hashtag</title>
<path d="M76.922 20.514h-12.307l3.159-12.594c0.057-0.222 0.090-0.476 0.090-0.738 0-1.704-1.381-3.085-3.085-3.085-1.441 0-2.652 0.989-2.99 2.325l-0.005 0.021-3.528 14.071h-26.461l3.159-12.594c0.057-0.222 0.090-0.476 0.090-0.738 0-1.704-1.381-3.085-3.085-3.085-1.441 0-2.652 0.989-2.99 2.325l-0.005 0.021-3.692 14.071h-13.989c-1.699 0-3.077 1.378-3.077 3.077s1.378 3.077 3.077 3.077v0h12.307l-6.687 26.666h-13.825c-1.699 0-3.077 1.378-3.077 3.077s1.378 3.077 3.077 3.077v0h12.307l-3.159 12.594c-0.057 0.222-0.090 0.476-0.090 0.738 0 1.704 1.381 3.085 3.085 3.085 1.441 0 2.652-0.989 2.99-2.325l0.005-0.021 3.528-14.071h26.461l-3.159 12.594c-0.057 0.222-0.090 0.476-0.090 0.738 0 1.704 1.381 3.085 3.085 3.085 1.441 0 2.652-0.989 2.99-2.325l0.005-0.021 3.528-14.071h14.153c1.699 0 3.077-1.378 3.077-3.077s-1.378-3.077-3.077-3.077v0h-12.307l6.687-26.666h13.825c1.699 0 3.077-1.378 3.077-3.077s-1.378-3.077-3.077-3.077v0zM56.41 26.667l-6.687 26.666h-26.132l6.687-26.666z"></path>
</svg>
