<!-- Generated by IcoMoon.io -->
<svg version="1.1" xmlns="http://www.w3.org/2000/svg" width="80" height="80" viewBox="0 0 80 80">
<title>heart-fill</title>
<path d="M73.459 11.171v0c-4.089-4.133-9.762-6.692-16.032-6.692-0.020 0-0.039 0-0.059 0h0.003c-0.017 0-0.036-0-0.056-0-6.27 0-11.943 2.559-16.030 6.69l-0.002 0.002-1.283 1.329-1.283-1.283c-4.106-4.105-9.777-6.644-16.042-6.644s-11.936 2.539-16.042 6.644v0c-4.051 4.13-6.551 9.794-6.551 16.042s2.5 11.912 6.555 16.045l-0.004-0.004 31.029 31.121c0.622 0.621 1.481 1.005 2.429 1.005s1.807-0.384 2.429-1.005v0l31.029-31.121c4.037-4.128 6.528-9.782 6.528-16.018 0-6.282-2.528-11.974-6.621-16.113l0.002 0.002z"></path>
</svg>
