<!-- Generated by IcoMoon.io -->
<svg version="1.1" xmlns="http://www.w3.org/2000/svg" width="80" height="80" viewBox="0 0 80 80">
<title>heart</title>
<path d="M40 75.511c-0.949-0.001-1.807-0.386-2.428-1.008v0l-31.021-31.112c-4.050-4.129-6.549-9.791-6.549-16.037s2.499-11.908 6.553-16.041l-0.004 0.004c4.104-4.104 9.774-6.642 16.037-6.642s11.933 2.538 16.037 6.642v0l1.375 1.191 1.283-1.283c4.088-4.131 9.759-6.69 16.027-6.69 0.020 0 0.039 0 0.059 0h-0.003c0.030-0 0.066-0 0.101-0 6.246 0 11.898 2.54 15.981 6.643l0.001 0.001c4.050 4.129 6.549 9.791 6.549 16.037s-2.499 11.908-6.553 16.041l0.004-0.004-31.021 31.112c-0.603 0.673-1.461 1.106-2.422 1.145l-0.007 0zM22.634 11.362c-0.034-0-0.074-0-0.115-0-4.336 0-8.262 1.75-11.112 4.583l0.001-0.001c-2.87 2.883-4.644 6.859-4.644 11.249s1.774 8.366 4.645 11.25l-0.001-0.001 28.592 28.775 28.546-28.684c2.881-2.878 4.663-6.855 4.663-11.249s-1.782-8.371-4.663-11.249l-0-0c-2.821-2.831-6.724-4.583-11.036-4.583-0.051 0-0.102 0-0.152 0.001l0.008-0c-0.034-0-0.074-0-0.115-0-4.336 0-8.262 1.75-11.112 4.583l-3.711 3.711c-0.631 0.6-1.487 0.969-2.428 0.969s-1.797-0.369-2.43-0.97l0.001 0.001-3.711-3.711c-2.858-2.886-6.821-4.674-11.202-4.674-0.008 0-0.017 0-0.025 0h0.001z"></path>
</svg>
