<!-- Generated by IcoMoon.io -->
<svg version="1.1" xmlns="http://www.w3.org/2000/svg" width="80" height="80" viewBox="0 0 80 80">
<title>history</title>
<path d="M68.465 12.146c-7.137-7.108-16.982-11.503-27.854-11.503s-20.716 4.394-27.855 11.504l-5.692 5.692v-13.691c0-1.949-1.58-3.529-3.529-3.529s-3.529 1.58-3.529 3.529v0 22.302c0 0 0 0 0 0 0 1.958 1.574 3.549 3.526 3.575h22.351c1.949 0 3.529-1.58 3.529-3.529s-1.58-3.529-3.529-3.529v0h-14.115l5.975-5.834c5.856-5.844 13.939-9.458 22.866-9.458s17.011 3.614 22.867 9.459l-0.001-0.001c29.124 31.476-14.115 74.856-45.732 45.732-0.638-0.638-1.52-1.032-2.494-1.032s-1.855 0.394-2.494 1.032v0c-0.649 0.633-1.052 1.516-1.052 2.494s0.403 1.861 1.051 2.493l0.001 0.001c7.128 7.128 16.976 11.537 27.854 11.537 21.755 0 39.391-17.636 39.391-39.391 0-10.877-4.409-20.725-11.537-27.854v0z"></path>
<path d="M40 20.004c-1.938 0.026-3.503 1.59-3.529 3.526v16.47c0.001 0.974 0.396 1.856 1.035 2.494v0l11.904 11.621c0.632 0.639 1.508 1.035 2.477 1.035 0.006 0 0.012 0 0.017 0h-0.001c1.718-0.257 3.020-1.723 3.020-3.492 0-0.857-0.305-1.643-0.814-2.254l0.005 0.006-10.727-10.727v-15.15c-0.023-1.891-1.51-3.427-3.379-3.528l-0.009-0z"></path>
</svg>
