<!-- Generated by IcoMoon.io -->
<svg version="1.1" xmlns="http://www.w3.org/2000/svg" width="80" height="80" viewBox="0 0 80 80">
<title>home</title>
<path d="M76.618 38.856c-0.005 0-0.010 0-0.015 0-0.772 0-1.483-0.258-2.053-0.693l0.008 0.006-34.559-25.907-34.559 25.907c-0.567 0.429-1.283 0.687-2.060 0.687-1.896 0-3.433-1.537-3.433-3.433 0-1.119 0.536-2.113 1.365-2.74l0.009-0.006 36.618-27.464c0.567-0.429 1.283-0.687 2.060-0.687s1.493 0.258 2.068 0.693l-0.009-0.006 36.618 27.464c0.777 0.634 1.269 1.592 1.269 2.665 0 0.713-0.217 1.376-0.59 1.925l0.008-0.012c-0.584 0.932-1.588 1.555-2.74 1.602l-0.007 0z"></path>
<path d="M67.464 75.474h-54.927c-1.886-0.025-3.408-1.547-3.433-3.43v-43.487c0-1.896 1.537-3.433 3.433-3.433s3.433 1.537 3.433 3.433v0 40.051h48.061v-40.051c0-1.896 1.537-3.433 3.433-3.433s3.433 1.537 3.433 3.433v0 43.484c-0.025 1.886-1.547 3.408-3.43 3.433h-0.003z"></path>
<path d="M49.155 75.474c-1.886-0.025-3.408-1.547-3.433-3.43v-28.611h-11.443v28.608c0 1.896-1.537 3.433-3.433 3.433s-3.433-1.537-3.433-3.433v0-32.041c0.025-1.886 1.547-3.408 3.43-3.433h18.312c1.886 0.025 3.408 1.547 3.433 3.43v32.044c-0.025 1.886-1.547 3.408-3.43 3.433h-0.002z"></path>
</svg>
