<!-- Generated by IcoMoon.io -->
<svg version="1.1" xmlns="http://www.w3.org/2000/svg" width="80" height="80" viewBox="0 0 80 80">
<title>hourglass</title>
<path d="M68.571 73.142h-3.017c-1.737-6.217-7.086-21.668-20.114-33.142 13.028-11.474 18.377-26.925 20.114-33.142h3.017c1.874 0 3.429-1.554 3.429-3.429s-1.554-3.429-3.429-3.429h-57.142c-1.874 0-3.429 1.554-3.429 3.429s1.554 3.429 3.429 3.429h3.017c1.737 6.217 7.086 21.668 20.114 33.142-13.028 11.474-18.377 26.925-20.114 33.142h-3.017c-1.874 0-3.429 1.554-3.429 3.429s1.554 3.429 3.429 3.429h57.142c1.874 0 3.429-1.554 3.429-3.429s-1.554-3.429-3.429-3.429zM21.623 6.858h36.708c-2.057 6.491-7.314 19.428-18.377 28.708-11.063-9.325-16.32-22.217-18.377-28.708zM40 44.434c11.063 9.325 16.32 22.217 18.377 28.708h-36.753c2.057-6.491 7.314-19.428 18.377-28.708z"></path>
</svg>
