<!-- Generated by IcoMoon.io -->
<svg version="1.1" xmlns="http://www.w3.org/2000/svg" width="80" height="80" viewBox="0 0 80 80">
<title>id-card</title>
<path d="M71.999 70.856h-63.998c-4.408-0.026-7.974-3.592-8-7.997v-45.715c0.026-4.408 3.592-7.974 7.997-8h64.001c4.408 0.026 7.974 3.592 8 7.997v45.715c-0.026 4.408-3.592 7.974-7.997 8h-0.003zM8.001 16.001c-0.631 0-1.143 0.512-1.143 1.143v0 45.713c0 0.631 0.512 1.143 1.143 1.143v0h63.998c0.631 0 1.143-0.512 1.143-1.143v0-45.713c0-0.631-0.512-1.143-1.143-1.143v0z"></path>
<path d="M26.286 38.857c-5.049 0-9.143-4.093-9.143-9.143s4.093-9.143 9.143-9.143c5.049 0 9.143 4.093 9.143 9.143v0c0 5.049-4.093 9.143-9.143 9.143v0zM26.286 27.429c-1.262 0-2.286 1.023-2.286 2.286s1.023 2.286 2.286 2.286c1.262 0 2.286-1.023 2.286-2.286v0c0-1.262-1.023-2.286-2.286-2.286v0z"></path>
<path d="M40 57.142c-1.883-0.025-3.403-1.545-3.428-3.426v-0.002c0-3.108-0.777-5.714-10.285-5.714s-10.285 2.606-10.285 5.714c0 1.894-1.535 3.428-3.428 3.428s-3.428-1.535-3.428-3.428v0c0-12.571 12.891-12.571 17.142-12.571s17.142 0 17.142 12.571c-0.025 1.883-1.545 3.403-3.426 3.428h-0.002z"></path>
<path d="M62.856 34.286h-13.714c-1.894 0-3.428-1.535-3.428-3.428s1.535-3.428 3.428-3.428v0h13.714c1.894 0 3.428 1.535 3.428 3.428s-1.535 3.428-3.428 3.428v0z"></path>
<path d="M58.285 48h-9.143c-1.894 0-3.428-1.535-3.428-3.428s1.535-3.428 3.428-3.428v0h9.143c1.894 0 3.428 1.535 3.428 3.428s-1.535 3.428-3.428 3.428v0z"></path>
</svg>
