<!-- Generated by IcoMoon.io -->
<svg version="1.1" xmlns="http://www.w3.org/2000/svg" width="80" height="80" viewBox="0 0 80 80">
<title>images</title>
<path d="M68.107 4.326h-43.241c-6.567 0-11.891 5.324-11.891 11.891v0 1.081h-1.081c-6.567 0-11.891 5.324-11.891 11.891v0 34.593c0 6.567 5.324 11.891 11.891 11.891v0h43.241c6.567 0 11.891-5.324 11.891-11.891v0-1.081h1.081c6.567 0 11.891-5.324 11.891-11.891v0-34.593c0-6.567-5.324-11.891-11.891-11.891v0zM19.46 16.217c0-2.985 2.42-5.405 5.405-5.405v0h43.241c2.985 0 5.405 2.42 5.405 5.405v0 26.81l-9.816-8.259c-0.559-0.488-1.294-0.785-2.099-0.785-0.976 0-1.85 0.437-2.437 1.126l-0.004 0.005-4.627 5.448-17.297-16.778c-0.544-0.646-1.346-1.059-2.245-1.081l-0.004-0c-0.935 0.036-1.763 0.463-2.332 1.12l-0.003 0.004-13.189 15.697zM24.866 56.216c-2.985 0-5.405-2.42-5.405-5.405v0-1.297l15.87-18.68 14.962 14.659-9.081 10.724zM60.54 63.783c0 2.985-2.42 5.405-5.405 5.405v0h-43.241c-2.985 0-5.405-2.42-5.405-5.405v0-34.593c0-2.985 2.42-5.405 5.405-5.405v0h1.081v27.026c0 6.567 5.324 11.891 11.891 11.891v0h35.674zM68.107 56.216h-18.378l12.281-14.443 11.372 9.643c-0.272 2.699-2.528 4.79-5.275 4.8h-0.001z"></path>
</svg>
