<!-- Generated by IcoMoon.io -->
<svg version="1.1" xmlns="http://www.w3.org/2000/svg" width="80" height="80" viewBox="0 0 80 80">
<title>inbox</title>
<path d="M67.419 76.559h-54.838c-6.941 0-12.567-5.626-12.567-12.567v0-27.419c0-1.893 1.535-3.427 3.427-3.427s3.427 1.535 3.427 3.427v0 27.419c-0.001 0.041-0.002 0.089-0.002 0.137 0 3.155 2.557 5.712 5.712 5.712 0.001 0 0.001 0 0.002 0h54.838c3.155 0 5.712-2.557 5.712-5.712v0-27.419c0-1.893 1.535-3.427 3.427-3.427s3.427 1.535 3.427 3.427v0 27.419c-0.077 6.881-5.674 12.43-12.566 12.43-0 0-0.001 0-0.001 0h0z"></path>
<path d="M40 54.852c-0.003 0-0.007 0-0.010 0-8.65 0-15.799-6.425-16.934-14.764l-0.010-0.089h-19.605c-0.008 0-0.016 0-0.025 0-1.893 0-3.427-1.535-3.427-3.427 0-0.678 0.197-1.31 0.536-1.842l-0.008 0.014 17.046-27.419c1.356-2.341 3.85-3.89 6.705-3.89 0.101 0 0.202 0.002 0.302 0.006l-0.014-0h30.892c3.155 0.009 5.877 1.854 7.154 4.522l0.021 0.048 16.863 27.145c0.195 0.417 0.309 0.907 0.309 1.422 0 1.825-1.426 3.316-3.224 3.421l-0.009 0h-19.605c-1.145 8.427-8.294 14.852-16.944 14.852-0.004 0-0.007 0-0.011 0h0.001zM9.61 33.282h16.68c1.893 0 3.427 1.535 3.427 3.427v0 1.005c0 5.679 4.604 10.282 10.282 10.282s10.282-4.604 10.282-10.282v0-1.005c0-1.893 1.535-3.427 3.427-3.427v0h16.68l-13.71-22.21c-0.366-0.64-0.731-0.914-1.188-0.914h-30.938c-0.452 0.012-0.842 0.264-1.048 0.634l-0.003 0.006z"></path>
</svg>
