<!-- Generated by IcoMoon.io -->
<svg version="1.1" xmlns="http://www.w3.org/2000/svg" width="80" height="80" viewBox="0 0 80 80">
<title>instagram</title>
<path d="M40 19.482c-11.332 0-20.518 9.186-20.518 20.518s9.186 20.518 20.518 20.518c11.332 0 20.518-9.186 20.518-20.518v0c0-0.015 0-0.032 0-0.050 0-11.304-9.164-20.468-20.468-20.468-0.018 0-0.035 0-0.053 0h0.003zM40 53.362c-7.38 0-13.362-5.982-13.362-13.362s5.982-13.362 13.362-13.362c7.38 0 13.362 5.982 13.362 13.362v0c0 7.38-5.982 13.362-13.362 13.362v0zM66.173 18.631c0 2.764-2.241 5.005-5.005 5.005s-5.005-2.241-5.005-5.005c0-2.764 2.241-5.005 5.005-5.005v0c2.764 0 5.005 2.241 5.005 5.005v0zM79.736 23.635c0.004-0.164 0.006-0.358 0.006-0.551 0-6.286-2.461-11.998-6.472-16.224l0.010 0.010c-4.234-4.089-10.006-6.609-16.367-6.609-0.14 0-0.279 0.001-0.419 0.004l0.021-0c-6.506-0.3-26.524-0.3-33.030 0-0.153-0.004-0.332-0.006-0.512-0.006-6.299 0-12.023 2.46-16.264 6.472l0.011-0.010c-4.001 4.216-6.462 9.927-6.462 16.214 0 0.194 0.002 0.387 0.007 0.58l-0.001-0.029c-0.3 6.506-0.3 26.524 0 33.030-0.004 0.164-0.006 0.358-0.006 0.551 0 6.286 2.461 11.998 6.472 16.224l-0.010-0.010c4.23 4.001 9.954 6.461 16.253 6.461 0.18 0 0.36-0.002 0.539-0.006l-0.027 0c6.606 0.4 26.424 0.4 33.030 0 0.164 0.004 0.358 0.006 0.551 0.006 6.286 0 11.998-2.461 16.224-6.472l-0.010 0.010c4.001-4.216 6.462-9.927 6.462-16.214 0-0.194-0.002-0.387-0.007-0.58l0.001 0.029c0.3-6.506 0.3-26.524 0-33.030zM71.228 63.671c-1.404 3.49-4.117 6.203-7.516 7.575l-0.091 0.032c-5.367 1.136-11.533 1.786-17.851 1.786-2.030 0-4.045-0.067-6.041-0.199l0.271 0.014c-1.724 0.118-3.735 0.185-5.763 0.185-6.303 0-12.454-0.651-18.39-1.888l0.582 0.102c-3.49-1.404-6.203-4.117-7.575-7.516l-0.032-0.091c-2.102-5.305-1.651-17.816-1.651-23.621s-0.45-18.366 1.651-23.621c1.366-3.527 4.091-6.269 7.517-7.626l0.090-0.031c5.354-1.136 11.505-1.787 17.808-1.787 2.028 0 4.040 0.067 6.034 0.2l-0.271-0.014c1.725-0.118 3.74-0.185 5.77-0.185 6.318 0 12.484 0.65 18.435 1.888l-0.584-0.102c3.49 1.404 6.203 4.117 7.575 7.516l0.032 0.091c2.102 5.305 1.601 17.816 1.601 23.621s0.5 18.366-1.601 23.621z"></path>
</svg>
