<!-- Generated by IcoMoon.io -->
<svg version="1.1" xmlns="http://www.w3.org/2000/svg" width="80" height="80" viewBox="0 0 80 80">
<title>key</title>
<path d="M53.682 52.542c-0.017 0-0.037 0-0.057 0-7.226 0-13.769-2.928-18.506-7.662l0 0c-4.789-4.767-7.753-11.364-7.753-18.654 0-14.534 11.782-26.316 26.316-26.316s26.316 11.782 26.316 26.316c0 14.534-11.782 26.316-26.316 26.316v0zM53.682 6.934c-10.685 0.027-19.336 8.695-19.336 19.383 0 5.341 2.16 10.177 5.654 13.683l-0.001-0.001c3.51 3.522 8.365 5.701 13.73 5.701 10.705 0 19.383-8.678 19.383-19.383s-8.678-19.383-19.383-19.383c-0.017 0-0.033 0-0.050 0h0.003z"></path>
<path d="M5.794 77.626c-0.913-0.072-1.714-0.497-2.277-1.136l-0.003-0.004c-0.541-0.602-0.871-1.403-0.871-2.28s0.331-1.678 0.874-2.284l-0.003 0.003 29.463-29.508c0.62-0.615 1.474-0.995 2.417-0.995 1.897 0 3.435 1.538 3.435 3.435 0 0.954-0.389 1.817-1.017 2.44l-0 0-29.736 29.189c-0.566 0.644-1.368 1.068-2.269 1.139l-0.012 0.001z"></path>
<path d="M21.757 79.907c-0.005 0-0.010 0-0.016 0-0.939 0-1.789-0.384-2.401-1.003l-9.122-9.122c-0.569-0.609-0.918-1.43-0.918-2.332 0-1.889 1.531-3.421 3.421-3.421 0.902 0 1.723 0.349 2.334 0.92l-0.002-0.002 9.121 9.121c0.618 0.619 1 1.473 1 2.417s-0.382 1.798-1 2.417v0c-0.612 0.62-1.462 1.003-2.401 1.003-0.006 0-0.011 0-0.017 0h0.001z"></path>
<path d="M30.879 70.785c-0.005 0-0.010 0-0.016 0-0.939 0-1.789-0.384-2.401-1.003l-9.122-9.122c-0.671-0.626-1.089-1.516-1.089-2.503 0-1.889 1.531-3.421 3.421-3.421 0.987 0 1.876 0.418 2.501 1.087l0.002 0.002 9.121 9.121c0.618 0.619 1 1.473 1 2.417s-0.382 1.798-1 2.417v0c-0.612 0.62-1.462 1.003-2.401 1.003-0.006 0-0.011 0-0.017 0h0.001z"></path>
</svg>
