<!-- Generated by IcoMoon.io -->
<svg version="1.1" xmlns="http://www.w3.org/2000/svg" width="80" height="80" viewBox="0 0 80 80">
<title>language</title>
<path d="M79.802 74.189l-13.87-38.781c-0.974-2.551-3.154-4.129-5.659-4.129s-4.639 1.577-5.706 4.221l-13.824 38.689c-0.649 1.809 0.278 3.804 2.087 4.453s3.804-0.278 4.453-2.088l2.876-8.025h20.179l2.876 8.025c0.51 1.438 1.856 2.319 3.294 2.319 0.371 0 0.789-0.046 1.16-0.186 1.809-0.649 2.737-2.644 2.088-4.453zM52.711 61.525l7.608-21.293 7.608 21.293h-15.216zM40.881 20.748c-10.484 16.561-19.947 26.581-31.452 33.261-0.557 0.325-1.16 0.464-1.716 0.464-1.206 0-2.366-0.603-3.015-1.716-0.974-1.67-0.418-3.804 1.252-4.732 9.742-5.659 17.721-13.778 26.674-27.23h-29.179c-1.902 0-3.479-1.577-3.479-3.479s1.577-3.479 3.479-3.479h17.396v-9.185c0-1.902 1.577-3.479 3.479-3.479s3.479 1.577 3.479 3.479v9.185h17.396c1.902 0 3.479 1.577 3.479 3.479s-1.577 3.479-3.479 3.479h-4.361zM41.067 54.473c-0.603 0-1.206-0.139-1.763-0.464-3.015-1.763-5.938-3.711-8.675-5.752-1.531-1.16-1.856-3.34-0.696-4.871s3.34-1.856 4.871-0.696c2.505 1.902 5.242 3.665 8.025 5.288 1.67 0.974 2.227 3.108 1.252 4.778-0.649 1.113-1.809 1.716-3.015 1.716z"></path>
</svg>
