<!-- Generated by IcoMoon.io -->
<svg version="1.1" xmlns="http://www.w3.org/2000/svg" width="80" height="80" viewBox="0 0 80 80">
<title>link</title>
<path d="M18.195 68.571c-0.018 0-0.039 0-0.060 0-5.023 0-9.573-2.025-12.878-5.304l0.001 0.001c-3.255-3.453-5.256-8.119-5.256-13.253 0-5.477 2.277-10.422 5.936-13.94l0.006-0.006 17.188-17.326c3.612-3.725 8.631-6.069 14.198-6.171l0.019-0c5.069 0.035 9.643 2.127 12.934 5.483l0.003 0.003c3.302 3.475 5.332 8.186 5.332 13.37 0 5.526-2.307 10.513-6.011 14.051l-0.007 0.007-5.76 5.76c-0.628 0.672-1.519 1.091-2.508 1.091-1.893 0-3.429-1.535-3.429-3.429 0-0.989 0.419-1.881 1.089-2.507l0.002-0.002 5.577-5.943c2.428-2.282 3.94-5.515 3.94-9.1 0-3.266-1.254-6.238-3.307-8.462l0.008 0.009c-2.213-1.937-5.13-3.119-8.322-3.119-3.544 0-6.748 1.456-9.047 3.802l-0.002 0.002-17.051 17.28c-2.392 2.285-3.879 5.5-3.879 9.062 0 3.216 1.212 6.148 3.204 8.366l-0.010-0.012c2.063 2.040 4.901 3.3 8.033 3.3 0.391 0 0.777-0.020 1.158-0.058l-0.048 0.004c0.1-0.011 0.216-0.017 0.334-0.017 1.761 0 3.208 1.346 3.368 3.066l0.001 0.013c0.011 0.101 0.017 0.219 0.017 0.338 0 1.771-1.342 3.228-3.065 3.409l-0.015 0.001z"></path>
<path d="M42.651 67.428c-5.069-0.035-9.643-2.127-12.934-5.483l-0.003-0.003c-3.302-3.475-5.333-8.186-5.333-13.37 0-5.526 2.307-10.513 6.011-14.051l0.007-0.007 5.76-5.76c0.628-0.672 1.519-1.091 2.508-1.091 1.893 0 3.429 1.535 3.429 3.429 0 0.989-0.419 1.881-1.089 2.507l-0.002 0.002-5.577 5.943c-2.428 2.282-3.94 5.515-3.94 9.1 0 3.266 1.254 6.238 3.307 8.462l-0.008-0.009c2.213 1.937 5.13 3.119 8.322 3.119 3.544 0 6.748-1.456 9.047-3.802l0.002-0.002 17.234-17.28c2.334-2.277 3.781-5.454 3.781-8.968 0-3.26-1.246-6.23-3.287-8.458l0.009 0.010c-2.063-2.040-4.901-3.3-8.033-3.3-0.391 0-0.777 0.020-1.158 0.058l0.048-0.004c-0.1 0.011-0.216 0.017-0.334 0.017-1.761 0-3.208-1.346-3.368-3.066l-0.001-0.013c-0.011-0.101-0.017-0.219-0.017-0.338 0-1.771 1.342-3.228 3.065-3.409l0.015-0.001c0.566-0.062 1.221-0.097 1.885-0.097 4.957 0 9.454 1.973 12.747 5.176l-0.004-0.004c3.255 3.453 5.256 8.119 5.256 13.253 0 5.477-2.277 10.422-5.936 13.94l-0.006 0.006-17.188 17.326c-3.612 3.725-8.631 6.069-14.198 6.171l-0.019 0z"></path>
</svg>
