<!-- Generated by IcoMoon.io -->
<svg version="1.1" xmlns="http://www.w3.org/2000/svg" width="80" height="80" viewBox="0 0 80 80">
<title>linkedin</title>
<path d="M73.596 0.005h-66.742c-0.091-0.005-0.199-0.007-0.307-0.007-3.514 0-6.382 2.768-6.542 6.242l-0.001 0.014v66.892c0.108 3.739 3.111 6.741 6.839 6.849l0.010 0h66.742c3.569-0.164 6.401-3.098 6.401-6.693 0-0.055-0.001-0.11-0.002-0.165l0 0.008v-66.892c0.001-0.031 0.001-0.068 0.001-0.105 0-3.396-2.753-6.149-6.149-6.149-0.088 0-0.176 0.002-0.263 0.005l0.012-0zM25.002 66.697h-11.649v-35.646h11.649zM19.452 25.652v0c-0.061 0.002-0.133 0.004-0.205 0.004-3.258 0-5.899-2.641-5.899-5.899 0-0.089 0.002-0.178 0.006-0.266l-0 0.012c-0.004-0.077-0.006-0.167-0.006-0.258 0-3.258 2.641-5.899 5.899-5.899 0.107 0 0.214 0.003 0.32 0.009l-0.015-0.001c0.061-0.002 0.133-0.004 0.205-0.004 3.258 0 5.899 2.641 5.899 5.899 0 0.089-0.002 0.178-0.006 0.266l0-0.012c0.004 0.077 0.006 0.167 0.006 0.258 0 3.258-2.641 5.899-5.899 5.899-0.107 0-0.214-0.003-0.32-0.009l0.015 0.001zM66.697 66.697h-11.699v-19.498c0-4.649-1.65-7.849-5.799-7.849-2.695 0.024-4.981 1.751-5.836 4.156l-0.014 0.044c-0.262 0.714-0.414 1.538-0.414 2.398 0 0.159 0.005 0.316 0.015 0.473l-0.001-0.021v20.298h-11.499v-35.646h11.499v4.999c2.007-3.633 5.814-6.053 10.187-6.053 0.11 0 0.219 0.001 0.328 0.005l-0.016-0c7.549 0 13.249 4.999 13.249 15.648z"></path>
</svg>
