<!-- Generated by IcoMoon.io -->
<svg version="1.1" xmlns="http://www.w3.org/2000/svg" width="80" height="80" viewBox="0 0 80 80">
<title>list</title>
<path d="M75.553 43.809h-55.869c-2.104 0-3.809-1.705-3.809-3.809s1.705-3.809 3.809-3.809v0h55.869c2.104 0 3.809 1.705 3.809 3.809s-1.705 3.809-3.809 3.809v0z"></path>
<path d="M75.553 20.954h-55.869c-2.104 0-3.809-1.705-3.809-3.809s1.705-3.809 3.809-3.809v0h55.869c2.104 0 3.809 1.705 3.809 3.809s-1.705 3.809-3.809 3.809v0z"></path>
<path d="M75.553 66.665h-55.869c-2.104 0-3.809-1.705-3.809-3.809s1.705-3.809 3.809-3.809v0h55.869c2.104 0 3.809 1.705 3.809 3.809s-1.705 3.809-3.809 3.809v0z"></path>
<path d="M4.447 22.223c-0.018 0-0.040 0-0.062 0-0.672 0-1.314-0.131-1.902-0.368l0.034 0.012c-0.64-0.314-1.191-0.687-1.684-1.124l0.008 0.007c-0.91-0.918-1.473-2.181-1.473-3.577 0-0.010 0-0.021 0-0.031v0.002c0.020-1.401 0.578-2.668 1.475-3.608l-0.002 0.002c0.464-0.458 1.022-0.82 1.644-1.056l0.032-0.011c0.571-0.241 1.234-0.381 1.93-0.381s1.359 0.14 1.964 0.393l-0.033-0.012c0.65 0.256 1.207 0.617 1.678 1.068l-0.002-0.002c0.895 0.938 1.453 2.205 1.473 3.602v0.004c0 0.009 0 0.019 0 0.029 0 1.395-0.563 2.659-1.473 3.577l0-0c-0.485 0.431-1.036 0.803-1.633 1.098l-0.043 0.019c-0.553 0.225-1.195 0.356-1.868 0.356-0.022 0-0.044-0-0.066-0h0.003z"></path>
<path d="M4.447 45.079c-0.699-0.009-1.361-0.157-1.963-0.419l0.033 0.013c-0.645-0.274-1.2-0.633-1.681-1.071l0.005 0.004c-0.91-0.918-1.473-2.181-1.473-3.577 0-0.010 0-0.021 0-0.031v0.002c0.020-1.401 0.578-2.668 1.475-3.608l-0.002 0.002c0.476-0.434 1.031-0.793 1.638-1.052l0.038-0.015c0.626-0.297 1.361-0.471 2.137-0.471 0.286 0 0.566 0.024 0.839 0.069l-0.030-0.004 0.914 0.305 0.914 0.457c0.285 0.202 0.533 0.402 0.769 0.615l-0.007-0.006c0.912 0.955 1.473 2.252 1.473 3.68 0 0.010 0 0.020-0 0.029v-0.002c0 2.805-2.274 5.079-5.079 5.079v0z"></path>
<path d="M4.447 67.935c-0.018 0-0.040 0-0.062 0-0.672 0-1.314-0.131-1.902-0.368l0.034 0.012c-0.64-0.314-1.191-0.687-1.684-1.124l0.008 0.007c-0.434-0.476-0.793-1.031-1.052-1.638l-0.015-0.038c-0.257-0.568-0.408-1.231-0.408-1.93s0.15-1.362 0.42-1.96l-0.012 0.030c0.274-0.645 0.633-1.2 1.071-1.681l-0.004 0.005c0.917-0.905 2.177-1.464 3.567-1.464 0.711 0 1.388 0.146 2.002 0.41l-0.033-0.013c0.65 0.256 1.207 0.617 1.678 1.068l-0.002-0.002c0.434 0.476 0.793 1.031 1.052 1.638l0.015 0.038c0.258 0.568 0.408 1.231 0.408 1.93s-0.15 1.362-0.42 1.96l0.012-0.030c-0.274 0.645-0.633 1.2-1.071 1.681l0.004-0.005c-0.918 0.91-2.181 1.473-3.577 1.473-0.010 0-0.021 0-0.031-0h0.002z"></path>
</svg>
