<!-- Generated by IcoMoon.io -->
<svg version="1.1" xmlns="http://www.w3.org/2000/svg" width="80" height="80" viewBox="0 0 80 80">
<title>lock-open</title>
<path d="M58.285 0.001c-11.992 0-21.714 9.721-21.714 21.714v0 10.285h-23.999c-6.943 0-12.571 5.628-12.571 12.571v0 22.856c0 6.943 5.628 12.571 12.571 12.571v0h31.999c6.943 0 12.571-5.628 12.571-12.571v0-22.856c0-6.943-5.628-12.571-12.571-12.571v0h-1.143v-10.285c0-8.205 6.651-14.857 14.857-14.857s14.857 6.651 14.857 14.857v0c0 1.893 1.535 3.428 3.428 3.428s3.428-1.535 3.428-3.428v0c0-11.992-9.721-21.714-21.714-21.714v0zM50.285 44.571v22.856c0 3.156-2.558 5.714-5.714 5.714v0h-31.999c-3.156 0-5.714-2.558-5.714-5.714v0-22.856c0-3.156 2.558-5.714 5.714-5.714v0h31.999c3.156 0 5.714 2.558 5.714 5.714v0z"></path>
</svg>
