<!-- Generated by IcoMoon.io -->
<svg version="1.1" xmlns="http://www.w3.org/2000/svg" width="80" height="80" viewBox="0 0 80 80">
<title>lock</title>
<path d="M62.856 32h-1.143v-10.285c0-11.992-9.721-21.713-21.713-21.713s-21.713 9.721-21.713 21.713v0 10.285h-1.143c-6.943 0-12.571 5.628-12.571 12.571v0 22.856c0 6.943 5.628 12.571 12.571 12.571v0h45.712c6.943 0 12.571-5.628 12.571-12.571v0-22.856c0-6.943-5.628-12.571-12.571-12.571v0zM25.144 21.715c0-8.205 6.651-14.856 14.856-14.856s14.856 6.651 14.856 14.856v0 10.285h-29.713zM68.57 67.427c0 3.156-2.558 5.714-5.714 5.714v0h-45.712c-3.156 0-5.714-2.558-5.714-5.714v0-22.856c0-3.156 2.558-5.714 5.714-5.714v0h45.712c3.156 0 5.714 2.558 5.714 5.714v0z"></path>
</svg>
