<!-- Generated by IcoMoon.io -->
<svg version="1.1" xmlns="http://www.w3.org/2000/svg" width="80" height="80" viewBox="0 0 80 80">
<title>map-marker</title>
<path d="M40 79.891c-0.009 0-0.019 0-0.030 0-0.653 0-1.257-0.21-1.747-0.567l0.009 0.006c-1.294-0.819-31.654-21.217-31.654-46.014 0-18.458 14.964-33.422 33.422-33.422s33.422 14.964 33.422 33.422v0c0 24.797-30.187 45.195-31.654 46.014-0.482 0.351-1.086 0.561-1.739 0.561-0.010 0-0.021-0-0.031-0h0.002zM40 6.578c-0.026-0-0.056-0-0.086-0-14.793 0-26.793 11.955-26.866 26.731v0.007c0 18.156 20.657 34.759 26.953 39.373 6.296-4.614 26.953-21.217 26.953-39.373-0.073-14.783-12.074-26.738-26.866-26.738-0.030 0-0.061 0-0.091 0h0.005z"></path>
<path d="M40 43.234c-6.55 0-11.859-5.31-11.859-11.859s5.31-11.859 11.859-11.859c6.55 0 11.859 5.31 11.859 11.859v0c0 6.55-5.31 11.859-11.859 11.859v0zM40 25.984c-2.977 0-5.391 2.413-5.391 5.391s2.413 5.391 5.391 5.391c2.977 0 5.391-2.413 5.391-5.391v0c0-2.977-2.413-5.391-5.391-5.391v0z"></path>
</svg>
