<!-- Generated by IcoMoon.io -->
<svg version="1.1" xmlns="http://www.w3.org/2000/svg" width="80" height="80" viewBox="0 0 80 80">
<title>map</title>
<path d="M76.113 3.841c-1.245-0.838-2.778-1.337-4.427-1.337-1.143 0-2.229 0.24-3.213 0.671l0.051-0.020-16.319 6.994-21.713-9.142c-0.796-0.347-1.723-0.549-2.697-0.549s-1.901 0.202-2.742 0.566l0.045-0.017-19.931 8.411c-3.066 1.358-5.166 4.374-5.166 7.881 0 0.042 0 0.084 0.001 0.125l-0-0.006v51.426c-0 0.015-0 0.033-0 0.051 0 3.016 1.529 5.675 3.855 7.244l0.031 0.020c1.245 0.838 2.778 1.337 4.427 1.337 1.143 0 2.229-0.24 3.212-0.671l-0.051 0.020 16.319-6.994 21.713 9.142c0.778 0.347 1.686 0.549 2.641 0.549 0.020 0 0.040-0 0.059-0h-0.003c0.974-0.001 1.901-0.203 2.742-0.566l-0.045 0.017 19.931-8.548c3.066-1.358 5.166-4.374 5.166-7.881 0-0.042-0-0.084-0.001-0.125l0 0.006v-51.289c0-0.015 0-0.033 0-0.051 0-3.016-1.529-5.675-3.855-7.244l-0.031-0.020zM31.223 8.413l17.554 7.497v55.449l-17.554-7.497zM8.779 70.536c-0.164 0.096-0.361 0.153-0.571 0.153s-0.407-0.057-0.577-0.156l0.005 0.003c-0.474-0.335-0.78-0.881-0.78-1.498 0-0.036 0.001-0.071 0.003-0.107l-0 0.005v-51.518c-0-0.008-0-0.018-0-0.027 0-0.755 0.469-1.4 1.131-1.66l0.012-0.004 16.365-7.085v55.221zM73.141 62.582c0.001 0.026 0.002 0.056 0.002 0.086 0 0.703-0.407 1.31-0.997 1.601l-0.010 0.005-16.502 7.085v-55.221l15.588-6.674c0.164-0.096 0.361-0.153 0.571-0.153s0.407 0.057 0.577 0.156l-0.005-0.003c0.474 0.335 0.78 0.881 0.78 1.498 0 0.036-0.001 0.071-0.003 0.107l0-0.005z"></path>
</svg>
