<!-- Generated by IcoMoon.io -->
<svg version="1.1" xmlns="http://www.w3.org/2000/svg" width="80" height="80" viewBox="0 0 80 80">
<title>megaphone</title>
<path d="M70.849 2.201h-6.7c-5.050 0-9.15 4.1-9.15 9.15v2.25l-47.499 10.2v-2.55c0-2.050-1.7-3.75-3.75-3.75s-3.75 1.7-3.75 3.75v34.999c0 2.050 1.7 3.75 3.75 3.75s3.75-1.7 3.75-3.75v-3.15l47.499 10.2v2.25c0 5.050 4.1 9.15 9.15 9.15h6.7c5.050 0 9.15-4.1 9.15-9.15v-54.199c0-5.050-4.1-9.15-9.15-9.15zM7.501 45.4v-13.95l47.499-10.2v34.349l-47.499-10.2zM72.499 65.549c0 0.9-0.75 1.65-1.65 1.65h-6.7c-0.9 0-1.65-0.75-1.65-1.65v-54.199c0-0.9 0.75-1.65 1.65-1.65h6.7c0.9 0 1.65 0.75 1.65 1.65v54.199zM44.85 68.149c-1.85 5.8-7.2 9.7-13.35 9.7-7.7 0-14-6.2-14-13.75 0-0.55 0-1.15 0.1-1.7 0.25-2.050 2.15-3.5 4.2-3.25s3.5 2.1 3.25 4.15c0 0.25 0 0.5 0 0.75 0 3.45 2.9 6.25 6.5 6.25 2.85 0 5.35-1.8 6.2-4.45 0.6-2 2.75-3.1 4.7-2.45 2 0.6 3.050 2.75 2.45 4.7z"></path>
</svg>
