<!-- Generated by IcoMoon.io -->
<svg version="1.1" xmlns="http://www.w3.org/2000/svg" width="80" height="80" viewBox="0 0 80 80">
<title>microphone</title>
<path d="M38.726 57.054h2.548c6.082 0 10.972-5.055 10.972-11.301v-30.41c0-6.246-4.931-11.301-10.972-11.301h-2.548c-6.082 0-10.972 5.055-10.972 11.301v30.369c0 6.246 4.931 11.301 10.972 11.301zM33.918 15.344c0-2.835 2.178-5.137 4.808-5.137h2.548c2.671 0 4.808 2.301 4.808 5.137v30.369c0 2.835-2.178 5.137-4.808 5.137h-2.548c-2.671 0-4.808-2.301-4.808-5.137v-30.369zM63.629 29.274v17.383c0 11.547-9.123 20.917-20.547 21.492v7.808c0 1.685-1.397 3.082-3.082 3.082s-3.082-1.397-3.082-3.082v-7.808c-11.424-0.575-20.547-9.945-20.547-21.492v-17.383c0-1.685 1.397-3.082 3.082-3.082s3.082 1.397 3.082 3.082v17.383c0 8.506 6.945 15.451 15.493 15.451h3.986c8.548 0 15.492-6.945 15.492-15.451v-17.383c0-1.685 1.397-3.082 3.082-3.082s3.082 1.397 3.082 3.082z"></path>
</svg>
