<!-- Generated by IcoMoon.io -->
<svg version="1.1" xmlns="http://www.w3.org/2000/svg" width="80" height="80" viewBox="0 0 80 80">
<title>money-bill</title>
<path d="M71.999 9.144h-63.998c-4.408 0.026-7.974 3.592-8 7.997v45.715c0.026 4.408 3.592 7.974 7.997 8h64.001c4.408-0.026 7.974-3.592 8-7.997v-45.715c-0.026-4.408-3.592-7.974-7.997-8h-0.003zM73.142 17.144v7.634h-0.96c-0.247 0.033-0.533 0.051-0.823 0.051s-0.576-0.019-0.856-0.055l0.033 0.004h-0.594c-0.576-0.117-1.081-0.275-1.563-0.477l0.054 0.020h-0.549c-0.675-0.331-1.251-0.761-1.734-1.277l-0.003-0.003c-1.322-1.306-2.143-3.116-2.148-5.119v-0.001c0.001-0.669 0.101-1.313 0.287-1.921l-0.012 0.047h7.726c0 0 0.001 0 0.001 0 0.615 0 1.117 0.486 1.142 1.095l0 0.002zM8.001 16.001h7.726c0.173 0.561 0.273 1.206 0.274 1.874v0.001c-0.006 2.004-0.826 3.814-2.148 5.119l-0.001 0.001c-0.496 0.504-1.069 0.931-1.7 1.262l-0.037 0.018h-0.594c-0.41 0.207-0.886 0.366-1.387 0.453l-0.030 0.004h-0.64c-0.247 0.033-0.533 0.051-0.823 0.051s-0.576-0.019-0.856-0.055l0.033 0.004h-0.96v-7.588c0-0.631 0.512-1.143 1.143-1.143v0zM6.858 62.856v-7.634h0.96c0.247-0.033 0.533-0.051 0.823-0.051s0.576 0.019 0.856 0.055l-0.033-0.004h0.594c0.565 0.091 1.072 0.25 1.544 0.472l-0.035-0.015h0.549c0.668 0.349 1.241 0.776 1.736 1.279l0.001 0.001c1.322 1.306 2.143 3.116 2.148 5.119v0.001c-0.001 0.669-0.101 1.313-0.287 1.921l0.012-0.047h-7.726c-0 0-0.001 0-0.001 0-0.615 0-1.117-0.486-1.142-1.095l-0-0.002zM22.721 63.999c0.022-0.28 0.035-0.607 0.035-0.937s-0.013-0.657-0.038-0.98l0.003 0.043c0-0.038 0.001-0.082 0.001-0.127 0-3.858-1.593-7.344-4.157-9.836l-0.003-0.003c-0.658-0.666-1.393-1.255-2.189-1.753l-0.051-0.029-0.777-0.503c-0.439-0.235-0.982-0.481-1.54-0.696l-0.106-0.036-0.914-0.366c-0.685-0.211-1.505-0.388-2.347-0.495l-0.076-0.008c-0.212-0.023-0.459-0.035-0.709-0.035s-0.496 0.013-0.739 0.038l0.030-0.003h-2.286v-16.411h3.886c0.706-0.122 1.321-0.28 1.916-0.483l-0.087 0.026 1.006-0.32c0.775-0.267 1.439-0.576 2.065-0.943l-0.053 0.029 0.731-0.411c0.891-0.59 1.668-1.222 2.379-1.922l-0.002 0.002c2.567-2.495 4.16-5.981 4.16-9.839 0-0.044-0-0.089-0.001-0.133v0.007c0.022-0.28 0.035-0.607 0.035-0.937s-0.013-0.657-0.038-0.98l0.003 0.043h34.559c-0.022 0.28-0.035 0.607-0.035 0.937s0.013 0.657 0.038 0.98l-0.003-0.043c-0 0.038-0.001 0.082-0.001 0.127 0 3.858 1.593 7.344 4.157 9.836l0.003 0.003c0.701 0.714 1.48 1.348 2.324 1.888l0.053 0.032 0.731 0.411c0.572 0.338 1.237 0.647 1.932 0.89l0.080 0.024 1.006 0.32c0.525 0.167 1.158 0.31 1.808 0.404l0.066 0.008h3.84v16.274h-2.286c-0.212-0.022-0.459-0.034-0.709-0.034s-0.496 0.012-0.739 0.036l0.031-0.003c-0.917 0.115-1.738 0.292-2.531 0.531l0.108-0.028-0.914 0.366c-0.711 0.276-1.298 0.553-1.863 0.863l0.080-0.040-0.777 0.503c-0.847 0.528-1.582 1.116-2.239 1.782l-0.001 0.001c-2.567 2.495-4.16 5.981-4.16 9.839 0 0.044 0 0.089 0.001 0.133v-0.007c-0.022 0.28-0.035 0.607-0.035 0.937s0.013 0.657 0.038 0.98l-0.003-0.043zM71.999 63.999h-7.726c-0.173-0.561-0.273-1.206-0.274-1.874v-0.001c0.006-2.004 0.826-3.814 2.148-5.119l0.001-0.001c0.486-0.519 1.062-0.948 1.703-1.265l0.035-0.015h0.549c0.421-0.174 0.925-0.331 1.446-0.446l0.063-0.012h0.594c0.247-0.033 0.533-0.051 0.823-0.051s0.576 0.019 0.856 0.055l-0.033-0.004h0.96v7.588c0 0.631-0.512 1.143-1.143 1.143v0z"></path>
<path d="M40 24.001c-8.836 0-15.999 7.163-15.999 15.999s7.163 15.999 15.999 15.999c8.836 0 15.999-7.163 15.999-15.999v0c0-8.836-7.163-15.999-15.999-15.999v0zM40 49.143c-5.049 0-9.143-4.093-9.143-9.143s4.093-9.143 9.143-9.143c5.049 0 9.143 4.093 9.143 9.143v0c0 5.049-4.093 9.143-9.143 9.143v0z"></path>
</svg>
