<!-- Generated by IcoMoon.io -->
<svg version="1.1" xmlns="http://www.w3.org/2000/svg" width="80" height="80" viewBox="0 0 80 80">
<title>moon</title>
<path d="M40.415 79.905c-1.773-0.002-3.516-0.119-5.225-0.345l0.203 0.022c-18.248-2.444-32.531-16.726-34.952-34.767l-0.023-0.208c-0.223-1.59-0.351-3.427-0.351-5.294 0-19.223 13.513-35.289 31.558-39.217l0.265-0.048c0.377-0.090 0.81-0.141 1.255-0.141 1.885 0 3.555 0.92 4.586 2.336l0.011 0.016c0.681 0.944 1.089 2.124 1.089 3.4 0 1.129-0.32 2.183-0.873 3.076l0.015-0.025c-2.088 3.524-3.322 7.766-3.322 12.297 0 1.303 0.102 2.582 0.299 3.83l-0.018-0.138c1.651 10.415 9.768 18.533 20.046 20.165l0.137 0.018c1.122 0.186 2.414 0.293 3.732 0.293 4.525 0 8.757-1.257 12.365-3.44l-0.107 0.060c0.853-0.513 1.882-0.817 2.982-0.817 1.306 0 2.511 0.428 3.485 1.15l-0.016-0.011c1.432 1.023 2.355 2.679 2.355 4.551 0 0.445-0.052 0.878-0.15 1.293l0.008-0.038c-3.897 18.384-19.991 31.98-39.261 31.98-0.032 0-0.064 0-0.096-0h0.005zM30.784 7.744c-13.979 4.204-23.989 16.959-23.989 32.053 0 18.451 14.957 33.408 33.408 33.408 15.094 0 27.849-10.009 31.991-23.752l0.061-0.237c-3.974 1.981-8.657 3.141-13.61 3.141-15.431 0-28.234-11.254-30.649-26.001l-0.024-0.18c-0.231-1.425-0.364-3.069-0.364-4.742 0-4.984 1.172-9.694 3.256-13.87l-0.081 0.18z"></path>
</svg>
