<!-- Generated by IcoMoon.io -->
<svg version="1.1" xmlns="http://www.w3.org/2000/svg" width="80" height="80" viewBox="0 0 80 80">
<title>palette</title>
<path d="M40.361 0.005s-0.361 0-0.568 0c-19.559 0-36.589 14.398-39.685 33.751-0.413 2.58 0.31 5.264 2.064 7.276 1.703 2.013 4.128 3.148 6.709 3.148h0.31c8.98 0 15.74 2.219 20.075 6.554 4.387 4.387 6.554 11.25 6.502 20.385 0 2.58 1.135 5.006 3.096 6.709 1.651 1.445 3.767 2.219 5.883 2.168 0.464 0 0.929 0 1.393-0.103 19.559-3.148 34.060-20.436 33.802-40.253-0.31-21.52-18.062-39.324-39.634-39.634zM44.954 72.254c-0.31 0-0.722-0.052-1.032-0.31-0.155-0.155-0.413-0.413-0.413-0.774 0.052-11.302-2.89-20.023-8.773-25.906-5.831-5.831-14.45-8.825-25.545-8.825h-0.31c-0.413 0-0.671-0.258-0.826-0.413-0.103-0.155-0.413-0.516-0.31-1.032 2.529-15.585 16.256-27.248 32.048-27.248 0.155 0 0.31 0 0.464 0v0c17.082 0.258 31.738 14.863 31.996 31.996 0.206 15.998-11.508 29.983-27.248 32.512zM29.369 24.621c0 2.838-2.322 5.212-5.212 5.212s-5.212-2.322-5.212-5.212 2.322-5.212 5.212-5.212 5.212 2.322 5.212 5.212zM44.954 18.119c0 2.838-2.322 5.212-5.212 5.212s-5.212-2.322-5.212-5.212 2.322-5.212 5.212-5.212 5.212 2.322 5.212 5.212zM50.166 24.621c0-2.838 2.322-5.212 5.212-5.212s5.212 2.322 5.212 5.212-2.322 5.212-5.212 5.212-5.212-2.322-5.212-5.212zM67.042 40.206c0 2.838-2.322 5.212-5.212 5.212s-5.212-2.322-5.212-5.212 2.322-5.212 5.212-5.212 5.212 2.322 5.212 5.212zM60.539 55.792c0 2.838-2.322 5.212-5.212 5.212s-5.212-2.322-5.212-5.212 2.322-5.212 5.212-5.212 5.212 2.322 5.212 5.212z"></path>
</svg>
