<!-- Generated by IcoMoon.io -->
<svg version="1.1" xmlns="http://www.w3.org/2000/svg" width="80" height="80" viewBox="0 0 80 80">
<title>paperclip</title>
<path d="M26.019 79.934c-0.031 0-0.067 0-0.104 0-7.026 0-13.418-2.711-18.189-7.143l0.017 0.015c-4.725-4.379-7.673-10.618-7.673-17.545s2.948-13.166 7.658-17.531l0.015-0.014 34.542-32.623c3.415-3.126 7.983-5.041 12.999-5.041s9.584 1.915 13.014 5.054l-0.015-0.013c3.617 3.365 5.899 8.124 5.985 13.417l0 0.016c0 0.027 0 0.058 0 0.090 0 4.559-1.93 8.667-5.017 11.553l-0.009 0.008-34.588 32.669c-2.008 1.867-4.708 3.013-7.676 3.013s-5.668-1.146-7.683-3.019l0.007 0.006c-2.023-1.868-3.285-4.533-3.285-7.493s1.262-5.625 3.278-7.487l0.007-0.006 31.983-30.11c0.62-0.619 1.476-1.002 2.422-1.002s1.802 0.383 2.422 1.002v0c0.619 0.62 1.002 1.476 1.002 2.422s-0.383 1.802-1.002 2.422v0l-31.983 30.11c-0.702 0.615-1.142 1.512-1.142 2.513s0.441 1.898 1.138 2.51l0.004 0.003c0.793 0.682 1.833 1.097 2.97 1.097s2.176-0.415 2.976-1.102l-0.006 0.005 34.588-32.577c1.693-1.66 2.742-3.971 2.742-6.526 0-0.035-0-0.069-0.001-0.104v0.005c-0.082-3.334-1.541-6.313-3.829-8.399l-0.009-0.008c-2.17-2.015-5.087-3.252-8.293-3.252s-6.123 1.237-8.3 3.259l0.008-0.007-34.405 32.577c-3.403 3.126-5.529 7.597-5.529 12.565s2.125 9.439 5.516 12.554l0.012 0.011c3.581 3.344 8.404 5.397 13.707 5.397s10.126-2.053 13.719-5.408l-0.012 0.011 34.222-32.395c0.615-0.63 1.473-1.021 2.422-1.021s1.807 0.391 2.421 1.021l0.001 0.001c0.619 0.62 1.002 1.476 1.002 2.422s-0.383 1.802-1.002 2.422v0l-34.496 32.532c-4.748 4.419-11.136 7.131-18.157 7.131-0.138 0-0.276-0.001-0.414-0.003l0.021 0z"></path>
</svg>
