<!-- Generated by IcoMoon.io -->
<svg version="1.1" xmlns="http://www.w3.org/2000/svg" width="80" height="80" viewBox="0 0 80 80">
<title>paypal</title>
<path d="M25.795 47.053c-0.6 3.351-3.051 19.157-3.751 23.609 0 0.35 0 0.45-0.55 0.45h-13.105c-0.006 0-0.014 0-0.021 0-1.188 0-2.151-0.963-2.151-2.151 0-0.106 0.008-0.21 0.022-0.312l-0.001 0.011 10.304-65.624c0.288-1.693 1.709-2.977 3.444-3.051l0.008-0c26.76 0 29.010-0.65 35.863 2.051 10.554 4.101 11.554 14.005 7.753 24.759s-12.755 15.756-24.659 15.906c-7.603 0-12.204-1.2-13.255 4.301zM69.010 21.643c-0.3-0.25-0.4-0.3-0.5 0-0.418 2.301-0.955 4.301-1.637 6.232l0.086-0.28c-7.002 20.007-26.46 18.357-35.963 18.357-0.061-0.008-0.131-0.012-0.202-0.012-0.936 0-1.7 0.734-1.748 1.658l-0 0.004c-3.951 25.009-5.002 30.011-5.002 30.011-0.027 0.12-0.043 0.259-0.043 0.4 0 1.047 0.847 1.896 1.893 1.9h11.204c1.539-0.030 2.805-1.159 3.049-2.633l0.002-0.018c0-0.95 0 1.1 2.551-16.106 0.8-3.851 2.501-3.451 5.002-3.451 12.454 0 22.208-5.002 25.009-20.007 0.494-1.458 0.779-3.137 0.779-4.883 0-4.523-1.912-8.599-4.971-11.465l-0.009-0.008z"></path>
</svg>
