<!-- Generated by IcoMoon.io -->
<svg version="1.1" xmlns="http://www.w3.org/2000/svg" width="80" height="80" viewBox="0 0 80 80">
<title>pencil</title>
<path d="M3.54 79.877c-0.011 0-0.023 0-0.036 0-0.935 0-1.782-0.375-2.399-0.983l0 0c-0.644-0.637-1.043-1.52-1.043-2.497 0-0.109 0.005-0.218 0.015-0.325l-0.001 0.014 1.451-17.973c0.067-0.868 0.448-1.636 1.029-2.199l51.766-51.766c2.662-2.498 6.255-4.032 10.205-4.032 0.164 0 0.327 0.003 0.49 0.008l-0.024-0.001c4.089 0.033 7.794 1.649 10.537 4.265l-0.006-0.006c2.717 2.788 4.393 6.603 4.393 10.808 0 3.94-1.47 7.536-3.893 10.269l0.014-0.016-51.812 51.999c-0.561 0.559-1.306 0.935-2.137 1.028l-0.016 0.002-18.207 1.638zM8.22 59.938l-0.983 12.824 12.824-1.17 51.016-51.11c1.182-1.392 1.901-3.21 1.901-5.196 0-4.446-3.604-8.050-8.050-8.050-0.027 0-0.053 0-0.080 0h0.004c-0.143-0.010-0.31-0.015-0.477-0.015-1.966 0-3.756 0.753-5.098 1.986l0.005-0.005zM56.802 6.629v0z"></path>
</svg>
