<!-- Generated by IcoMoon.io -->
<svg version="1.1" xmlns="http://www.w3.org/2000/svg" width="80" height="80" viewBox="0 0 80 80">
<title>percentage</title>
<path d="M5.567 79.651c-0.007 0-0.016 0-0.024 0-1.433 0-2.729-0.585-3.662-1.53l-0-0c-0.943-0.944-1.526-2.247-1.526-3.687s0.583-2.743 1.526-3.687v0l68.867-68.867c0.955-1.023 2.311-1.66 3.817-1.66 2.881 0 5.217 2.336 5.217 5.217 0 1.505-0.638 2.862-1.657 3.814l-0.003 0.003-68.867 68.867c-0.934 0.945-2.23 1.53-3.662 1.53-0.009 0-0.017 0-0.025 0h0.001z"></path>
<path d="M15.653 31.305c-8.644 0-15.652-7.007-15.652-15.652s7.007-15.652 15.652-15.652c8.644 0 15.652 7.007 15.652 15.652v0c0 8.644-7.007 15.652-15.652 15.652v0zM15.653 10.436c-2.881 0-5.217 2.336-5.217 5.217s2.336 5.217 5.217 5.217c2.881 0 5.217-2.336 5.217-5.217v0c-0.039-2.866-2.351-5.179-5.214-5.217h-0.004z"></path>
<path d="M64.347 79.998c-8.644 0-15.652-7.007-15.652-15.652s7.007-15.652 15.652-15.652c8.644 0 15.652 7.007 15.652 15.652v0c0 8.644-7.007 15.652-15.652 15.652v0zM64.347 59.13c-2.881 0-5.217 2.336-5.217 5.217s2.336 5.217 5.217 5.217c2.881 0 5.217-2.336 5.217-5.217v0c-0.039-2.866-2.351-5.179-5.214-5.217h-0.004z"></path>
</svg>
