<!-- Generated by IcoMoon.io -->
<svg version="1.1" xmlns="http://www.w3.org/2000/svg" width="80" height="80" viewBox="0 0 80 80">
<title>phone</title>
<path d="M69.273 80.021h-1.052c-12.502-1.395-23.795-5.605-33.545-11.98l0.293 0.18c-9.364-6.025-17.103-13.749-22.964-22.802l-0.18-0.296c-6.21-9.482-10.423-20.809-11.77-33l-0.031-0.344c-0.035-0.323-0.055-0.696-0.055-1.075 0-2.617 0.955-5.011 2.537-6.851l-0.012 0.014c1.777-2.154 4.359-3.588 7.279-3.839l0.040-0.003h11.892c5.376 0.005 9.831 3.94 10.649 9.086l0.008 0.061c0.483 3.57 1.332 6.795 2.524 9.849l-0.1-0.289c0.425 1.117 0.672 2.408 0.672 3.757 0 2.977-1.2 5.674-3.143 7.633l-2.789 2.789c4.465 6.976 10.239 12.72 17.020 17.019l0.224 0.133 2.79-2.744c1.958-1.942 4.655-3.142 7.632-3.142 1.349 0 2.64 0.246 3.832 0.697l-0.075-0.025c2.759 1.080 5.983 1.928 9.328 2.398l0.231 0.026c5.209 0.805 9.151 5.257 9.151 10.629 0 0.090-0.001 0.18-0.003 0.27l0-0.013v10.977c0 0 0 0 0 0 0 5.945-4.807 10.768-10.746 10.794h-0.002zM21.705 6.839h-10.931c-1.124 0.076-2.11 0.609-2.785 1.412l-0.005 0.006c-0.578 0.663-0.93 1.535-0.93 2.49 0 0.122 0.006 0.242 0.017 0.361l-0.001-0.015c1.2 11.37 4.976 21.66 10.73 30.55l-0.165-0.271c5.472 8.501 12.493 15.522 20.724 20.831l0.27 0.163c8.626 5.648 18.922 9.497 30.002 10.764l0.323 0.030c0.068 0.004 0.149 0.006 0.229 0.006 1.103 0 2.103-0.439 2.836-1.151l-0.001 0.001c0.703-0.72 1.138-1.704 1.144-2.789v-10.933c0-0.025 0.001-0.055 0.001-0.084 0-1.979-1.462-3.617-3.365-3.893l-0.021-0.003c-4.144-0.567-7.878-1.527-11.429-2.863l0.36 0.119c-0.414-0.16-0.893-0.252-1.394-0.252-1.077 0-2.053 0.427-2.77 1.122l0.001-0.001-4.574 4.574c-0.626 0.61-1.482 0.987-2.427 0.987-0.62 0-1.203-0.163-1.707-0.447l0.017 0.009c-9.814-5.616-17.739-13.526-23.213-23.027l-0.159-0.3c-0.29-0.489-0.461-1.077-0.461-1.705 0-0.944 0.386-1.797 1.009-2.411l4.574-4.574c0.694-0.702 1.123-1.668 1.123-2.734 0-0.497-0.093-0.972-0.263-1.409l0.009 0.026c-1.223-3.193-2.183-6.929-2.714-10.8l-0.030-0.269c-0.237-1.992-1.916-3.522-3.953-3.522-0.025 0-0.050 0-0.076 0.001l0.004-0z"></path>
</svg>
