<!-- Generated by IcoMoon.io -->
<svg version="1.1" xmlns="http://www.w3.org/2000/svg" width="80" height="80" viewBox="0 0 80 80">
<title>play</title>
<path d="M21.903 80.072c-0.542-0.003-1.057-0.117-1.525-0.32l0.025 0.010c-1.407-0.586-2.379-1.951-2.379-3.542 0-0.009 0-0.018 0-0.027v0.001-72.388c0.082-2.077 1.785-3.73 3.875-3.73 0.996 0 1.905 0.376 2.592 0.993l-0.004-0.003 36.194 36.194c0.701 0.702 1.134 1.67 1.134 2.74s-0.433 2.039-1.134 2.74v0l-36.194 36.194c-0.67 0.659-1.573 1.083-2.575 1.137l-0.010 0zM25.781 13.165v53.671l26.835-26.835z"></path>
</svg>
