<!-- Generated by IcoMoon.io -->
<svg version="1.1" xmlns="http://www.w3.org/2000/svg" width="80" height="80" viewBox="0 0 80 80">
<title>pound</title>
<path d="M65.317 73.132h-43.14l9.14-12.887c0.392-0.547 0.63-1.227 0.64-1.963v-14.855h14.852c1.893 0 3.427-1.535 3.427-3.427s-1.535-3.427-3.427-3.427v0h-14.989v-14.852c-0.012-0.22-0.019-0.477-0.019-0.736 0-7.799 6.322-14.121 14.121-14.121 0.135 0 0.27 0.002 0.405 0.006l-0.020-0c0.276-0.019 0.599-0.030 0.924-0.030 7.925 0 14.349 6.424 14.349 14.349 0 0.445-0.020 0.885-0.060 1.32l0.004-0.056v4.57c0 1.893 1.535 3.427 3.427 3.427s3.427-1.535 3.427-3.427v0-4.57c0.027-0.403 0.043-0.874 0.043-1.349 0-11.66-9.453-21.113-21.113-21.113-0.353 0-0.703 0.009-1.052 0.026l0.049-0.002c-0.141-0.003-0.307-0.005-0.473-0.005-11.534 0-20.884 9.35-20.884 20.884 0 0.291 0.006 0.581 0.018 0.869l-0.001-0.041v14.852h-10.282c-1.893 0-3.427 1.535-3.427 3.427s1.535 3.427 3.427 3.427v0h10.282v13.71l-12.156 17.457c-0.309 0.509-0.492 1.124-0.492 1.782s0.183 1.273 0.501 1.798l-0.009-0.015c0.575 1.094 1.704 1.828 3.004 1.828 0.004 0 0.009 0 0.013 0h49.491c1.893 0 3.427-1.535 3.427-3.427s-1.535-3.427-3.427-3.427v0z"></path>
</svg>
