<!-- Generated by IcoMoon.io -->
<svg version="1.1" xmlns="http://www.w3.org/2000/svg" width="80" height="80" viewBox="0 0 80 80">
<title>power-off</title>
<path d="M40 80.035c-22.095-0.020-40-17.936-40-40.035 0-11.047 4.474-21.048 11.709-28.292l-0 0c0.599-0.614 1.434-0.995 2.358-0.995s1.759 0.381 2.357 0.994l0.001 0.001c0.603 0.604 0.976 1.437 0.976 2.358s-0.373 1.754-0.976 2.358v0c-6.541 6.107-10.619 14.782-10.619 24.408 0 18.425 14.937 33.362 33.362 33.362 9.627 0 18.301-4.077 24.39-10.599l0.018-0.019c6.050-6.026 9.794-14.364 9.794-23.576s-3.744-17.55-9.793-23.575l-0.001-0.001c-0.603-0.604-0.976-1.437-0.976-2.358s0.373-1.754 0.976-2.358v0c0.599-0.614 1.434-0.995 2.358-0.995s1.759 0.381 2.357 0.994l0.001 0.001c7.234 7.243 11.708 17.245 11.708 28.291 0 22.098-17.904 40.015-39.998 40.035h-0.002z"></path>
<path d="M40 43.336c-1.833-0.025-3.311-1.504-3.336-3.334v-35.589c0-1.843 1.494-3.336 3.336-3.336s3.336 1.494 3.336 3.336v0 35.586c-0.025 1.833-1.504 3.311-3.334 3.336h-0.002z"></path>
</svg>
