<!-- Generated by IcoMoon.io -->
<svg version="1.1" xmlns="http://www.w3.org/2000/svg" width="80" height="80" viewBox="0 0 80 80">
<title>print</title>
<path d="M67.429 61.714h-9.143c-1.894 0-3.429-1.535-3.429-3.429s1.535-3.429 3.429-3.429v0h9.143c3.156 0 5.714-2.558 5.714-5.714v0-18.286c0-3.156-2.558-5.714-5.714-5.714v0h-54.857c-3.156 0-5.714 2.558-5.714 5.714v0 18.286c0 3.156 2.558 5.714 5.714 5.714v0h9.143c1.894 0 3.429 1.535 3.429 3.429s-1.535 3.429-3.429 3.429v0h-9.143c-6.943 0-12.571-5.628-12.571-12.571v0-18.286c0-6.943 5.628-12.571 12.571-12.571v0h54.857c6.943 0 12.571 5.628 12.571 12.571v0 18.286c0 6.943-5.628 12.571-12.571 12.571v0z"></path>
<path d="M58.286 25.143c-1.883-0.025-3.403-1.545-3.429-3.426v-14.86h-29.714v14.857c0 1.894-1.535 3.429-3.429 3.429s-3.429-1.535-3.429-3.429v0-16c0-3.156 2.558-5.714 5.714-5.714v0h32c3.156 0 5.714 2.558 5.714 5.714v0 16c-0.025 1.883-1.545 3.403-3.426 3.429h-0.002z"></path>
<path d="M56 80h-32c-3.156 0-5.714-2.558-5.714-5.714v0-32c0-3.156 2.558-5.714 5.714-5.714v0h32c3.156 0 5.714 2.558 5.714 5.714v0 32c0 3.156-2.558 5.714-5.714 5.714v0zM25.143 73.143h29.714v-29.714h-29.714z"></path>
</svg>
