<!-- Generated by IcoMoon.io -->
<svg version="1.1" xmlns="http://www.w3.org/2000/svg" width="80" height="80" viewBox="0 0 80 80">
<title>qrcode</title>
<path d="M43.871 0.002v36.128h36.128v-36.128zM72.257 28.388h-20.644v-20.644h20.644z"></path>
<path d="M0.002 36.129h36.128v-36.128h-36.128zM7.743 7.743h20.644v20.644h-20.644z"></path>
<path d="M0.002 79.998h36.128v-36.128h-36.128zM7.743 51.612h20.644v20.644h-20.644z"></path>
<path d="M43.871 43.871h9.032v9.032h-9.032v-9.032z"></path>
<path d="M61.935 43.871h9.032v9.032h-9.032v-9.032z"></path>
<path d="M52.903 52.903h9.032v9.032h-9.032v-9.032z"></path>
<path d="M70.966 52.903h9.032v9.032h-9.032v-9.032z"></path>
<path d="M43.871 61.935h9.032v9.032h-9.032v-9.032z"></path>
<path d="M61.935 61.935h9.032v9.032h-9.032v-9.032z"></path>
<path d="M52.903 70.966h9.032v9.032h-9.032v-9.032z"></path>
<path d="M70.966 70.966h9.032v9.032h-9.032v-9.032z"></path>
</svg>
