<!-- Generated by IcoMoon.io -->
<svg version="1.1" xmlns="http://www.w3.org/2000/svg" width="80" height="80" viewBox="0 0 80 80">
<title>question-circle</title>
<path d="M40 0c-22.091 0-40 17.909-40 40s17.909 40 40 40c22.091 0 40-17.909 40-40v0c0-22.091-17.909-40-40-40v0zM40 73.333c-18.409 0-33.333-14.924-33.333-33.333s14.924-33.333 33.333-33.333c18.409 0 33.333 14.924 33.333 33.333v0c0 18.409-14.924 33.333-33.333 33.333v0z"></path>
<path d="M29.778 20.889c-2.609 2.613-4.222 6.221-4.222 10.205 0 0.006 0 0.012 0 0.018v-0.001c0 1.841 1.492 3.333 3.333 3.333s3.333-1.492 3.333-3.333v0c-0-0.012-0-0.027-0-0.041 0-2.136 0.866-4.070 2.267-5.47v0c1.432-1.363 3.374-2.201 5.511-2.201s4.079 0.838 5.514 2.204l-0.003-0.003c1.441 1.413 2.335 3.38 2.335 5.556 0 4.296-3.482 7.778-7.778 7.778-0.024 0-0.048-0-0.072-0h0.004c-1.831 0.025-3.309 1.502-3.333 3.331v4.447c0 1.841 1.492 3.333 3.333 3.333s3.333-1.492 3.333-3.333v0-1.511c2.715-0.635 5.054-1.977 6.888-3.822l0.001-0.001c2.608-2.62 4.221-6.233 4.221-10.222s-1.612-7.603-4.221-10.223l0.001 0.001c-2.659-2.54-6.27-4.103-10.246-4.103-3.953 0-7.545 1.545-10.206 4.065l0.007-0.006z"></path>
<path d="M45.556 58.889c0 3.068-2.487 5.556-5.556 5.556s-5.556-2.487-5.556-5.556c0-3.068 2.487-5.556 5.556-5.556s5.556 2.487 5.556 5.556z"></path>
</svg>
