<!-- Generated by IcoMoon.io -->
<svg version="1.1" xmlns="http://www.w3.org/2000/svg" width="80" height="80" viewBox="0 0 80 80">
<title>question</title>
<path d="M58.596 7.696c-4.756-4.766-11.332-7.714-18.596-7.714-14.51 0-26.272 11.763-26.272 26.272 0 0.013 0 0.027 0 0.040v-0.002c0 1.893 1.534 3.427 3.427 3.427s3.427-1.534 3.427-3.427v0c0-0.014 0-0.030 0-0.046 0-10.75 8.715-19.464 19.464-19.464s19.464 8.715 19.464 19.464c0 10.75-8.715 19.464-19.464 19.464-0.016 0-0.032 0-0.048-0h0.002c-1.882 0.025-3.401 1.545-3.427 3.424v9.141c0 1.893 1.534 3.427 3.427 3.427s3.427-1.534 3.427-3.427v0-5.94c12.954-1.785 22.824-12.782 22.824-26.085 0-7.24-2.924-13.798-7.655-18.556l0.001 0.001z"></path>
<path d="M45.711 74.268c0 3.154-2.557 5.711-5.711 5.711s-5.711-2.557-5.711-5.711c0-3.154 2.557-5.711 5.711-5.711s5.711 2.557 5.711 5.711z"></path>
</svg>
