<!-- Generated by IcoMoon.io -->
<svg version="1.1" xmlns="http://www.w3.org/2000/svg" width="80" height="80" viewBox="0 0 80 80">
<title>reddit</title>
<path d="M31.2 48c-2.209 0-4-1.791-4-4s1.791-4 4-4c2.209 0 4 1.791 4 4v0c0 2.209-1.791 4-4 4v0zM80 40c0 22.091-17.909 40-40 40s-40-17.909-40-40c0-22.091 17.909-40 40-40v0c22.091 0 40 17.909 40 40v0zM58.65 33.35c-1.434 0.087-2.71 0.701-3.65 1.65l-0 0c-3.9-2.611-8.685-4.189-13.834-4.25l-0.016-0 2.8-12.65 8.95 2c-0 0.015-0 0.032-0 0.050 0 2.182 1.768 3.95 3.95 3.95 0 0 0 0 0 0v0c2.215-0.028 4-1.83 4-4.050 0-0 0-0 0-0v0c0.001-0.038 0.002-0.084 0.002-0.129 0-2.182-1.769-3.95-3.95-3.95-1.594 0-2.968 0.945-3.592 2.305l-0.010 0.025-10-2.2c-0.054-0.011-0.116-0.017-0.179-0.017-0.442 0-0.813 0.302-0.92 0.71l-0.001 0.007-3.1 13.95c-5.164 0.076-9.945 1.652-13.945 4.31l0.095-0.060c-0.974-1.005-2.336-1.628-3.843-1.628-2.955 0-5.35 2.395-5.35 5.35 0 2.077 1.183 3.878 2.913 4.764l0.030 0.014c-0.037 0.375-0.057 0.81-0.057 1.25s0.021 0.875 0.061 1.305l-0.004-0.055c0 8.45 9.55 15.35 21.3 15.35s21.3-6.9 21.3-15.35c0-0.007 0-0.014 0-0.022 0-0.897-0.109-1.769-0.316-2.602l0.016 0.074c1.632-0.937 2.713-2.67 2.713-4.655 0-2.872-2.262-5.215-5.102-5.344l-0.012-0zM47.55 52.1c-2.127 1.355-4.719 2.16-7.5 2.16s-5.373-0.805-7.557-2.194l0.057 0.034c-0.177-0.163-0.414-0.262-0.675-0.262s-0.498 0.1-0.676 0.263l0.001-0.001c-0.19 0.174-0.308 0.423-0.308 0.7s0.118 0.526 0.307 0.699l0.001 0.001c2.494 1.712 5.577 2.735 8.9 2.735s6.406-1.022 8.954-2.77l-0.054 0.035c0.19-0.174 0.308-0.423 0.308-0.7s-0.118-0.526-0.307-0.699l-0.001-0.001c-0.183-0.192-0.44-0.311-0.725-0.311s-0.542 0.119-0.725 0.311l-0 0zM48.8 40c-2.209 0-4 1.791-4 4s1.791 4 4 4c2.209 0 4-1.791 4-4v0c0-2.209-1.791-4-4-4v0z"></path>
</svg>
