<!-- Generated by IcoMoon.io -->
<svg version="1.1" xmlns="http://www.w3.org/2000/svg" width="80" height="80" viewBox="0 0 80 80">
<title>refresh</title>
<path d="M40 79.957c-18.285 0-33.107-14.823-33.107-33.107s14.823-33.107 33.107-33.107v0h11.416c1.891 0 3.425 1.533 3.425 3.425s-1.533 3.425-3.425 3.425v0h-11.416c-14.502 0-26.258 11.756-26.258 26.258s11.756 26.258 26.258 26.258c14.502 0 26.258-11.756 26.258-26.258v0c0-1.891 1.533-3.425 3.425-3.425s3.425 1.533 3.425 3.425v0c-0.026 18.274-14.833 33.081-33.105 33.107h-0.003z"></path>
<path d="M40 34.292c-0.005 0-0.010 0-0.016 0-0.941 0-1.791-0.384-2.404-1.004l-0-0c-0.619-0.62-1.002-1.475-1.002-2.42s0.383-1.801 1.002-2.42v0l11.279-11.279-11.279-11.279c-0.671-0.627-1.090-1.517-1.090-2.506 0-1.891 1.533-3.425 3.425-3.425 0.988 0 1.879 0.419 2.504 1.088l0.002 0.002 13.7 13.7c0.619 0.62 1.002 1.475 1.002 2.42s-0.383 1.801-1.002 2.42v0l-13.7 13.7c-0.613 0.62-1.464 1.005-2.404 1.005-0.006 0-0.011 0-0.017 0h0.001z"></path>
</svg>
