<!-- Generated by IcoMoon.io -->
<svg version="1.1" xmlns="http://www.w3.org/2000/svg" width="80" height="80" viewBox="0 0 80 80">
<title>reply</title>
<path d="M53.161 58.528c-0.030 0.001-0.066 0.001-0.101 0.001-2.138 0-3.871-1.733-3.871-3.871 0-1.069 0.433-2.036 1.133-2.737v0l20.231-20.076-20.231-20.076c-0.699-0.7-1.132-1.667-1.132-2.735s0.433-2.035 1.132-2.735v0c0.7-0.699 1.667-1.132 2.735-1.132s2.035 0.433 2.735 1.132v0l23.018 22.812c0.699 0.7 1.132 1.667 1.132 2.735s-0.433 2.035-1.132 2.735v0l-23.018 22.812c-0.66 0.7-1.594 1.135-2.63 1.135-0.001 0-0.002 0-0.003 0h0z"></path>
<path d="M3.873 74.837c-2.126-0.029-3.842-1.745-3.871-3.868v-39.123c0.029-2.126 1.745-3.842 3.868-3.871h72.257c2.138 0 3.871 1.733 3.871 3.871s-1.733 3.871-3.871 3.871v0h-68.384v35.25c-0.029 2.126-1.745 3.842-3.868 3.871h-0.003z"></path>
</svg>
