<!-- Generated by IcoMoon.io -->
<svg version="1.1" xmlns="http://www.w3.org/2000/svg" width="80" height="80" viewBox="0 0 80 80">
<title>save</title>
<path d="M62.857 80h-45.714c-6.943 0-12.571-5.628-12.571-12.571v0-54.857c0-6.943 5.628-12.571 12.571-12.571v0h34.286c0.946 0.001 1.803 0.385 2.423 1.006v0l20.571 20.709c0.621 0.62 1.005 1.476 1.006 2.423v43.292c0 6.943-5.628 12.571-12.571 12.571v0zM17.143 6.857c-3.156 0-5.714 2.558-5.714 5.714v0 54.857c0 3.156 2.558 5.714 5.714 5.714v0h45.714c3.156 0 5.714-2.558 5.714-5.714v0-42.011l-18.56-18.56z"></path>
<path d="M61.714 76.571h-6.857v-28.571h-29.714v28.571h-6.857v-29.714c0-3.156 2.558-5.714 5.714-5.714v0h32c3.156 0 5.714 2.558 5.714 5.714v0z"></path>
<path d="M42.149 25.143h-18.011c-3.237-0.026-5.852-2.656-5.852-5.897 0-0.016 0-0.032 0-0.048v0.003-15.771h6.857v14.857h16v-14.857h6.857v15.771c0 0.014 0 0.030 0 0.046 0 3.241-2.614 5.871-5.849 5.897h-0.003z"></path>
</svg>
