<!-- Generated by IcoMoon.io -->
<svg version="1.1" xmlns="http://www.w3.org/2000/svg" width="80" height="80" viewBox="0 0 80 80">
<title>search</title>
<path d="M34.381 68.782c-19 0-34.402-15.402-34.402-34.402s15.402-34.402 34.402-34.402c19 0 34.402 15.402 34.402 34.402v0c0 19-15.402 34.402-34.402 34.402v0zM34.381 6.877c-15.139 0-27.412 12.273-27.412 27.412s12.273 27.412 27.412 27.412c15.139 0 27.412-12.273 27.412-27.412v0c0-15.139-12.273-27.412-27.412-27.412v0z"></path>
<path d="M76.549 79.976c-0.005 0-0.010 0-0.016 0-0.941 0-1.792-0.384-2.405-1.005l-18.869-18.869c-0.57-0.61-0.92-1.432-0.92-2.336 0-1.892 1.534-3.426 3.426-3.426 0.904 0 1.726 0.35 2.338 0.921l-0.002-0.002 18.868 18.868c0.619 0.62 1.002 1.476 1.002 2.421s-0.383 1.801-1.002 2.421v0c-0.613 0.621-1.464 1.005-2.405 1.005-0.006 0-0.011 0-0.017 0h0.001z"></path>
</svg>
