<!-- Generated by IcoMoon.io -->
<svg version="1.1" xmlns="http://www.w3.org/2000/svg" width="80" height="80" viewBox="0 0 80 80">
<title>send</title>
<path d="M78.025 1.975c-1.196-1.188-2.844-1.922-4.664-1.922-0.732 0-1.435 0.119-2.093 0.338l0.047-0.014-66.784 22.276c-2.682 0.869-4.588 3.345-4.588 6.266 0 2.521 1.419 4.711 3.502 5.813l0.036 0.017 27.709 13.695 13.695 27.8c1.108 2.156 3.318 3.606 5.866 3.606 0.008 0 0.016 0 0.024 0h0.455c2.712-0.206 4.946-2.040 5.739-4.519l0.013-0.046 22.596-66.601c0.23-0.634 0.363-1.367 0.363-2.13 0-1.792-0.732-3.413-1.914-4.58l-0.001-0.001zM7.361 28.953l58.293-19.446-32.365 32.365zM51.093 72.639l-12.964-25.928 32.365-32.365z"></path>
</svg>
