<!-- Generated by IcoMoon.io -->
<svg version="1.1" xmlns="http://www.w3.org/2000/svg" width="80" height="80" viewBox="0 0 80 80">
<title>server</title>
<path d="M79.998 23.53v-14.117c0-2.599-2.107-4.706-4.706-4.706v0h-70.584c-2.599 0-4.706 2.107-4.706 4.706v0 14.117c0 2.599 2.107 4.706 4.706 4.706v0c-2.599 0-4.706 2.107-4.706 4.706v0 14.117c0 2.599 2.107 4.706 4.706 4.706v0c-2.599 0-4.706 2.107-4.706 4.706v0 14.117c0 2.599 2.107 4.706 4.706 4.706v0h70.584c2.599 0 4.706-2.107 4.706-4.706v0-14.117c0-2.599-2.107-4.706-4.706-4.706v0c2.599 0 4.706-2.107 4.706-4.706v0-14.117c0-2.599-2.107-4.706-4.706-4.706v0c2.599 0 4.706-2.107 4.706-4.706v0zM75.292 70.586h-70.584v-14.117h70.584zM75.292 47.058h-70.584v-14.117h70.584zM75.292 23.53h-70.584v-14.117h70.584z"></path>
<path d="M16.472 16.472c0 1.949-1.58 3.529-3.529 3.529s-3.529-1.58-3.529-3.529c0-1.949 1.58-3.529 3.529-3.529s3.529 1.58 3.529 3.529z"></path>
<path d="M28.236 16.472c0 1.949-1.58 3.529-3.529 3.529s-3.529-1.58-3.529-3.529c0-1.949 1.58-3.529 3.529-3.529s3.529 1.58 3.529 3.529z"></path>
<path d="M16.472 40c0 1.949-1.58 3.529-3.529 3.529s-3.529-1.58-3.529-3.529c0-1.949 1.58-3.529 3.529-3.529s3.529 1.58 3.529 3.529z"></path>
<path d="M28.236 40c0 1.949-1.58 3.529-3.529 3.529s-3.529-1.58-3.529-3.529c0-1.949 1.58-3.529 3.529-3.529s3.529 1.58 3.529 3.529z"></path>
<path d="M16.472 63.528c0 1.949-1.58 3.529-3.529 3.529s-3.529-1.58-3.529-3.529c0-1.949 1.58-3.529 3.529-3.529s3.529 1.58 3.529 3.529z"></path>
<path d="M28.236 63.528c0 1.949-1.58 3.529-3.529 3.529s-3.529-1.58-3.529-3.529c0-1.949 1.58-3.529 3.529-3.529s3.529 1.58 3.529 3.529z"></path>
</svg>
