<!-- Generated by IcoMoon.io -->
<svg version="1.1" xmlns="http://www.w3.org/2000/svg" width="80" height="80" viewBox="0 0 80 80">
<title>shield</title>
<path d="M40 79.94c-0.46-0.006-0.898-0.089-1.306-0.237l0.028 0.009c-23.002-10.39-38.72-33.129-38.72-59.54 0-1.97 0.088-3.92 0.259-5.846l-0.018 0.249c0.085-1.583 1.248-2.87 2.764-3.147l0.021-0.003c13.287-2.053 25.249-5.913 36.281-11.37l-0.723 0.323c0.416-0.193 0.902-0.306 1.415-0.306s1 0.113 1.436 0.315l-0.021-0.009c10.309 5.133 22.271 8.994 34.862 10.957l0.697 0.090c1.536 0.279 2.699 1.567 2.784 3.141l0 0.009c0.153 1.677 0.241 3.627 0.241 5.597 0 26.411-15.718 49.15-38.311 59.374l-0.41 0.166c-0.38 0.139-0.818 0.222-1.275 0.228h-0.003zM6.952 17.679c-0.064 1.009-0.1 2.188-0.1 3.376 0 22.814 13.421 42.493 32.799 51.571l0.349 0.147c19.726-9.226 33.148-28.905 33.148-51.719 0-1.188-0.036-2.367-0.108-3.537l0.008 0.161c-12.396-2.144-23.489-5.779-33.796-10.781l0.748 0.328c-9.559 4.674-20.651 8.309-32.294 10.344l-0.753 0.109z"></path>
</svg>
