<!-- Generated by IcoMoon.io -->
<svg version="1.1" xmlns="http://www.w3.org/2000/svg" width="80" height="80" viewBox="0 0 80 80">
<title>shopping-cart</title>
<path d="M36.571 70.859c0 3.794-3.063 6.857-6.857 6.857s-6.857-3.063-6.857-6.857 3.063-6.857 6.857-6.857 6.857 3.063 6.857 6.857zM59.429 64.001c-3.794 0-6.857 3.063-6.857 6.857s3.063 6.857 6.857 6.857 6.857-3.063 6.857-6.857-3.063-6.857-6.857-6.857zM79.91 20.251l-9.143 36.573c-0.366 1.509-1.737 2.606-3.337 2.606h-45.716c-1.646 0-3.063-1.189-3.383-2.834l-8.64-47.454h-6.263c-1.874 0-3.429-1.554-3.429-3.429s1.554-3.429 3.429-3.429h9.143c1.646 0 3.063 1.189 3.383 2.834l1.966 10.881h58.654c1.051 0 2.057 0.503 2.697 1.326s0.869 1.92 0.64 2.926zM72.184 22.856h-53.031l5.395 29.716h40.185l7.452-29.716z"></path>
</svg>
