<!-- Generated by IcoMoon.io -->
<svg version="1.1" xmlns="http://www.w3.org/2000/svg" width="80" height="80" viewBox="0 0 80 80">
<title>shopping-bag</title>
<path d="M74.286 22.857h-13.714v-2.286c0-11.361-9.21-20.571-20.571-20.571s-20.571 9.21-20.571 20.571v0 2.286h-13.714c-3.156 0-5.714 2.558-5.714 5.714v0 38.857c0 6.943 5.628 12.571 12.571 12.571v0h54.857c6.943 0 12.571-5.628 12.571-12.571v0-38.857c0-3.156-2.558-5.714-5.714-5.714v0zM26.286 20.571c0-7.574 6.14-13.714 13.714-13.714s13.714 6.14 13.714 13.714v0 2.286h-27.429zM73.143 67.429c0 3.156-2.558 5.714-5.714 5.714v0h-54.857c-3.156 0-5.714-2.558-5.714-5.714v0-37.714h12.571v10.286c0 1.894 1.535 3.429 3.429 3.429s3.429-1.535 3.429-3.429v0-10.286h27.429v10.286c0 1.894 1.535 3.429 3.429 3.429s3.429-1.535 3.429-3.429v0-10.286h12.571z"></path>
</svg>
