<!-- Generated by IcoMoon.io -->
<svg version="1.1" xmlns="http://www.w3.org/2000/svg" width="80" height="80" viewBox="0 0 80 80">
<title>sign-in</title>
<path d="M67.428 79.999h-13.714c-1.894 0-3.428-1.535-3.428-3.428s1.535-3.428 3.428-3.428v0h13.714c0.138 0.013 0.298 0.020 0.459 0.020 2.678 0 4.892-1.985 5.252-4.563l0.003-0.028v-57.004c-0.363-2.606-2.577-4.591-5.255-4.591-0.162 0-0.322 0.007-0.48 0.021l0.020-0.001h-13.714c-1.894 0-3.428-1.535-3.428-3.428s1.535-3.428 3.428-3.428v0h13.714c0.153-0.007 0.332-0.011 0.513-0.011 6.492 0 11.787 5.126 12.057 11.552l0.001 0.024v56.73c-0.271 6.45-5.566 11.576-12.058 11.576-0.18 0-0.36-0.004-0.538-0.012l0.025 0.001z"></path>
<path d="M35.429 61.714c-0.005 0-0.010 0-0.016 0-0.942 0-1.793-0.385-2.406-1.005l-0-0c-0.619-0.62-1.003-1.477-1.003-2.423s0.383-1.803 1.003-2.423v0l15.862-15.862-15.862-15.862c-0.57-0.611-0.92-1.433-0.92-2.337 0-1.894 1.535-3.428 3.428-3.428 0.904 0 1.727 0.35 2.339 0.922l-0.002-0.002 18.285 18.285c0.619 0.62 1.003 1.477 1.003 2.423s-0.383 1.802-1.003 2.423v0l-18.285 18.285c-0.614 0.621-1.465 1.006-2.407 1.006-0.006 0-0.011 0-0.017 0h0.001z"></path>
<path d="M53.714 43.428h-50.284c-1.894 0-3.428-1.535-3.428-3.428s1.535-3.428 3.428-3.428v0h50.284c1.894 0 3.428 1.535 3.428 3.428s-1.535 3.428-3.428 3.428v0z"></path>
</svg>
