<!-- Generated by IcoMoon.io -->
<svg version="1.1" xmlns="http://www.w3.org/2000/svg" width="80" height="80" viewBox="0 0 80 80">
<title>sign-out</title>
<path d="M26.29 79.987h-13.71c-0.153 0.007-0.332 0.011-0.513 0.011-6.49 0-11.783-5.125-12.054-11.548l-0.001-0.024v-56.85c0.271-6.448 5.564-11.573 12.055-11.573 0.18 0 0.36 0.004 0.538 0.012l-0.025-0.001h13.71c1.893 0 3.427 1.535 3.427 3.427s-1.535 3.427-3.427 3.427v0h-13.71c-0.138-0.013-0.298-0.020-0.459-0.020-2.677 0-4.89 1.984-5.25 4.562l-0.003 0.028v56.987c0.363 2.606 2.576 4.59 5.253 4.59 0.162 0 0.322-0.007 0.48-0.021l-0.020 0.001h13.71c1.893 0 3.427 1.535 3.427 3.427s-1.535 3.427-3.427 3.427v0z"></path>
<path d="M58.28 61.707c-0.005 0-0.010 0-0.016 0-0.941 0-1.793-0.385-2.406-1.005l-0-0c-0.619-0.62-1.002-1.476-1.002-2.422s0.383-1.802 1.002-2.422v0l15.858-15.858-15.858-15.858c-0.672-0.627-1.091-1.519-1.091-2.508 0-1.893 1.535-3.427 3.427-3.427 0.989 0 1.88 0.419 2.506 1.089l0.002 0.002 18.28 18.28c0.619 0.62 1.002 1.476 1.002 2.422s-0.383 1.802-1.002 2.422v0l-18.28 18.28c-0.613 0.621-1.465 1.005-2.406 1.005-0.006 0-0.011 0-0.017 0h0.001z"></path>
<path d="M76.559 43.427h-50.269c-1.893 0-3.427-1.535-3.427-3.427s1.535-3.427 3.427-3.427v0h50.269c1.893 0 3.427 1.535 3.427 3.427s-1.535 3.427-3.427 3.427v0z"></path>
</svg>
