<!-- Generated by IcoMoon.io -->
<svg version="1.1" xmlns="http://www.w3.org/2000/svg" width="80" height="80" viewBox="0 0 80 80">
<title>slack</title>
<path d="M16.801 50.55c0 4.639-3.761 8.4-8.4 8.4s-8.4-3.761-8.4-8.4c0-4.639 3.761-8.4 8.4-8.4v0h8.4zM21.050 50.55c0-4.639 3.761-8.4 8.4-8.4s8.4 3.761 8.4 8.4v0 21.050c0 4.639-3.761 8.4-8.4 8.4s-8.4-3.761-8.4-8.4v0zM29.45 16.801c-4.639 0-8.4-3.761-8.4-8.4s3.761-8.4 8.4-8.4c4.639 0 8.4 3.761 8.4 8.4v0 8.4zM29.45 21.050c4.639 0 8.4 3.761 8.4 8.4s-3.761 8.4-8.4 8.4h-21.050c-4.639 0-8.4-3.761-8.4-8.4s3.761-8.4 8.4-8.4v0zM63.199 29.45c0-4.639 3.761-8.4 8.4-8.4s8.4 3.761 8.4 8.4c0 4.639-3.761 8.4-8.4 8.4v0h-8.4v-8.4zM58.95 29.45c0 4.639-3.761 8.4-8.4 8.4s-8.4-3.761-8.4-8.4v0-21.050c0-4.639 3.761-8.4 8.4-8.4s8.4 3.761 8.4 8.4v0 21.050zM50.55 63.199c4.639 0 8.4 3.761 8.4 8.4s-3.761 8.4-8.4 8.4c-4.639 0-8.4-3.761-8.4-8.4v0-8.4zM50.55 58.95c-4.639 0-8.4-3.761-8.4-8.4s3.761-8.4 8.4-8.4h21.050c4.639 0 8.4 3.761 8.4 8.4s-3.761 8.4-8.4 8.4v0z"></path>
</svg>
