<!-- Generated by IcoMoon.io -->
<svg version="1.1" xmlns="http://www.w3.org/2000/svg" width="80" height="80" viewBox="0 0 80 80">
<title>sliders-h</title>
<path d="M76.127 20.646h-36.127c-2.138 0-3.871-1.733-3.871-3.871s1.733-3.871 3.871-3.871v0h36.127c2.138 0 3.871 1.733 3.871 3.871s-1.733 3.871-3.871 3.871v0z"></path>
<path d="M29.678 20.646h-25.805c-2.138 0-3.871-1.733-3.871-3.871s1.733-3.871 3.871-3.871v0h25.805c2.138 0 3.871 1.733 3.871 3.871s-1.733 3.871-3.871 3.871v0z"></path>
<path d="M29.678 28.388c-2.126-0.029-3.842-1.745-3.871-3.868v-15.486c0-2.138 1.733-3.871 3.871-3.871s3.871 1.733 3.871 3.871v0 15.483c-0.029 2.126-1.745 3.842-3.868 3.871h-0.003z"></path>
<path d="M76.127 67.095h-36.127c-2.138 0-3.871-1.733-3.871-3.871s1.733-3.871 3.871-3.871v0h36.127c2.138 0 3.871 1.733 3.871 3.871s-1.733 3.871-3.871 3.871v0z"></path>
<path d="M29.678 67.095h-25.805c-2.138 0-3.871-1.733-3.871-3.871s1.733-3.871 3.871-3.871v0h25.805c2.138 0 3.871 1.733 3.871 3.871s-1.733 3.871-3.871 3.871v0z"></path>
<path d="M29.678 74.836c-2.126-0.029-3.842-1.745-3.871-3.868v-15.486c0-2.138 1.733-3.871 3.871-3.871s3.871 1.733 3.871 3.871v0 15.483c-0.029 2.126-1.745 3.842-3.868 3.871h-0.003z"></path>
<path d="M76.127 43.871h-15.483c-2.138 0-3.871-1.733-3.871-3.871s1.733-3.871 3.871-3.871v0h15.483c2.138 0 3.871 1.733 3.871 3.871s-1.733 3.871-3.871 3.871v0z"></path>
<path d="M50.322 43.871h-46.449c-2.138 0-3.871-1.733-3.871-3.871s1.733-3.871 3.871-3.871v0h46.449c2.138 0 3.871 1.733 3.871 3.871s-1.733 3.871-3.871 3.871v0z"></path>
<path d="M50.322 51.612c-2.126-0.029-3.842-1.745-3.871-3.868v-15.486c0-2.138 1.733-3.871 3.871-3.871s3.871 1.733 3.871 3.871v0 15.483c-0.029 2.126-1.745 3.842-3.868 3.871h-0.003z"></path>
</svg>
