<!-- Generated by IcoMoon.io -->
<svg version="1.1" xmlns="http://www.w3.org/2000/svg" width="80" height="80" viewBox="0 0 80 80">
<title>sliders-v</title>
<path d="M63.224 79.997c-2.126-0.029-3.842-1.745-3.871-3.868v-36.129c0-2.138 1.733-3.871 3.871-3.871s3.871 1.733 3.871 3.871v0 36.127c-0.029 2.126-1.745 3.842-3.868 3.871h-0.003z"></path>
<path d="M63.224 33.549c-2.126-0.029-3.842-1.745-3.871-3.868v-25.807c0-2.138 1.733-3.871 3.871-3.871s3.871 1.733 3.871 3.871v0 25.805c-0.029 2.126-1.745 3.842-3.868 3.871h-0.003z"></path>
<path d="M70.966 33.549h-15.483c-2.138 0-3.871-1.733-3.871-3.871s1.733-3.871 3.871-3.871v0h15.483c2.138 0 3.871 1.733 3.871 3.871s-1.733 3.871-3.871 3.871v0z"></path>
<path d="M16.776 79.997c-2.126-0.029-3.842-1.745-3.871-3.868v-36.129c0-2.138 1.733-3.871 3.871-3.871s3.871 1.733 3.871 3.871v0 36.127c-0.029 2.126-1.745 3.842-3.868 3.871h-0.003z"></path>
<path d="M16.776 33.549c-2.126-0.029-3.842-1.745-3.871-3.868v-25.807c0-2.138 1.733-3.871 3.871-3.871s3.871 1.733 3.871 3.871v0 25.805c-0.029 2.126-1.745 3.842-3.868 3.871h-0.003z"></path>
<path d="M24.517 33.549h-15.483c-2.138 0-3.871-1.733-3.871-3.871s1.733-3.871 3.871-3.871v0h15.483c2.138 0 3.871 1.733 3.871 3.871s-1.733 3.871-3.871 3.871v0z"></path>
<path d="M40 79.997c-2.126-0.029-3.842-1.745-3.871-3.868v-15.486c0-2.138 1.733-3.871 3.871-3.871s3.871 1.733 3.871 3.871v0 15.483c-0.029 2.126-1.745 3.842-3.868 3.871h-0.003z"></path>
<path d="M40 54.193c-2.126-0.029-3.842-1.745-3.871-3.868v-46.451c0-2.138 1.733-3.871 3.871-3.871s3.871 1.733 3.871 3.871v0 46.449c-0.029 2.126-1.745 3.842-3.868 3.871h-0.003z"></path>
<path d="M47.741 54.193h-15.483c-2.138 0-3.871-1.733-3.871-3.871s1.733-3.871 3.871-3.871v0h15.483c2.138 0 3.871 1.733 3.871 3.871s-1.733 3.871-3.871 3.871v0z"></path>
</svg>
