<!-- Generated by IcoMoon.io -->
<svg version="1.1" xmlns="http://www.w3.org/2000/svg" width="80" height="80" viewBox="0 0 80 80">
<title>sort-alpha-up-alt</title>
<path d="M23.383 1.14c-0.361-0.361-0.774-0.619-1.239-0.826-0.929-0.413-2.013-0.413-2.942 0-0.464 0.206-0.877 0.464-1.239 0.826l-12.902 12.902c-1.497 1.497-1.497 3.974 0 5.47s3.974 1.497 5.47 0l6.296-6.296v62.908c0 2.116 1.755 3.87 3.87 3.87s3.87-1.755 3.87-3.87v-62.908l6.296 6.296c0.774 0.774 1.755 1.135 2.735 1.135s1.961-0.361 2.735-1.135c1.497-1.497 1.497-3.974 0-5.47l-12.902-12.902z"></path>
<path d="M75.918 72.254l-8.825-24.719c-0.877-2.219-2.89-3.664-5.161-3.664s-4.283 1.445-5.161 3.767l-8.773 24.616c-0.722 2.013 0.31 4.232 2.322 4.954s4.232-0.31 4.954-2.322l1.445-4.025h10.476l1.445 4.025c0.568 1.6 2.064 2.58 3.664 2.58 0.413 0 0.877-0.052 1.29-0.206 2.013-0.722 3.045-2.942 2.322-4.954zM59.456 63.12l2.477-6.915 2.477 6.915h-4.954z"></path>
<path d="M49.444 32.465c0.981 2.271 3.045 3.664 5.419 3.664h16.153c2.116 0 3.87-1.755 3.87-3.87s-1.755-3.87-3.87-3.87h-12.334l14.553-15.121c1.755-1.858 2.271-4.593 1.239-6.967-0.981-2.271-3.045-3.664-5.419-3.664h-16.050c-2.116 0-3.87 1.755-3.87 3.87s1.755 3.87 3.87 3.87h12.334l-14.605 15.224c-1.755 1.858-2.219 4.541-1.239 6.915z"></path>
</svg>
