<!-- Generated by IcoMoon.io -->
<svg version="1.1" xmlns="http://www.w3.org/2000/svg" width="80" height="80" viewBox="0 0 80 80">
<title>sort-down</title>
<path d="M40 59.476c-0.005 0-0.010 0-0.016 0-0.944 0-1.798-0.386-2.412-1.008l-32.079-32.079c-0.621-0.622-1.005-1.481-1.005-2.429 0-1.897 1.537-3.435 3.434-3.437h64.157c1.841 0.072 3.306 1.582 3.306 3.434 0 0.883-0.333 1.688-0.88 2.297l0.003-0.003-32.079 32.079c-0.6 0.677-1.46 1.112-2.423 1.145l-0.006 0zM16.216 27.398l23.784 23.784 23.784-23.784z"></path>
</svg>
