<!-- Generated by IcoMoon.io -->
<svg version="1.1" xmlns="http://www.w3.org/2000/svg" width="80" height="80" viewBox="0 0 80 80">
<title>sort-up</title>
<path d="M72.023 59.442h-64.045c-0.007 0-0.015 0-0.023 0-1.408 0-2.615-0.859-3.125-2.082l-0.008-0.022c-0.145-0.366-0.229-0.789-0.229-1.233 0-0.925 0.366-1.765 0.962-2.382l32.021-32.021c0.621-0.62 1.478-1.003 2.425-1.003s1.804 0.383 2.425 1.003v0l32.022 32.023c0.618 0.62 1 1.476 1 2.421 0 0.48-0.099 0.937-0.277 1.352l0.008-0.022c-0.549 1.171-1.719 1.968-3.074 1.968-0.029 0-0.058-0-0.086-0.001l0.004 0zM16.258 52.58h47.485l-23.742-23.742z"></path>
</svg>
