<!-- Generated by IcoMoon.io -->
<svg version="1.1" xmlns="http://www.w3.org/2000/svg" width="80" height="80" viewBox="0 0 80 80">
<title>sort-alt</title>
<path d="M32.258 20.646c-0.981 0-1.961-0.361-2.735-1.135l-10.167-10.167-10.167 10.167c-1.497 1.497-3.974 1.497-5.471 0s-1.497-3.974 0-5.471l12.903-12.903c1.497-1.497 3.974-1.497 5.471 0l12.903 12.903c1.497 1.497 1.497 3.974 0 5.471-0.774 0.774-1.755 1.135-2.735 1.135z"></path>
<path d="M19.356 79.998c-2.116 0-3.871-1.755-3.871-3.871v-72.254c0-2.116 1.755-3.871 3.871-3.871s3.871 1.755 3.871 3.871v72.254c0 2.116-1.755 3.871-3.871 3.871z"></path>
<path d="M60.644 79.998c-0.981 0-1.961-0.361-2.735-1.135l-12.903-12.903c-1.497-1.497-1.497-3.974 0-5.471s3.974-1.497 5.471 0l10.167 10.167 10.167-10.167c1.497-1.497 3.974-1.497 5.471 0s1.497 3.974 0 5.471l-12.903 12.903c-0.774 0.774-1.755 1.135-2.735 1.135z"></path>
<path d="M60.644 79.998c-2.116 0-3.871-1.755-3.871-3.871v-72.254c0-2.116 1.755-3.871 3.871-3.871s3.871 1.755 3.871 3.871v72.254c0 2.116-1.755 3.871-3.871 3.871z"></path>
</svg>
