<!-- Generated by IcoMoon.io -->
<svg version="1.1" xmlns="http://www.w3.org/2000/svg" width="80" height="80" viewBox="0 0 80 80">
<title>sort-numeric-down-alt</title>
<path d="M32.104 60.488l-6.296 6.296v-62.908c0-2.116-1.755-3.87-3.87-3.87s-3.87 1.755-3.87 3.87v62.908l-6.296-6.296c-1.497-1.497-3.974-1.497-5.47 0s-1.497 3.974 0 5.47l12.902 12.902c0.361 0.361 0.774 0.619 1.239 0.826s0.981 0.31 1.497 0.31 0.981-0.103 1.497-0.31c0.464-0.206 0.877-0.464 1.239-0.826l12.902-12.902c1.497-1.497 1.497-3.974 0-5.47s-3.974-1.497-5.47 0z"></path>
<path d="M65.855 44.49c-2.064-0.981-4.438-0.722-6.296 0.619l-3.354 1.858c-1.858 1.032-2.529 3.406-1.497 5.264s3.406 2.529 5.264 1.497l2.013-1.084v20.952c0 2.116 1.755 3.87 3.87 3.87s3.87-1.755 3.87-3.87v-22.965c0-2.684-1.445-5.057-3.819-6.141z"></path>
<path d="M63.223 2.585c-6.399 0-11.611 5.212-11.611 11.611s5.212 11.611 11.611 11.611c0.877 0 1.703-0.103 2.529-0.31-1.187 1.703-3.096 2.89-5.212 2.89h-2.477c-2.116 0-3.87 1.755-3.87 3.87s1.755 3.87 3.87 3.87h2.477c7.431 0 13.831-6.038 14.192-13.469 0.103-1.651 0.103-3.561 0.103-5.883v-2.58c0-6.399-5.212-11.611-11.611-11.611zM59.352 14.197c0-2.116 1.755-3.87 3.87-3.87s3.87 1.755 3.87 3.87-1.755 3.87-3.87 3.87-3.87-1.755-3.87-3.87z"></path>
</svg>
