<!-- Generated by IcoMoon.io -->
<svg version="1.1" xmlns="http://www.w3.org/2000/svg" width="80" height="80" viewBox="0 0 80 80">
<title>sort-numeric-up</title>
<path d="M24.673 1.14c-0.361-0.361-0.774-0.619-1.239-0.826-0.929-0.413-2.013-0.413-2.942 0-0.464 0.206-0.877 0.464-1.239 0.826l-12.902 12.902c-1.497 1.497-1.497 3.974 0 5.47s3.974 1.497 5.47 0l6.296-6.296v62.908c0 2.116 1.755 3.87 3.87 3.87s3.87-1.755 3.87-3.87v-62.908l6.296 6.296c0.774 0.774 1.755 1.135 2.735 1.135s1.961-0.361 2.735-1.135c1.497-1.497 1.497-3.974 0-5.47l-12.902-12.902z"></path>
<path d="M59.92 12.442l2.013-1.084v20.952c0 2.116 1.755 3.87 3.87 3.87s3.87-1.755 3.87-3.87v-22.965c0-2.684-1.445-5.057-3.819-6.141-2.064-0.981-4.438-0.722-6.296 0.619l-3.354 1.858c-1.858 1.032-2.529 3.406-1.497 5.264s3.354 2.529 5.264 1.497z"></path>
<path d="M63.223 43.87c-6.399 0-11.611 5.212-11.611 11.611s5.212 11.611 11.611 11.611c0.877 0 1.703-0.103 2.529-0.31-1.187 1.703-3.096 2.89-5.212 2.89h-2.477c-2.116 0-3.87 1.755-3.87 3.87s1.755 3.87 3.87 3.87h2.477c7.431 0 13.831-6.038 14.192-13.469 0.103-1.651 0.103-3.561 0.103-5.883v-2.58c0-6.399-5.212-11.611-11.611-11.611zM59.352 55.482c0-2.116 1.755-3.87 3.87-3.87s3.87 1.755 3.87 3.87-1.755 3.87-3.87 3.87-3.87-1.755-3.87-3.87z"></path>
</svg>
