<!-- Generated by IcoMoon.io -->
<svg version="1.1" xmlns="http://www.w3.org/2000/svg" width="80" height="80" viewBox="0 0 80 80">
<title>sort-amount-down-alt</title>
<path d="M14.854 75.432c-0.869 0-1.737-0.32-2.423-1.006l-11.43-11.43c-1.326-1.326-1.326-3.52 0-4.846s3.52-1.326 4.846 0l9.007 9.007 9.007-9.007c1.326-1.326 3.52-1.326 4.846 0s1.326 3.52 0 4.846l-11.43 11.43c-0.686 0.686-1.555 1.006-2.423 1.006z"></path>
<path d="M14.854 75.432c-1.874 0-3.429-1.555-3.429-3.429v-64.007c0-1.874 1.555-3.429 3.429-3.429s3.429 1.555 3.429 3.429v64.007c0 1.874-1.555 3.429-3.429 3.429z"></path>
<path d="M76.575 64.003h-36.575c-1.874 0-3.429-1.555-3.429-3.429s1.555-3.429 3.429-3.429h36.575c1.874 0 3.429 1.555 3.429 3.429s-1.555 3.429-3.429 3.429z"></path>
<path d="M58.288 36.571h-18.288c-1.874 0-3.429-1.555-3.429-3.429s1.555-3.429 3.429-3.429h18.288c1.874 0 3.429 1.555 3.429 3.429s-1.555 3.429-3.429 3.429z"></path>
<path d="M49.144 22.855h-9.144c-1.874 0-3.429-1.555-3.429-3.429s1.555-3.429 3.429-3.429h9.144c1.874 0 3.429 1.555 3.429 3.429s-1.555 3.429-3.429 3.429z"></path>
<path d="M67.432 50.287h-27.432c-1.874 0-3.429-1.555-3.429-3.429s1.555-3.429 3.429-3.429h27.432c1.874 0 3.429 1.555 3.429 3.429s-1.555 3.429-3.429 3.429z"></path>
</svg>
