<!-- Generated by IcoMoon.io -->
<svg version="1.1" xmlns="http://www.w3.org/2000/svg" width="80" height="80" viewBox="0 0 80 80">
<title>sort-alt-slash</title>
<path d="M9.19 19.512l6.296-6.296v29.365c0 2.116 1.755 3.871 3.871 3.871s3.871-1.755 3.871-3.871v-29.365l6.296 6.296c0.774 0.774 1.755 1.135 2.735 1.135s1.961-0.361 2.735-1.135c1.497-1.497 1.497-3.974 0-5.47l-12.902-12.902c-0.361-0.361-0.774-0.619-1.239-0.826-0.929-0.413-2.013-0.413-2.942 0-0.464 0.206-0.877 0.464-1.239 0.826l-12.902 12.902c-1.497 1.497-1.497 3.974 0 5.47s3.974 1.497 5.47 0z"></path>
<path d="M70.81 60.488l-6.296 6.296v-29.365c0-2.116-1.755-3.871-3.871-3.871s-3.871 1.755-3.871 3.871v29.365l-6.296-6.296c-1.497-1.497-3.974-1.497-5.47 0s-1.497 3.974 0 5.47l12.902 12.902c0.361 0.361 0.774 0.619 1.239 0.826s0.981 0.31 1.497 0.31 1.032-0.103 1.497-0.31c0.464-0.206 0.877-0.464 1.239-0.826l12.902-12.902c1.497-1.497 1.497-3.974 0-5.47s-3.974-1.497-5.47 0z"></path>
<path d="M76.28 9.19c1.497-1.497 1.497-3.974 0-5.47s-3.974-1.497-5.47 0l-6.296 6.296v-6.141c0-2.116-1.755-3.871-3.871-3.871s-3.871 1.755-3.871 3.871v13.882l-53.053 53.053c-1.497 1.497-1.497 3.974 0 5.47 0.774 0.774 1.755 1.135 2.735 1.135s1.961-0.361 2.735-1.135l6.296-6.296v6.141c0 2.116 1.755 3.871 3.871 3.871s3.871-1.755 3.871-3.871v-13.882l53.053-53.053z"></path>
</svg>
