<!-- Generated by IcoMoon.io -->
<svg version="1.1" xmlns="http://www.w3.org/2000/svg" width="80" height="80" viewBox="0 0 80 80">
<title>sort</title>
<path d="M65.715 34.643h-51.43c-0.006 0-0.014 0-0.021 0-1.319 0-2.45-0.805-2.928-1.951l-0.008-0.021c-0.159-0.368-0.251-0.796-0.251-1.246 0-0.885 0.358-1.687 0.937-2.269l25.715-25.715c0.581-0.581 1.385-0.94 2.271-0.94s1.69 0.359 2.272 0.94v0l25.715 25.715c0.579 0.581 0.937 1.383 0.937 2.268 0 0.45-0.092 0.878-0.259 1.267l0.008-0.021c-0.486 1.167-1.617 1.972-2.936 1.972-0.008 0-0.015 0-0.023-0h0.001zM22.043 28.214h35.915l-17.957-17.957z"></path>
<path d="M40 77.501c-0.004 0-0.010 0-0.015 0-0.883 0-1.681-0.361-2.256-0.943l-25.715-25.715c-0.579-0.581-0.937-1.383-0.937-2.268 0-0.45 0.092-0.878 0.259-1.267l-0.008 0.021c0.486-1.167 1.617-1.972 2.936-1.972 0.008 0 0.015 0 0.023 0h51.428c0.006 0 0.014-0 0.021-0 1.319 0 2.45 0.805 2.928 1.951l0.008 0.021c0.159 0.368 0.251 0.796 0.251 1.246 0 0.885-0.358 1.687-0.937 2.269l-25.715 25.715c-0.575 0.582-1.374 0.943-2.256 0.943-0.005 0-0.011 0-0.016 0h0.001zM22.043 51.786l17.957 17.957 17.957-17.957z"></path>
</svg>
