<!-- Generated by IcoMoon.io -->
<svg version="1.1" xmlns="http://www.w3.org/2000/svg" width="80" height="80" viewBox="0 0 80 80">
<title>spinner</title>
<path d="M40 79.999c-22.076-0.019-39.965-17.92-39.965-39.999 0-22.091 17.908-39.999 39.999-39.999 10.628 0 20.288 4.145 27.451 10.907l-0.019-0.018c0.602 0.603 0.975 1.436 0.975 2.355s-0.373 1.752-0.975 2.356v0c-0.598 0.613-1.432 0.994-2.355 0.994s-1.757-0.38-2.355-0.993l-0.001-0.001c-5.95-5.576-13.975-9.001-22.799-9.001-18.434 0-33.377 14.943-33.377 33.377s14.943 33.377 33.377 33.377c18.425 0 33.364-14.93 33.377-33.353v-0.001c0-1.841 1.492-3.333 3.333-3.333s3.333 1.492 3.333 3.333v0c0 22.091-17.908 39.999-39.999 39.999v0z"></path>
</svg>
