<!-- Generated by IcoMoon.io -->
<svg version="1.1" xmlns="http://www.w3.org/2000/svg" width="80" height="80" viewBox="0 0 80 80">
<title>star</title>
<path d="M62.708 78.21c-0.561-0.001-1.087-0.146-1.545-0.401l0.016 0.008-21.179-11.136-21.179 11.136c-0.448 0.245-0.982 0.39-1.549 0.39-0.713 0-1.373-0.228-1.91-0.615l0.010 0.007c-0.827-0.611-1.357-1.582-1.357-2.677 0-0.196 0.017-0.388 0.050-0.575l-0.003 0.020 4.105-23.581-17.206-16.682c-0.592-0.593-0.958-1.411-0.958-2.315 0-0.375 0.063-0.735 0.179-1.071l-0.007 0.023c0.378-1.174 1.378-2.043 2.602-2.225l0.018-0.002 23.669-3.45 10.612-21.441c0.605-1.002 1.688-1.662 2.926-1.662s2.321 0.66 2.917 1.647l0.009 0.015 10.612 21.441 23.669 3.45c1.242 0.184 2.242 1.053 2.614 2.204l0.006 0.023c0.109 0.313 0.172 0.673 0.172 1.048 0 0.904-0.366 1.722-0.958 2.315v0l-17.206 16.682 4.061 23.581c0.030 0.167 0.047 0.359 0.047 0.555 0 1.095-0.53 2.066-1.348 2.67l-0.009 0.006c-0.525 0.367-1.174 0.594-1.873 0.611l-0.004 0zM40 59.738c0.556 0.007 1.081 0.135 1.551 0.359l-0.022-0.010 16.813 8.734-3.188-18.734c-0.029-0.166-0.045-0.358-0.045-0.553 0-0.923 0.367-1.76 0.963-2.373l-0.001 0.001 13.625-13.101-18.821-2.795c-1.077-0.176-1.966-0.849-2.437-1.772l-0.009-0.019-8.428-17.031-8.428 17.075c-0.479 0.941-1.369 1.615-2.426 1.788l-0.019 0.003-18.821 2.751 13.625 13.101c0.595 0.613 0.962 1.45 0.962 2.373 0 0.195-0.016 0.387-0.048 0.573l0.003-0.020-3.188 18.865 16.813-8.734c0.44-0.258 0.959-0.429 1.514-0.479l0.014-0.001z"></path>
</svg>
