<!-- Generated by IcoMoon.io -->
<svg version="1.1" xmlns="http://www.w3.org/2000/svg" width="80" height="80" viewBox="0 0 80 80">
<title>star-fill</title>
<path d="M79.832 30.741c-0.378-1.174-1.378-2.043-2.603-2.225l-0.018-0.002-23.672-3.45-10.613-21.445c-0.605-1.002-1.689-1.662-2.926-1.662s-2.321 0.66-2.918 1.647l-0.009 0.015-10.613 21.445-23.672 3.45c-1.242 0.184-2.242 1.053-2.614 2.205l-0.006 0.023c-0.109 0.313-0.172 0.673-0.172 1.048 0 0.904 0.366 1.723 0.958 2.315v0l17.208 16.684-4.062 23.585c-0.030 0.167-0.047 0.359-0.047 0.555 0 1.095 0.53 2.066 1.348 2.671l0.009 0.006c0.528 0.38 1.188 0.608 1.901 0.608 0.567 0 1.101-0.144 1.567-0.398l-0.017 0.009 21.139-11.137 21.183 11.137c0.441 0.247 0.968 0.392 1.528 0.393h0c0.72-0.009 1.384-0.236 1.933-0.619l-0.011 0.007c0.827-0.611 1.357-1.582 1.357-2.677 0-0.196-0.017-0.388-0.050-0.575l0.003 0.020-4.106-23.585 17.164-16.684c0.612-0.596 0.991-1.427 0.991-2.348 0-0.363-0.059-0.712-0.168-1.039l0.007 0.023z"></path>
</svg>
