<!-- Generated by IcoMoon.io -->
<svg version="1.1" xmlns="http://www.w3.org/2000/svg" width="80" height="80" viewBox="0 0 80 80">
<title>step-forward-alt</title>
<path d="M60.644 0.002c-2.116 0-3.871 1.755-3.871 3.871v31.947l-34.682-34.682c-1.084-1.084-2.787-1.445-4.232-0.826s-2.374 2.013-2.374 3.561v72.254c0 1.548 0.929 2.993 2.374 3.561 0.464 0.206 0.981 0.31 1.497 0.31 1.032 0 2.013-0.413 2.735-1.135l34.682-34.682v31.947c0 2.116 1.755 3.871 3.871 3.871s3.871-1.755 3.871-3.871v-72.254c0-2.116-1.755-3.871-3.871-3.871zM23.227 66.786v-53.571l26.786 26.786-26.786 26.786z"></path>
</svg>
