<!-- Generated by IcoMoon.io -->
<svg version="1.1" xmlns="http://www.w3.org/2000/svg" width="80" height="80" viewBox="0 0 80 80">
<title>step-forward</title>
<path d="M19.355 79.999c-0.541-0.003-1.055-0.117-1.522-0.319l0.025 0.010c-1.405-0.585-2.374-1.947-2.374-3.535 0-0.009 0-0.018 0-0.027v0.001-72.256c0-0.008-0-0.017-0-0.026 0-1.588 0.97-2.95 2.349-3.526l0.025-0.009c0.443-0.191 0.959-0.303 1.5-0.303 1.066 0 2.032 0.431 2.732 1.128l36.128 36.128c0.699 0.7 1.132 1.667 1.132 2.735s-0.433 2.035-1.132 2.735v0l-36.128 36.128c-0.705 0.692-1.669 1.123-2.733 1.135h-0.002zM23.226 13.214v53.573l26.786-26.786z"></path>
<path d="M60.645 79.999c-2.126-0.029-3.842-1.745-3.871-3.868v-72.259c0-2.138 1.733-3.871 3.871-3.871s3.871 1.733 3.871 3.871v0 72.256c-0.029 2.126-1.745 3.842-3.868 3.871h-0.003z"></path>
</svg>
