<!-- Generated by IcoMoon.io -->
<svg version="1.1" xmlns="http://www.w3.org/2000/svg" width="80" height="80" viewBox="0 0 80 80">
<title>step-backward</title>
<path d="M60.645 79.999c-1.067-0.013-2.030-0.444-2.736-1.136l-36.128-36.128c-0.699-0.7-1.132-1.667-1.132-2.735s0.433-2.035 1.132-2.735v0l36.128-36.128c0.7-0.697 1.666-1.128 2.732-1.128 0.542 0 1.057 0.111 1.526 0.312l-0.025-0.010c1.405 0.585 2.374 1.947 2.374 3.535 0 0.009 0 0.018-0 0.027v-0.001 72.256c0 0.008 0 0.017 0 0.026 0 1.588-0.97 2.95-2.349 3.526l-0.025 0.009c-0.441 0.193-0.955 0.307-1.496 0.31h-0.001zM29.987 40l26.786 26.786v-53.573z"></path>
<path d="M19.355 79.999c-2.126-0.029-3.842-1.745-3.871-3.868v-72.259c0-2.138 1.733-3.871 3.871-3.871s3.871 1.733 3.871 3.871v0 72.256c-0.029 2.126-1.745 3.842-3.868 3.871h-0.003z"></path>
</svg>
