<!-- Generated by IcoMoon.io -->
<svg version="1.1" xmlns="http://www.w3.org/2000/svg" width="80" height="80" viewBox="0 0 80 80">
<title>step-backward-alt</title>
<path d="M62.141 0.312c-1.445-0.568-3.097-0.258-4.232 0.826l-34.682 34.682v-31.947c0-2.116-1.755-3.871-3.871-3.871s-3.871 1.755-3.871 3.871v72.254c0 2.116 1.755 3.871 3.871 3.871s3.871-1.755 3.871-3.871v-31.947l34.682 34.682c0.723 0.722 1.755 1.135 2.735 1.135 0.516 0 0.981-0.103 1.497-0.31 1.445-0.619 2.374-2.013 2.374-3.561v-72.254c0-1.548-0.929-2.993-2.374-3.561zM56.773 66.786l-26.786-26.786 26.786-26.786v53.571z"></path>
</svg>
