<!-- Generated by IcoMoon.io -->
<svg version="1.1" xmlns="http://www.w3.org/2000/svg" width="80" height="80" viewBox="0 0 80 80">
<title>stop-circle</title>
<path d="M40 79.999c-22.091 0-39.999-17.908-39.999-39.999s17.908-39.999 39.999-39.999c22.091 0 39.999 17.908 39.999 39.999v0c0 22.091-17.908 39.999-39.999 39.999v0zM40 6.667c-18.409 0-33.333 14.924-33.333 33.333s14.924 33.333 33.333 33.333c18.409 0 33.333-14.924 33.333-33.333v0c0-18.409-14.924-33.333-33.333-33.333v0z"></path>
<path d="M28.889 22.222h22.222c3.682 0 6.667 2.985 6.667 6.667v22.222c0 3.682-2.985 6.667-6.667 6.667h-22.222c-3.682 0-6.667-2.985-6.667-6.667v-22.222c0-3.682 2.985-6.667 6.667-6.667z"></path>
</svg>
