<!-- Generated by IcoMoon.io -->
<svg version="1.1" xmlns="http://www.w3.org/2000/svg" width="80" height="80" viewBox="0 0 80 80">
<title>stop</title>
<path d="M65.805 79.998h-51.611c-7.839 0-14.193-6.354-14.193-14.193v0-51.611c0-7.839 6.354-14.193 14.193-14.193v0h51.611c7.839 0 14.193 6.354 14.193 14.193v0 51.611c0 7.839-6.354 14.193-14.193 14.193v0zM14.195 7.743c-3.563 0-6.451 2.888-6.451 6.451v0 51.611c0 3.563 2.888 6.451 6.451 6.451v0h51.611c3.563 0 6.451-2.888 6.451-6.451v0-51.611c0-3.563-2.888-6.451-6.451-6.451v0z"></path>
</svg>
