<!-- Generated by IcoMoon.io -->
<svg version="1.1" xmlns="http://www.w3.org/2000/svg" width="80" height="80" viewBox="0 0 80 80">
<title>stopwatch</title>
<path d="M38.75 10.001c-19.299 0-34.998 15.699-34.998 34.998s15.699 34.998 34.998 34.998 34.998-15.699 34.998-34.998-15.699-34.998-34.998-34.998zM38.75 72.498c-15.149 0-27.499-12.349-27.499-27.499s12.349-27.499 27.499-27.499 27.499 12.349 27.499 27.499-12.349 27.499-27.499 27.499zM22.501 3.752c0-2.050 1.7-3.75 3.75-3.75h24.999c2.050 0 3.75 1.7 3.75 3.75s-1.7 3.75-3.75 3.75h-24.999c-2.050 0-3.75-1.7-3.75-3.75zM42.5 30.001v14.999c0 2.050-1.7 3.75-3.75 3.75s-3.75-1.7-3.75-3.75v-14.999c0-2.050 1.7-3.75 3.75-3.75s3.75 1.7 3.75 3.75zM75.198 21.351c-0.75 0.75-1.7 1.1-2.65 1.1s-1.9-0.35-2.65-1.1l-7.5-7.5c-1.45-1.45-1.45-3.85 0-5.3s3.85-1.45 5.3 0l7.5 7.5c1.45 1.45 1.45 3.85 0 5.3z"></path>
</svg>
