<!-- Generated by IcoMoon.io -->
<svg version="1.1" xmlns="http://www.w3.org/2000/svg" width="80" height="80" viewBox="0 0 80 80">
<title>sun</title>
<path d="M40 63c-12.702 0-23-10.297-23-23s10.297-23 23-23c12.702 0 23 10.297 23 23v0c-0.023 12.693-10.306 22.977-22.997 23h-0.002zM40 23c-9.389 0-17 7.611-17 17s7.611 17 17 17c9.389 0 17-7.611 17-17v0c-0.023-9.38-7.62-16.977-16.997-17h-0.002z"></path>
<path d="M40 12c-1.648-0.022-2.978-1.352-3-2.998v-6.002c0-1.657 1.343-3 3-3s3 1.343 3 3v0 6c-0.022 1.648-1.352 2.978-2.998 3h-0.002z"></path>
<path d="M40 79.999c-1.648-0.022-2.978-1.352-3-2.998v-6.002c0-1.657 1.343-3 3-3s3 1.343 3 3v0 6c-0.022 1.648-1.352 2.978-2.998 3h-0.002z"></path>
<path d="M76.999 43h-6c-1.657 0-3-1.343-3-3s1.343-3 3-3v0h6c1.657 0 3 1.343 3 3s-1.343 3-3 3v0z"></path>
<path d="M9 43h-6c-1.657 0-3-1.343-3-3s1.343-3 3-3v0h6c1.657 0 3 1.343 3 3s-1.343 3-3 3v0z"></path>
<path d="M18 21c-0.8-0.063-1.503-0.435-1.997-0.997l-0.003-0.003-4.36-4c-0.558-0.558-0.903-1.329-0.903-2.18 0-1.703 1.38-3.083 3.083-3.083 0.851 0 1.622 0.345 2.18 0.903v0l4 4.36c0.474 0.528 0.764 1.23 0.764 2s-0.29 1.472-0.766 2.003l0.002-0.003c-0.497 0.564-1.2 0.937-1.99 0.999l-0.010 0.001z"></path>
<path d="M66.24 69.239c-0.004 0-0.009 0-0.014 0-0.824 0-1.569-0.336-2.106-0.88l-0-0-4.12-4.36c-0.185-0.378-0.293-0.823-0.293-1.293 0-1.657 1.343-3 3-3 0.47 0 0.915 0.108 1.311 0.301l-0.018-0.008 4.36 4c0.542 0.543 0.877 1.292 0.877 2.12s-0.335 1.577-0.877 2.12v0c-0.524 0.591-1.275 0.971-2.115 1l-0.005 0z"></path>
<path d="M62 21c-0.8-0.063-1.503-0.435-1.997-0.997l-0.003-0.003c-0.474-0.528-0.764-1.23-0.764-2s0.29-1.472 0.766-2.003l-0.002 0.003 4-4.36c0.558-0.558 1.329-0.903 2.18-0.903 1.703 0 3.083 1.38 3.083 3.083 0 0.851-0.345 1.622-0.903 2.18v0l-4.36 4c-0.497 0.564-1.2 0.937-1.99 0.999l-0.010 0.001z"></path>
<path d="M13.76 69.239c-0.004 0-0.009 0-0.014 0-0.824 0-1.569-0.336-2.106-0.88l-0-0c-0.542-0.543-0.877-1.292-0.877-2.12s0.335-1.577 0.877-2.12v0l4.36-4.12c0.378-0.185 0.823-0.293 1.293-0.293 1.657 0 3 1.343 3 3 0 0.47-0.108 0.915-0.301 1.311l0.008-0.018-4 4.36c-0.537 0.545-1.284 0.883-2.109 0.883-0.046 0-0.092-0.001-0.138-0.003l0.006 0z"></path>
</svg>
