<!-- Generated by IcoMoon.io -->
<svg version="1.1" xmlns="http://www.w3.org/2000/svg" width="80" height="80" viewBox="0 0 80 80">
<title>sync</title>
<path d="M73.185 0.003c-2.126 0.029-3.842 1.745-3.871 3.868v12.544l-4.335-4.335c-6.773-6.829-16.159-11.056-26.533-11.056-16.355 0-30.256 10.508-35.32 25.141l-0.079 0.262c-0.198 0.446-0.313 0.966-0.313 1.514 0 1.705 1.117 3.149 2.66 3.64l0.027 0.007c0.194 0.035 0.417 0.056 0.645 0.056s0.451-0.020 0.668-0.059l-0.023 0.003c1.688-0.018 3.119-1.099 3.656-2.605l0.008-0.027c1.526-4.452 3.947-8.254 7.069-11.352l0.002-0.002c5.375-5.355 12.791-8.666 20.979-8.666s15.604 3.311 20.98 8.667l4.334 4.334h-12.438c-2.138 0-3.871 1.733-3.871 3.871s1.733 3.871 3.871 3.871v0h21.882c0.015 0 0.034 0 0.052 0 2.109 0 3.819-1.71 3.819-3.819 0-0.018-0-0.037-0-0.055v0.003-21.934c0-2.138-1.733-3.871-3.871-3.871v0z"></path>
<path d="M74.475 48.67c-0.425-0.172-0.918-0.272-1.435-0.272-1.728 0-3.196 1.118-3.718 2.67l-0.008 0.028c-1.526 4.452-3.948 8.254-7.069 11.352l-0.002 0.002c-5.375 5.355-12.791 8.666-20.979 8.666s-15.604-3.311-20.98-8.667l-4.334-4.334h12.748c2.138 0 3.871-1.733 3.871-3.871s-1.733-3.871-3.871-3.871v0h-21.882c-0.015-0-0.034-0-0.052-0-2.109 0-3.819 1.71-3.819 3.819 0 0.018 0 0.037 0 0.055v-0.003 21.882c0 2.138 1.733 3.871 3.871 3.871s3.871-1.733 3.871-3.871v0-12.541l4.335 4.335c6.773 6.829 16.159 11.056 26.533 11.056 16.355 0 30.256-10.508 35.32-25.141l0.079-0.263c0.134-0.374 0.212-0.805 0.212-1.255 0-1.706-1.119-3.151-2.662-3.641l-0.027-0.007z"></path>
</svg>
