<!-- Generated by IcoMoon.io -->
<svg version="1.1" xmlns="http://www.w3.org/2000/svg" width="80" height="80" viewBox="0 0 80 80">
<title>tablet</title>
<path d="M67.427 0.002h-54.855c-4.408 0.026-7.974 3.592-8 7.997v64c0.026 4.408 3.592 7.974 7.997 8h54.857c4.408-0.026 7.974-3.592 8-7.997v-64c-0.026-4.408-3.592-7.974-7.997-8h-0.002zM68.57 71.999c0 0.631-0.512 1.143-1.143 1.143v0h-54.855c-0.631 0-1.143-0.512-1.143-1.143v0-63.997c0-0.631 0.512-1.143 1.143-1.143v0h54.855c0.631 0 1.143 0.512 1.143 1.143v0z"></path>
<path d="M40 51.428c-3.787 0-6.857 3.070-6.857 6.857s3.070 6.857 6.857 6.857c3.787 0 6.857-3.070 6.857-6.857v0c0-3.787-3.070-6.857-6.857-6.857v0zM40 58.285v0z"></path>
</svg>
