<!-- Generated by IcoMoon.io -->
<svg version="1.1" xmlns="http://www.w3.org/2000/svg" width="80" height="80" viewBox="0 0 80 80">
<title>table</title>
<path d="M67.429 4.571h-54.857c-6.943 0-12.571 5.628-12.571 12.571v0 45.714c0 6.943 5.628 12.571 12.571 12.571v0h54.857c6.943 0 12.571-5.628 12.571-12.571v0-45.714c0-6.943-5.628-12.571-12.571-12.571v0zM73.143 17.143v19.429h-29.714v-25.143h24c3.156 0 5.714 2.558 5.714 5.714v0zM12.571 11.429h24v25.143h-29.714v-19.429c0-3.156 2.558-5.714 5.714-5.714v0zM6.857 62.857v-19.429h29.714v25.143h-24c-3.156 0-5.714-2.558-5.714-5.714v0zM67.429 68.571h-24v-25.143h29.714v19.429c0 3.156-2.558 5.714-5.714 5.714v0z"></path>
</svg>
