<!-- Generated by IcoMoon.io -->
<svg version="1.1" xmlns="http://www.w3.org/2000/svg" width="80" height="80" viewBox="0 0 80 80">
<title>tag</title>
<path d="M41.604 79.999c-2.907 0-5.814-1.103-8.020-3.308l-32.48-32.43c-0.702-0.702-1.103-1.654-1.103-2.657v-37.843c0-2.055 1.704-3.759 3.759-3.759h37.793c1.002 0 1.955 0.401 2.657 1.103l32.48 32.48c4.361 4.411 4.361 11.579 0 15.99 0 0 0 0 0 0l-27.117 27.117c-2.205 2.205-5.113 3.308-8.020 3.308zM7.52 40.050l31.378 31.327c1.504 1.454 3.91 1.454 5.363 0l27.117-27.117c1.454-1.454 1.454-3.86 0-5.363l-31.377-31.377h-32.48v32.48zM74.034 46.917v0zM22.457 28.722c-3.459 0-6.265-2.807-6.265-6.265s2.807-6.265 6.265-6.265 6.265 2.807 6.265 6.265-2.807 6.265-6.265 6.265z"></path>
</svg>
