<!-- Generated by IcoMoon.io -->
<svg version="1.1" xmlns="http://www.w3.org/2000/svg" width="80" height="80" viewBox="0 0 80 80">
<title>tags</title>
<path d="M77.238 33.020l-24.634-24.634c-0.575-0.575-1.355-0.903-2.176-0.903h-47.379c-1.683 0-3.079 1.396-3.079 3.079v32.353c0 0.821 0.328 1.601 0.903 2.176l24.634 24.593c1.806 1.806 4.188 2.792 6.733 2.792v0c2.545 0 4.968-0.985 6.733-2.792l0.903-0.903c0.164 0.328 0.328 0.657 0.616 0.903 1.848 1.848 4.311 2.792 6.733 2.792s4.886-0.944 6.774-2.792l23.197-23.197c3.695-3.695 3.695-9.73 0-13.467zM34.663 65.332c-0.657 0.657-1.478 0.985-2.381 0.985s-1.765-0.37-2.381-0.985l-23.772-23.69v-28.001h28.001l23.731 23.731c1.314 1.314 1.314 3.449 0 4.763l-23.197 23.197zM72.886 42.135l-23.197 23.197c-1.314 1.314-3.49 1.314-4.804 0-0.287-0.287-0.575-0.452-0.944-0.616l18.229-18.229c3.695-3.736 3.695-9.771 0-13.467l-19.379-19.379h6.323l23.731 23.731c1.314 1.314 1.314 3.449 0 4.763zM24.604 25.63c0 2.833-2.299 5.132-5.132 5.132s-5.132-2.299-5.132-5.132 2.299-5.132 5.132-5.132 5.132 2.299 5.132 5.132z"></path>
</svg>
