<!-- Generated by IcoMoon.io -->
<svg version="1.1" xmlns="http://www.w3.org/2000/svg" width="80" height="80" viewBox="0 0 80 80">
<title>telegram</title>
<path d="M40 0.001c-22.091 0-39.999 17.908-39.999 39.999s17.908 39.999 39.999 39.999c22.091 0 39.999-17.908 39.999-39.999v0c0-22.091-17.908-39.999-39.999-39.999v0zM59.65 27.4l-6.55 30.949c-0.5 2.2-1.8 2.7-3.65 1.7l-10-7.4-5 4.65c-0.466 0.604-1.187 0.992-1.999 1h-0.001l0.7-10 18.5-16.75c0.85-0.7 0-1.1-1.2-0.4l-22.7 14.25-10-3.1c-2.15-0.65-2.2-2.15 0.45-3.15l38.549-15c1.9-0.55 3.5 0.55 2.9 3.25z"></path>
</svg>
