<!-- Generated by IcoMoon.io -->
<svg version="1.1" xmlns="http://www.w3.org/2000/svg" width="80" height="80" viewBox="0 0 80 80">
<title>th-large</title>
<path d="M25.455 36.364h-14.545c-6.025 0-10.909-4.884-10.909-10.909v0-14.545c0-6.025 4.884-10.909 10.909-10.909v0h14.545c6.025 0 10.909 4.884 10.909 10.909v0 14.545c0 6.025-4.884 10.909-10.909 10.909v0zM10.909 7.273c-1.997 0.027-3.609 1.639-3.636 3.634v14.548c0.027 1.997 1.639 3.609 3.634 3.636h14.548c1.997-0.027 3.609-1.639 3.636-3.634v-14.548c-0.027-1.997-1.639-3.609-3.634-3.636h-0.003z"></path>
<path d="M25.455 80h-14.545c-6.025 0-10.909-4.884-10.909-10.909v0-14.545c0-6.025 4.884-10.909 10.909-10.909v0h14.545c6.025 0 10.909 4.884 10.909 10.909v0 14.545c0 6.025-4.884 10.909-10.909 10.909v0zM10.909 50.909c-1.997 0.027-3.609 1.639-3.636 3.634v14.548c0.027 1.997 1.639 3.609 3.634 3.636h14.548c1.997-0.027 3.609-1.639 3.636-3.634v-14.548c-0.027-1.997-1.639-3.609-3.634-3.636h-0.003z"></path>
<path d="M69.091 36.364h-14.545c-6.025 0-10.909-4.884-10.909-10.909v0-14.545c0-6.025 4.884-10.909 10.909-10.909v0h14.545c6.025 0 10.909 4.884 10.909 10.909v0 14.545c0 6.025-4.884 10.909-10.909 10.909v0zM54.545 7.273c-1.997 0.027-3.609 1.639-3.636 3.634v14.548c0.027 1.997 1.639 3.609 3.634 3.636h14.548c1.997-0.027 3.609-1.639 3.636-3.634v-14.548c-0.027-1.997-1.639-3.609-3.634-3.636h-0.003z"></path>
<path d="M69.091 80h-14.545c-6.025 0-10.909-4.884-10.909-10.909v0-14.545c0-6.025 4.884-10.909 10.909-10.909v0h14.545c6.025 0 10.909 4.884 10.909 10.909v0 14.545c0 6.025-4.884 10.909-10.909 10.909v0zM54.545 50.909c-1.997 0.027-3.609 1.639-3.636 3.634v14.548c0.027 1.997 1.639 3.609 3.634 3.636h14.548c1.997-0.027 3.609-1.639 3.636-3.634v-14.548c-0.027-1.997-1.639-3.609-3.634-3.636h-0.003z"></path>
</svg>
