<!-- Generated by IcoMoon.io -->
<svg version="1.1" xmlns="http://www.w3.org/2000/svg" width="80" height="80" viewBox="0 0 80 80">
<title>thumbs-down</title>
<path d="M69.162 0.005h-52.884c-4.982 0-9.233 3.565-10.101 8.502l-5.988 34.281c-0.503 3.017 0.32 6.079 2.24 8.41 1.965 2.331 4.799 3.657 7.862 3.657h18.42v12.57c0 6.948 5.622 12.57 12.935 12.57 3.2 0 6.079-1.92 7.359-4.891l11.61-27.105h8.593c5.988 0 10.833-4.845 10.833-10.833v-26.374c0-5.942-4.845-10.787-10.833-10.787zM54.901 43.885l-12.204 28.568c-0.183 0.411-0.594 0.731-1.463 0.731-3.154 0-5.668-2.56-5.668-5.714v-19.426h-25.277c-1.051 0-1.965-0.411-2.605-1.188-0.686-0.777-0.914-1.783-0.731-2.834l5.988-34.281c0.274-1.645 1.691-2.834 3.382-2.834h38.578v36.978zM73.138 37.166c0 2.194-1.783 3.977-3.977 3.977h-7.359v-34.281h7.359c2.194 0 3.977 1.783 3.977 3.931v26.374z"></path>
</svg>
