<!-- Generated by IcoMoon.io -->
<svg version="1.1" xmlns="http://www.w3.org/2000/svg" width="80" height="80" viewBox="0 0 80 80">
<title>thumbs-up</title>
<path d="M77.575 28.801c-1.966-2.331-4.8-3.657-7.863-3.657h-18.422v-12.571c0-6.948-5.623-12.571-12.937-12.571-3.2 0-6.080 1.92-7.36 4.891l-11.611 27.107h-8.548c-5.988 0-10.834 4.846-10.834 10.834v26.376c0 5.943 4.891 10.788 10.834 10.788h52.843c4.983 0 9.234-3.566 10.102-8.502l6.034-34.284c0.503-3.017-0.32-6.080-2.286-8.411zM10.836 73.141c-2.194 0-3.977-1.783-3.977-3.931v-26.376c0-2.194 1.783-3.977 3.977-3.977h7.36v34.284h-7.36zM67.062 70.307c-0.274 1.646-1.691 2.834-3.383 2.834h-38.581v-37.027l12.205-28.57c0.183-0.411 0.594-0.731 1.463-0.731 3.154 0 5.668 2.56 5.668 5.714v19.428h25.279c1.051 0 1.966 0.411 2.606 1.189s0.914 1.783 0.731 2.834l-6.034 34.284z"></path>
</svg>
