<!-- Generated by IcoMoon.io -->
<svg version="1.1" xmlns="http://www.w3.org/2000/svg" width="80" height="80" viewBox="0 0 80 80">
<title>times</title>
<path d="M45.854 40l24.411-24.411c0.812-0.758 1.318-1.835 1.318-3.030 0-2.288-1.854-4.142-4.142-4.142-1.195 0-2.272 0.506-3.028 1.316l-0.002 0.002-24.411 24.411-24.411-24.411c-0.738-0.689-1.731-1.112-2.824-1.112-2.288 0-4.142 1.854-4.142 4.142 0 1.093 0.423 2.086 1.114 2.826l-0.002-0.002 24.411 24.411-24.411 24.411c-0.749 0.749-1.211 1.784-1.211 2.927s0.463 2.178 1.211 2.927v0c0.749 0.749 1.784 1.211 2.927 1.211s2.178-0.463 2.927-1.211v0l24.411-24.411 24.411 24.411c0.749 0.749 1.784 1.211 2.927 1.211s2.178-0.463 2.927-1.211v0c0.749-0.749 1.211-1.784 1.211-2.927s-0.463-2.178-1.211-2.927v0z"></path>
</svg>
