<!-- Generated by IcoMoon.io -->
<svg version="1.1" xmlns="http://www.w3.org/2000/svg" width="80" height="80" viewBox="0 0 80 80">
<title>trash</title>
<path d="M76.551 24.923h-73.103c-1.893 0-3.427-1.534-3.427-3.427s1.534-3.427 3.427-3.427h73.103c1.893 0 3.427 1.534 3.427 3.427s-1.534 3.427-3.427 3.427v0z"></path>
<path d="M60.286 79.978h-40.572c-0.224 0.016-0.485 0.026-0.748 0.026-5.84 0-10.614-4.565-10.947-10.322l-0.001-0.029v-47.928c0-1.892 1.534-3.427 3.427-3.427s3.427 1.534 3.427 3.427v0 47.928c0 1.873 2.147 3.472 4.569 3.472h40.572c2.559 0 4.569-1.599 4.569-3.472v-47.928c0-2.044 1.657-3.701 3.701-3.701s3.701 1.657 3.701 3.701v0 47.928c-0.335 5.786-5.108 10.351-10.948 10.351-0.263 0-0.524-0.009-0.783-0.028l0.035 0.002zM60.834 20.582c-0.014 0-0.030 0-0.046 0-1.867 0-3.381-1.514-3.381-3.381 0-0.016 0-0.032 0-0.048v0.003-6.808c0-1.873-2.193-3.472-4.569-3.472h-25.54c-2.513 0-4.569 1.599-4.569 3.472v6.808c0 1.892-1.534 3.427-3.427 3.427s-3.427-1.534-3.427-3.427v0-6.808c0.367-5.783 5.147-10.334 10.99-10.334 0.152 0 0.303 0.003 0.454 0.009l-0.022-0.001h25.403c0.17-0.009 0.369-0.015 0.569-0.015 5.845 0 10.627 4.555 10.989 10.309l0.002 0.032v6.808c0 0.014 0 0.030 0 0.046 0 1.892-1.534 3.427-3.427 3.427-0 0-0 0-0 0v0z"></path>
<path d="M31.867 62.845c-1.882-0.025-3.401-1.544-3.427-3.424v-20.7c0-1.892 1.534-3.427 3.427-3.427s3.427 1.534 3.427 3.427v0 20.651c0 0.014 0 0.030 0 0.046 0 1.893-1.534 3.427-3.427 3.427-0 0-0 0-0 0v0z"></path>
<path d="M48.133 62.845c-1.893 0-3.427-1.534-3.427-3.427v0-20.697c0-1.892 1.534-3.427 3.427-3.427s3.427 1.534 3.427 3.427v0 20.651c0 0 0 0 0 0 0 1.902-1.529 3.446-3.424 3.472h-0.002z"></path>
</svg>
