<!-- Generated by IcoMoon.io -->
<svg version="1.1" xmlns="http://www.w3.org/2000/svg" width="80" height="80" viewBox="0 0 80 80">
<title>truck</title>
<path d="M63.795 17.286h-8.653v-3.245c0-4.153-3.418-7.571-7.571-7.571h-40.019c-4.153 0-7.571 3.418-7.571 7.571v38.938c0 4.153 3.418 7.571 7.571 7.571h1.211c0.563 7.225 6.576 12.979 13.931 12.979s13.369-5.754 13.931-12.979h6.706c0.563 7.225 6.576 12.979 13.931 12.979s13.369-5.754 13.931-12.979h1.211c4.153 0 7.571-3.418 7.571-7.571v-19.469c0-8.956-7.268-16.224-16.224-16.224zM6.47 52.979v-38.938c0-0.606 0.476-1.082 1.082-1.082h40.019c0.606 0 1.082 0.476 1.082 1.082v34.352s-0.216 0.26-0.346 0.346c-0.649 0.563-1.255 1.168-1.817 1.817-0.173 0.216-0.346 0.389-0.476 0.606-0.649 0.909-1.255 1.817-1.644 2.855h-8.653s0 0 0-0.043c0 0 0 0 0 0-0.303-0.735-0.735-1.471-1.168-2.12-0.13-0.173-0.26-0.346-0.389-0.563-0.346-0.519-0.735-0.952-1.168-1.428-0.173-0.173-0.303-0.346-0.476-0.519-0.562-0.519-1.125-0.995-1.731-1.428-0.086-0.043-0.13-0.13-0.216-0.173-0.649-0.433-1.341-0.779-2.033-1.125-0.26-0.13-0.519-0.216-0.779-0.303-0.563-0.216-1.082-0.389-1.644-0.519-0.26-0.043-0.519-0.13-0.779-0.173-0.822-0.173-1.687-0.26-2.553-0.26s-1.687 0.086-2.553 0.26c-0.26 0.043-0.519 0.13-0.779 0.173-0.562 0.13-1.125 0.303-1.644 0.519-0.26 0.086-0.519 0.173-0.779 0.303-0.692 0.303-1.384 0.692-2.033 1.125-0.086 0.043-0.13 0.086-0.216 0.173-0.606 0.433-1.211 0.909-1.731 1.428-0.173 0.173-0.346 0.346-0.476 0.519-0.433 0.433-0.822 0.909-1.168 1.428-0.13 0.173-0.26 0.346-0.389 0.563-0.433 0.692-0.822 1.384-1.168 2.12 0 0 0 0 0 0s0 0 0 0.043h-2.163c-0.606 0-1.082-0.476-1.082-1.082zM22.694 67.040c-4.153 0-7.571-3.418-7.571-7.571 0-0.519 0.043-1.038 0.173-1.514 0.173-0.779 0.476-1.514 0.865-2.163 0.043-0.13 0.13-0.216 0.173-0.346 0.389-0.606 0.865-1.168 1.428-1.644 0.13-0.086 0.216-0.173 0.346-0.26 0.563-0.433 1.211-0.822 1.904-1.082 0.086 0 0.216-0.086 0.346-0.086 0.735-0.26 1.557-0.433 2.38-0.433s1.601 0.173 2.38 0.433c0.13 0 0.216 0.043 0.346 0.086 0.692 0.26 1.341 0.649 1.904 1.082 0.13 0.086 0.216 0.173 0.346 0.26 0.563 0.476 1.038 1.038 1.428 1.644 0.086 0.086 0.13 0.216 0.173 0.346 0.389 0.692 0.692 1.384 0.865 2.163 0.086 0.476 0.173 0.995 0.173 1.514 0 4.153-3.418 7.571-7.571 7.571zM57.306 67.040c-4.153 0-7.571-3.418-7.571-7.571 0-0.519 0.043-1.038 0.173-1.514 0.13-0.519 0.26-1.038 0.476-1.514 0 0 0-0.043 0-0.086 0.216-0.433 0.433-0.865 0.735-1.255 0.043-0.086 0.13-0.13 0.173-0.216 0.26-0.346 0.519-0.649 0.822-0.952 0.086-0.086 0.173-0.13 0.26-0.216 0.303-0.26 0.649-0.519 0.995-0.735 0.086-0.043 0.216-0.13 0.346-0.173 0.389-0.216 0.822-0.389 1.255-0.519 0.173-0.043 0.346-0.13 0.563-0.173 0.563-0.13 1.168-0.216 1.774-0.216 0.822 0 1.601 0.173 2.38 0.433 0.13 0 0.216 0.043 0.346 0.086 0.692 0.26 1.341 0.649 1.904 1.082 0.13 0.086 0.216 0.173 0.346 0.26 0.563 0.476 1.038 1.038 1.428 1.644 0.086 0.086 0.13 0.216 0.173 0.346 0.389 0.692 0.692 1.384 0.865 2.163 0.086 0.476 0.173 0.995 0.173 1.514 0 4.153-3.418 7.571-7.571 7.571zM55.142 36.755v-12.979h8.653c5.365 0 9.734 4.37 9.734 9.734v3.245h-18.387z"></path>
</svg>
