<!-- Generated by IcoMoon.io -->
<svg version="1.1" xmlns="http://www.w3.org/2000/svg" width="80" height="80" viewBox="0 0 80 80">
<title>twitter</title>
<path d="M71.628 23.843c0 0.687 0 1.414 0 2.1 0.001 0.084 0.001 0.184 0.001 0.284 0 25.454-20.635 46.089-46.089 46.089-0.1 0-0.199-0-0.299-0.001l0.015 0c-0.040 0-0.087 0-0.134 0-9.253 0-17.869-2.727-25.088-7.42l0.178 0.109c1.333 0 2.585 0 4.039 0 0 0 0 0 0.001 0 7.655 0 14.695-2.632 20.264-7.040l-0.068 0.052c-7.134-0.066-13.158-4.745-15.237-11.196l-0.032-0.114c0.92 0.154 1.979 0.242 3.060 0.242 0.018 0 0.036 0 0.053-0h-0.003c1.525-0.011 2.999-0.202 4.411-0.552l-0.129 0.027c-7.428-1.556-12.926-8.051-12.926-15.831 0-0.001 0-0.002 0-0.004v0c2.122 1.193 4.637 1.942 7.317 2.059l0.035 0.001c-4.457-2.979-7.352-7.99-7.352-13.678 0-0.034 0-0.068 0-0.101v0.005c0.005-2.976 0.815-5.762 2.222-8.154l-0.041 0.076c8.063 9.887 19.993 16.355 33.45 17.081l0.117 0.005c-0.244-1.111-0.39-2.393-0.404-3.706l-0-0.010c-0.005-0.152-0.008-0.331-0.008-0.511 0-8.924 7.234-16.157 16.157-16.157 4.822 0 9.151 2.112 12.111 5.462l0.015 0.017c3.904-0.8 7.368-2.201 10.479-4.119l-0.138 0.079c-1.263 3.833-3.807 6.954-7.116 8.926l-0.074 0.041c3.483-0.385 6.667-1.269 9.615-2.586l-0.204 0.081c-2.261 3.275-4.934 6.064-7.989 8.377l-0.090 0.065z"></path>
</svg>
