<!-- Generated by IcoMoon.io -->
<svg version="1.1" xmlns="http://www.w3.org/2000/svg" width="80" height="80" viewBox="0 0 80 80">
<title>undo</title>
<path d="M40 79.957c-18.274-0.026-33.081-14.833-33.107-33.105v-0.002c0-1.891 1.533-3.425 3.425-3.425s3.425 1.533 3.425 3.425v0c0 14.502 11.756 26.258 26.258 26.258s26.258-11.756 26.258-26.258c0-14.502-11.756-26.258-26.258-26.258v0h-11.416c-1.891 0-3.425-1.533-3.425-3.425s1.533-3.425 3.425-3.425v0h11.416c18.285 0 33.107 14.823 33.107 33.107s-14.823 33.107-33.107 33.107v0z"></path>
<path d="M40 34.292c-0.005 0-0.010 0-0.016 0-0.941 0-1.791-0.384-2.404-1.004l-13.7-13.7c-0.619-0.62-1.002-1.475-1.002-2.42s0.383-1.801 1.002-2.42v0l13.7-13.7c0.627-0.671 1.517-1.090 2.506-1.090 1.891 0 3.425 1.533 3.425 3.425 0 0.988-0.419 1.879-1.088 2.504l-0.002 0.002-11.279 11.279 11.279 11.279c0.619 0.62 1.002 1.475 1.002 2.42s-0.383 1.801-1.002 2.42v0c-0.613 0.62-1.464 1.005-2.404 1.005-0.006 0-0.011 0-0.017 0h0.001z"></path>
</svg>
