<!-- Generated by IcoMoon.io -->
<svg version="1.1" xmlns="http://www.w3.org/2000/svg" width="80" height="80" viewBox="0 0 80 80">
<title>upload</title>
<path d="M68.434 80h-56.869c-6.45-0.271-11.577-5.566-11.577-12.059 0-0.18 0.004-0.36 0.012-0.538l-0.001 0.025v-13.714c0-1.894 1.535-3.429 3.429-3.429s3.429 1.535 3.429 3.429v0 13.714c-0.013 0.138-0.020 0.298-0.020 0.459 0 2.678 1.985 4.892 4.563 5.252l0.028 0.003h57.006c2.607-0.363 4.591-2.577 4.591-5.255 0-0.162-0.007-0.322-0.021-0.48l0.001 0.020v-13.714c0-1.894 1.535-3.429 3.429-3.429s3.429 1.535 3.429 3.429v0 13.714c0.007 0.155 0.011 0.337 0.011 0.519 0 6.444-5.051 11.709-11.409 12.051l-0.030 0.001z"></path>
<path d="M58.286 25.143c-0.005 0-0.010 0-0.016 0-0.942 0-1.793-0.385-2.407-1.005l-15.863-15.863-15.863 15.863c-0.611 0.57-1.433 0.92-2.337 0.92-1.894 0-3.429-1.535-3.429-3.429 0-0.904 0.35-1.727 0.922-2.339l-0.002 0.002 18.286-18.286c0.62-0.62 1.477-1.003 2.423-1.003s1.803 0.383 2.423 1.003v0l18.286 18.286c0.62 0.62 1.003 1.477 1.003 2.423s-0.383 1.803-1.003 2.423v0c-0.614 0.621-1.465 1.006-2.407 1.006-0.006 0-0.011 0-0.017 0h0.001z"></path>
<path d="M40 57.143c-1.883-0.025-3.403-1.545-3.429-3.426v-50.288c0-1.894 1.535-3.429 3.429-3.429s3.429 1.535 3.429 3.429v0 50.286c-0.025 1.883-1.545 3.403-3.426 3.429h-0.003z"></path>
</svg>
