<!-- Generated by IcoMoon.io -->
<svg version="1.1" xmlns="http://www.w3.org/2000/svg" width="80" height="80" viewBox="0 0 80 80">
<title>user-minus</title>
<path d="M40 43.478c-9.605 0-17.391-7.786-17.391-17.391s7.786-17.391 17.391-17.391c9.605 0 17.391 7.786 17.391 17.391v0c0 9.605-7.786 17.391-17.391 17.391v0zM40 15.653c-5.763 0-10.434 4.672-10.434 10.434s4.672 10.434 10.434 10.434c5.763 0 10.434-4.672 10.434-10.434v0c0-5.763-4.672-10.434-10.434-10.434v0z"></path>
<path d="M72.462 75.94c-1.91-0.026-3.452-1.568-3.478-3.476v-0.003c0-9.043-4.916-15.072-28.984-15.072s-28.984 6.029-28.984 15.072c0 1.921-1.557 3.478-3.478 3.478s-3.478-1.557-3.478-3.478v0c0-22.028 25.181-22.028 35.94-22.028s35.94 0 35.94 22.028c-0.026 1.91-1.568 3.452-3.476 3.478h-0.003z"></path>
<path d="M80.578 43.478h-16.231c-1.921 0-3.478-1.557-3.478-3.478s1.557-3.478 3.478-3.478v0h16.231c1.921 0 3.478 1.557 3.478 3.478s-1.557 3.478-3.478 3.478v0z"></path>
</svg>
