<!-- Generated by IcoMoon.io -->
<svg version="1.1" xmlns="http://www.w3.org/2000/svg" width="80" height="80" viewBox="0 0 80 80">
<title>users</title>
<path d="M48.205 41.026c-8.497 0-15.385-6.888-15.385-15.385s6.888-15.385 15.385-15.385c8.497 0 15.385 6.888 15.385 15.385v0c0 8.497-6.888 15.385-15.385 15.385v0zM48.205 16.41c-5.098 0-9.231 4.133-9.231 9.231s4.133 9.231 9.231 9.231c5.098 0 9.231-4.133 9.231-9.231v0c0-5.098-4.133-9.231-9.231-9.231v0z"></path>
<path d="M76.923 69.744c-1.69-0.023-3.054-1.387-3.077-3.075v-0.002c0-8-4.349-13.333-25.641-13.333s-25.641 5.333-25.641 13.333c0 1.699-1.378 3.077-3.077 3.077s-3.077-1.378-3.077-3.077v0c0-19.487 22.277-19.487 31.795-19.487s31.795 0 31.795 19.487c-0.023 1.69-1.387 3.054-3.075 3.077h-0.002z"></path>
<path d="M24.903 44.349h-1.313c-6.298-0.627-11.175-5.898-11.175-12.308 0-6.829 5.536-12.365 12.365-12.365 0.419 0 0.833 0.021 1.241 0.062l-0.052-0.004c1.642 0.073 2.945 1.421 2.945 3.074 0 1.699-1.378 3.077-3.077 3.077-0.171 0-0.338-0.014-0.501-0.041l0.018 0.002c-0.178-0.019-0.385-0.030-0.594-0.030-1.483 0-2.84 0.539-3.886 1.431l0.008-0.007c-1.224 0.993-2.047 2.438-2.213 4.077l-0.002 0.025c-0.021 0.192-0.034 0.414-0.034 0.639 0 3.186 2.437 5.802 5.548 6.087l0.024 0.002c0.16 0.015 0.347 0.023 0.535 0.023 1.214 0 2.347-0.344 3.307-0.941l-0.027 0.015c0.461-0.289 1.021-0.46 1.62-0.46 1.704 0 3.085 1.381 3.085 3.085 0 1.104-0.58 2.073-1.452 2.618l-0.013 0.008c-1.801 1.165-3.992 1.877-6.345 1.928l-0.014 0z"></path>
<path d="M3.077 66.667c-1.69-0.023-3.054-1.387-3.077-3.075v-0.002c0-11.077 2.954-18.462 17.436-18.462 1.699 0 3.077 1.378 3.077 3.077s-1.378 3.077-3.077 3.077v0c-9.641 0-11.282 3.077-11.282 12.308-0.023 1.69-1.387 3.054-3.075 3.077h-0.002z"></path>
</svg>
