<!-- Generated by IcoMoon.io -->
<svg version="1.1" xmlns="http://www.w3.org/2000/svg" width="80" height="80" viewBox="0 0 80 80">
<title>user-edit</title>
<path d="M33.733 39.434c-9.014 0-16.321-7.307-16.321-16.321s7.307-16.321 16.321-16.321c9.014 0 16.321 7.307 16.321 16.321v0c-0.025 9.004-7.317 16.297-16.319 16.321h-0.002zM33.733 13.32c-5.408 0-9.793 4.384-9.793 9.793s4.384 9.793 9.793 9.793c5.408 0 9.793-4.384 9.793-9.793v0c0-5.408-4.384-9.793-9.793-9.793v0z"></path>
<path d="M3.266 69.9c-1.803 0-3.264-1.461-3.264-3.264v0c0-20.674 23.633-20.674 33.731-20.674 3.134 0 5.919 0 8.443 0.305 1.69 0.135 3.011 1.541 3.011 3.254 0 0.080-0.003 0.159-0.009 0.238l0.001-0.010c-0.157 1.695-1.572 3.011-3.294 3.011-0.081 0-0.162-0.003-0.242-0.009l0.011 0.001c-2.35 0-4.962-0.261-7.921-0.261-22.545 0-27.202 5.658-27.202 14.145 0 0.013 0 0.028 0 0.044 0 1.779-1.442 3.221-3.221 3.221-0.015 0-0.031-0-0.046-0h0.002z"></path>
<path d="M42.916 73.208c-0.901-0.001-1.717-0.367-2.307-0.957v0c-0.599-0.572-0.972-1.377-0.972-2.269 0-0.105 0.005-0.21 0.015-0.312l-0.001 0.013 0.696-8.356c0.058-0.8 0.395-1.512 0.915-2.046l-0.001 0.001 24.025-24.025c1.594-1.48 3.738-2.389 6.093-2.389s4.499 0.908 6.099 2.394l-0.006-0.005c1.561 1.573 2.525 3.739 2.525 6.131 0 0.048-0 0.096-0.001 0.144l0-0.007c0.001 0.038 0.001 0.083 0.001 0.128 0 2.204-0.881 4.202-2.309 5.662l-24.023 24.023c-0.516 0.529-1.212 0.881-1.989 0.956l-0.013 0.001-8.443 0.783zM51.36 69.161v0zM46.746 63.024l-0.261 3.308 3.395-0.305 23.198-23.198c0.245-0.292 0.394-0.672 0.394-1.087 0-0.031-0.001-0.062-0.002-0.092l0 0.004c-0.002-0.633-0.232-1.211-0.612-1.657l0.003 0.004c-0.408-0.306-0.922-0.49-1.48-0.49s-1.072 0.184-1.486 0.494l0.006-0.005z"></path>
</svg>
