<!-- Generated by IcoMoon.io -->
<svg version="1.1" xmlns="http://www.w3.org/2000/svg" width="80" height="80" viewBox="0 0 80 80">
<title>user</title>
<path d="M40 41.29c-10.689 0-19.354-8.665-19.354-19.354s8.665-19.354 19.354-19.354c10.689 0 19.354 8.665 19.354 19.354v0c0 10.689-8.665 19.354-19.354 19.354v0zM40 10.325c-6.413 0-11.612 5.199-11.612 11.612s5.199 11.612 11.612 11.612c6.413 0 11.612-5.199 11.612-11.612v0c0-6.413-5.199-11.612-11.612-11.612v0z"></path>
<path d="M76.127 77.417c-2.126-0.029-3.842-1.745-3.871-3.868v-0.003c0-10.064-5.471-16.773-32.256-16.773s-32.256 6.709-32.256 16.773c0 2.138-1.733 3.871-3.871 3.871s-3.871-1.733-3.871-3.871v0c0-24.515 28.024-24.515 39.997-24.515s39.997 0 39.997 24.515c-0.029 2.126-1.745 3.842-3.868 3.871h-0.003z"></path>
</svg>
