<!-- Generated by IcoMoon.io -->
<svg version="1.1" xmlns="http://www.w3.org/2000/svg" width="80" height="80" viewBox="0 0 80 80">
<title>verified</title>
<path d="M48.933 80c-2.178 0-4.222-1.022-5.911-1.911-1.067-0.533-2.356-1.2-3.022-1.2s-2 0.667-3.022 1.2c-2.133 1.111-4.8 2.444-7.644 1.689-2.933-0.756-4.533-3.333-5.867-5.378-0.578-0.933-1.378-2.178-1.911-2.489s-1.956-0.356-3.156-0.444c-2.4-0.133-5.378-0.267-7.511-2.356-2.133-2.178-2.267-5.156-2.4-7.556-0.044-1.156-0.133-2.622-0.444-3.156-0.267-0.489-1.556-1.289-2.444-1.867-2.044-1.333-4.578-2.978-5.378-5.867-0.756-2.844 0.578-5.511 1.689-7.644 0.533-1.067 1.2-2.356 1.2-3.022s-0.667-2-1.2-3.022c-1.111-2.133-2.444-4.8-1.689-7.644 0.756-2.933 3.333-4.533 5.378-5.867 0.933-0.578 2.178-1.378 2.489-1.911s0.356-1.956 0.444-3.156c0.133-2.4 0.267-5.378 2.356-7.511 2.178-2.133 5.156-2.267 7.556-2.4 1.156-0.044 2.622-0.133 3.156-0.444 0.489-0.267 1.289-1.556 1.867-2.444 1.333-2.044 2.978-4.578 5.867-5.378 2.844-0.756 5.511 0.578 7.644 1.689 1.067 0.533 2.356 1.2 3.022 1.2s2-0.667 3.022-1.2c2.133-1.067 4.8-2.444 7.644-1.689 2.933 0.756 4.533 3.333 5.867 5.378 0.578 0.933 1.378 2.178 1.911 2.489s1.956 0.356 3.156 0.444c2.4 0.133 5.378 0.267 7.511 2.356 2.133 2.178 2.267 5.156 2.4 7.556 0.044 1.156 0.133 2.622 0.444 3.156 0.267 0.489 1.556 1.289 2.444 1.867 2.044 1.333 4.578 2.978 5.378 5.867 0.756 2.844-0.578 5.511-1.689 7.644-0.533 1.067-1.2 2.356-1.2 3.022s0.667 2 1.2 3.022c1.111 2.133 2.444 4.8 1.689 7.644-0.756 2.933-3.333 4.533-5.378 5.867-0.933 0.578-2.178 1.378-2.489 1.911s-0.356 1.956-0.444 3.156c-0.133 2.4-0.267 5.378-2.356 7.511-2.178 2.133-5.156 2.267-7.556 2.4-1.156 0.044-2.622 0.133-3.156 0.444-0.489 0.267-1.289 1.556-1.867 2.444-1.333 2.044-2.978 4.578-5.867 5.378-0.578 0.178-1.156 0.222-1.733 0.222zM31.111 6.667s0 0-0.044 0c-0.444 0.178-1.467 1.689-1.956 2.533-1.067 1.644-2.267 3.511-4.178 4.622-1.956 1.111-4.178 1.244-6.178 1.333-0.978 0.044-2.8 0.133-3.2 0.444-0.267 0.356-0.356 2.133-0.4 3.111-0.089 2-0.222 4.222-1.333 6.133s-2.978 3.111-4.622 4.178c-0.844 0.533-2.356 1.511-2.533 2-0.044 0.489 0.711 2 1.156 2.889 0.889 1.778 1.956 3.778 1.956 6.044s-1.022 4.267-1.956 6.044c-0.444 0.889-1.244 2.4-1.156 2.889 0.178 0.444 1.689 1.467 2.533 1.956 1.644 1.067 3.511 2.267 4.622 4.178 1.111 1.956 1.244 4.178 1.333 6.178 0.044 0.978 0.133 2.8 0.444 3.2 0.356 0.267 2.133 0.356 3.111 0.4 2 0.089 4.222 0.222 6.133 1.333s3.111 2.978 4.178 4.622c0.533 0.844 1.511 2.356 2 2.533 0.444 0.133 2-0.711 2.889-1.156 1.778-0.889 3.778-1.956 6.044-1.956s4.267 1.022 6.044 1.956c0.889 0.444 2.311 1.289 2.889 1.156 0.444-0.178 1.467-1.689 1.956-2.533 1.067-1.644 2.267-3.511 4.178-4.622 1.956-1.111 4.178-1.244 6.178-1.333 0.978-0.044 2.8-0.133 3.2-0.444 0.267-0.356 0.356-2.133 0.4-3.111 0.089-2 0.222-4.222 1.333-6.133s2.978-3.111 4.622-4.178c0.844-0.533 2.356-1.511 2.533-2 0.044-0.489-0.711-2-1.156-2.889-0.889-1.778-1.956-3.778-1.956-6.044s1.022-4.267 1.956-6.044c0.444-0.889 1.2-2.4 1.156-2.889-0.178-0.489-1.733-1.467-2.533-2-1.644-1.067-3.511-2.267-4.622-4.178-1.111-1.956-1.244-4.178-1.333-6.178-0.044-0.978-0.133-2.8-0.444-3.2-0.356-0.267-2.133-0.356-3.111-0.4-2-0.089-4.222-0.222-6.133-1.333s-3.111-2.978-4.178-4.622c-0.533-0.844-1.511-2.356-2-2.533-0.444-0.133-2 0.711-2.889 1.156-1.778 0.889-3.778 1.956-6.044 1.956s-4.267-1.022-6.044-1.956c-0.889-0.444-2.311-1.156-2.844-1.156zM73.333 31.022s0 0 0 0v0zM33.289 55.6v0c-0.889 0-1.733-0.356-2.356-0.978l-11.156-11.156c-1.289-1.289-1.289-3.422 0-4.711s3.422-1.289 4.711 0l8.8 8.8 22.178-22.178c1.289-1.289 3.422-1.289 4.711 0s1.289 3.422 0 4.711l-24.533 24.533c-0.622 0.622-1.467 0.978-2.356 0.978z"></path>
</svg>
