<!-- Generated by IcoMoon.io -->
<svg version="1.1" xmlns="http://www.w3.org/2000/svg" width="80" height="80" viewBox="0 0 80 80">
<title>video</title>
<path d="M44.571 70.857h-32c-6.943 0-12.571-5.628-12.571-12.571v0-36.571c0-6.943 5.628-12.571 12.571-12.571v0h32c6.943 0 12.571 5.628 12.571 12.571v0 36.571c0 6.943-5.628 12.571-12.571 12.571v0zM12.571 16c-3.156 0-5.714 2.558-5.714 5.714v0 36.571c0 3.156 2.558 5.714 5.714 5.714v0h32c3.156 0 5.714-2.558 5.714-5.714v0-36.571c0-3.156-2.558-5.714-5.714-5.714v0z"></path>
<path d="M76.571 61.714c-0.659-0.011-1.273-0.196-1.799-0.512l0.016 0.009-22.857-13.714c-0.993-0.612-1.645-1.692-1.646-2.926v-9.143c0.001-1.233 0.653-2.314 1.631-2.917l0.015-0.008 22.857-13.714c0.496-0.302 1.096-0.48 1.737-0.48s1.241 0.179 1.752 0.489l-0.015-0.008c1.042 0.599 1.733 1.704 1.737 2.971v36.572c-0.004 1.267-0.695 2.373-1.72 2.963l-0.017 0.009c-0.456 0.26-1.003 0.413-1.585 0.413-0.037 0-0.075-0.001-0.112-0.002l0.005 0zM57.143 42.651l16 9.6v-24.503l-16 9.6z"></path>
</svg>
