<!-- Generated by IcoMoon.io -->
<svg version="1.1" xmlns="http://www.w3.org/2000/svg" width="80" height="80" viewBox="0 0 80 80">
<title>vimeo</title>
<path d="M71.999 0.002h-63.998c-4.418 0-8 3.581-8 8v0 63.998c0 4.418 3.581 8 8 8h63.998c4.418 0 8-3.581 8-8v0-63.998c0-4.418-3.581-8-8-8v0zM67.299 26.55q-0.4 8.45-11.75 23.149c-7.85 10-14.55 15.3-19.999 15.3-3.4 0-6.2-3.1-8.55-9.35-4.55-16.649-6.5-26.399-10-26.399-1.741 0.715-3.243 1.623-4.58 2.724l0.030-0.024-2.7-3.5c6.65-5.85 13-12.35 16.999-12.7s7.050 2.65 8.25 9.25c3.7 23.449 5.35 26.999 12.050 16.349 1.81-2.464 3.164-5.382 3.871-8.545l0.029-0.154c0.65-5.95-4.6-5.55-8.2-4q4.15-14 16.149-13.65 8.9 0.3 8.4 11.55z"></path>
</svg>
