<!-- Generated by IcoMoon.io -->
<svg version="1.1" xmlns="http://www.w3.org/2000/svg" width="80" height="80" viewBox="0 0 80 80">
<title>volume-up</title>
<path d="M44.21 72.624c-0.747-0.013-1.433-0.264-1.987-0.68l0.009 0.006-20.164-16.165h-19.954c-1.734-0.023-3.134-1.423-3.157-3.155v-25.26c0.023-1.734 1.423-3.134 3.155-3.157h19.956l20.164-16.165c0.536-0.434 1.227-0.697 1.979-0.697 1.744 0 3.157 1.414 3.157 3.157 0 0.008 0 0.016-0 0.025v-0.001 58.934c-0.008 1.254-0.736 2.336-1.791 2.854l-0.019 0.008c-0.379 0.186-0.824 0.295-1.295 0.295-0.018 0-0.037-0-0.055-0h0.003zM5.271 49.472h17.891c0.748 0.003 1.436 0.256 1.986 0.679l-0.008-0.006 15.912 12.629v-45.674l-15.912 12.629c-0.53 0.462-1.216 0.758-1.97 0.799l-0.008 0h-17.891z"></path>
<path d="M67.194 65.552c-0.789-0.001-1.51-0.288-2.067-0.761l0.005 0.004c-0.674-0.575-1.098-1.425-1.098-2.374 0-0.805 0.305-1.538 0.806-2.091l-0.002 0.003c4.824-5.369 7.774-12.506 7.774-20.332s-2.95-14.963-7.798-20.36l0.025 0.028c-0.498-0.556-0.803-1.295-0.803-2.105 0-1.745 1.415-3.16 3.16-3.16 0.936 0 1.776 0.406 2.355 1.053l0.003 0.003c5.833 6.461 9.401 15.064 9.401 24.5s-3.569 18.039-9.43 24.532l0.029-0.032c-0.56 0.671-1.396 1.095-2.332 1.095-0.009 0-0.018 0-0.027-0h0.001z"></path>
<path d="M57.301 54.228c-0.713-0.009-1.37-0.245-1.903-0.638l0.009 0.006c-0.77-0.582-1.263-1.496-1.263-2.526 0-0.714 0.237-1.373 0.637-1.902l-0.006 0.008c1.931-2.517 3.095-5.711 3.095-9.177s-1.163-6.66-3.121-9.213l0.027 0.036c-0.394-0.521-0.631-1.18-0.631-1.894 0-1.744 1.414-3.157 3.157-3.157 1.029 0 1.944 0.493 2.52 1.255l0.006 0.008c2.739 3.552 4.39 8.066 4.39 12.966s-1.651 9.413-4.427 13.015l0.037-0.050c-0.59 0.761-1.499 1.249-2.524 1.263h-0.002z"></path>
</svg>
