<!-- Generated by IcoMoon.io -->
<svg version="1.1" xmlns="http://www.w3.org/2000/svg" width="80" height="80" viewBox="0 0 80 80">
<title>volume-down</title>
<path d="M55.477 79.983c-0.915-0.016-1.756-0.323-2.436-0.833l0.011 0.008-24.712-19.811h-24.454c-2.125-0.029-3.841-1.744-3.869-3.867v-30.957c0.029-2.125 1.744-3.841 3.867-3.869h24.457l24.712-19.811c0.657-0.532 1.504-0.854 2.425-0.854 2.137 0 3.869 1.732 3.869 3.869 0 0.010 0 0.020-0 0.030v-0.002 72.228c-0.010 1.537-0.902 2.863-2.195 3.498l-0.023 0.010c-0.464 0.228-1.010 0.362-1.587 0.362-0.022 0-0.045-0-0.067-0.001h0.003zM7.755 51.608h21.926c0.917 0.004 1.76 0.314 2.434 0.832l-0.009-0.007 19.501 15.477v-55.976l-19.501 15.477c-0.665 0.512-1.508 0.821-2.424 0.825h-21.927z"></path>
<path d="M71.522 57.438c-0.874-0.011-1.679-0.3-2.333-0.782l0.011 0.008c-0.944-0.713-1.548-1.834-1.548-3.095 0-0.875 0.291-1.683 0.781-2.331l-0.007 0.010c2.367-3.085 3.793-6.999 3.793-11.247s-1.426-8.162-3.825-11.291l0.033 0.044c-0.483-0.639-0.774-1.446-0.774-2.322 0-2.137 1.732-3.869 3.869-3.869 1.262 0 2.382 0.604 3.088 1.538l0.007 0.010c3.357 4.354 5.38 9.886 5.38 15.89s-2.023 11.536-5.425 15.951l0.045-0.061c-0.723 0.932-1.838 1.531-3.093 1.548h-0.003z"></path>
</svg>
