<!-- Generated by IcoMoon.io -->
<svg version="1.1" xmlns="http://www.w3.org/2000/svg" width="80" height="80" viewBox="0 0 80 80">
<title>volume-off</title>
<path d="M65.796 79.983c-0.915-0.016-1.756-0.323-2.436-0.833l0.011 0.008-24.712-19.811h-24.454c-2.125-0.029-3.841-1.744-3.869-3.867v-30.957c0.029-2.125 1.744-3.841 3.867-3.869h24.457l24.712-19.811c0.657-0.532 1.504-0.854 2.425-0.854 2.137 0 3.869 1.732 3.869 3.869 0 0.010 0 0.020-0 0.030v-0.002 72.228c-0.012 1.523-0.879 2.841-2.145 3.498l-0.022 0.010c-0.489 0.228-1.062 0.361-1.666 0.361-0.013 0-0.025 0-0.038-0h0.002zM18.074 51.608h21.926c0.917 0.004 1.76 0.314 2.434 0.832l-0.009-0.007 19.501 15.477v-55.976l-19.501 15.477c-0.665 0.512-1.508 0.821-2.424 0.825h-21.927z"></path>
</svg>
