<!-- Generated by IcoMoon.io -->
<svg version="1.1" xmlns="http://www.w3.org/2000/svg" width="80" height="80" viewBox="0 0 80 80">
<title>wallet</title>
<path d="M71.979 18.3h-1.142v-10.279c-0.026-4.405-3.59-7.969-7.992-7.995h-0.003c-0.165-0.031-0.355-0.050-0.548-0.050s-0.384 0.018-0.567 0.053l0.019-0.003-54.364 18.274h-1.234l-0.776 0.274h-0.64l-0.731 0.411-0.548 0.776-0.64 0.548-0.502 0.457-0.548 0.685c-0.144 0.13-0.266 0.28-0.361 0.448l-0.005 0.009c-0.15 0.23-0.303 0.499-0.438 0.778l-0.019 0.044-0.274 0.503c-0.109 0.267-0.218 0.602-0.307 0.946l-0.013 0.059c0.010 0.075 0.015 0.163 0.015 0.251s-0.005 0.176-0.016 0.261l0.001-0.010c-0.023 0.233-0.035 0.503-0.035 0.776s0.013 0.544 0.038 0.811l-0.003-0.034v45.684c0.021 4.296 3.407 7.795 7.657 7.994l0.018 0.001h63.957c4.405-0.026 7.969-3.59 7.995-7.992v-45.686c-0.026-4.405-3.59-7.969-7.992-7.995h-0.002zM63.208 6.925c0.452 0.17 0.769 0.595 0.776 1.095v10.28h-34.857zM73.121 71.979c0 0.631-0.511 1.142-1.142 1.142v0h-63.957c-0.631 0-1.142-0.511-1.142-1.142v0-45.684c0-0.631 0.511-1.142 1.142-1.142v0h63.957c0.631 0 1.142 0.511 1.142 1.142v0z"></path>
<path d="M66.268 49.137c0 3.154-2.557 5.71-5.71 5.71s-5.71-2.557-5.71-5.71c0-3.154 2.557-5.71 5.71-5.71s5.71 2.557 5.71 5.71z"></path>
</svg>
