<!-- Generated by IcoMoon.io -->
<svg version="1.1" xmlns="http://www.w3.org/2000/svg" width="80" height="80" viewBox="0 0 80 80">
<title>whatsapp</title>
<path d="M67.998 11.602c-7.113-7.165-16.966-11.6-27.856-11.6-0.050 0-0.1 0-0.15 0h0.008c-21.908 0.022-39.659 17.787-39.659 39.698 0 7.267 1.953 14.079 5.363 19.938l-0.102-0.189-5.6 20.549 20.999-5.5c5.461 3.094 11.983 4.94 18.931 5l0.017 0c0 0 0.001 0 0.001 0 21.967 0 39.798-17.709 39.996-39.629l0-0.019c-0.076-11.064-4.633-21.049-11.944-28.243l-0.005-0.005zM40 72.648c-0.006 0-0.014 0-0.021 0-6.19 0-11.981-1.71-16.926-4.683l0.149 0.083-1.2-0.75-12.449 3.3 3.3-12.149-0.8-1.25c-3.105-4.938-4.946-10.943-4.946-17.377 0-18.224 14.774-32.998 32.998-32.998 9.044 0 17.238 3.638 23.198 9.531l-0.003-0.003c6.064 5.934 9.865 14.16 9.999 23.274l0 0.025c-0.17 18.26-15.012 32.998-33.297 32.998-0 0-0.001 0-0.001 0h0zM58.049 47.95c-1-0.5-5.85-2.9-6.75-3.2s-1.6-0.5-2.25 0.5c-1.051 1.433-2.083 2.688-3.18 3.883l0.030-0.033c-0.55 0.7-1.15 0.75-2.15 0-5.772-2.323-10.424-6.425-13.38-11.618l-0.069-0.131c-1.050-1.75 1-1.65 2.9-5.4 0.135-0.254 0.214-0.555 0.214-0.875s-0.079-0.621-0.218-0.885l0.005 0.010c0-0.5-2.25-5.4-3.050-7.35s-1.6-1.65-2.25-1.7h-1.95c-1.061 0.017-2.006 0.496-2.646 1.245l-0.004 0.005c-2.047 1.992-3.316 4.773-3.316 7.85 0 0.211 0.006 0.42 0.018 0.628l-0.001-0.029c0.337 3.916 1.809 7.435 4.080 10.288l-0.030-0.039c4.288 6.359 10 11.446 16.699 14.882l0.25 0.117c2.78 1.65 6.128 2.625 9.705 2.625 0.773 0 1.536-0.046 2.285-0.134l-0.091 0.009c2.845-0.579 5.206-2.301 6.624-4.655l0.025-0.045c0.453-0.979 0.717-2.124 0.717-3.331 0-0.484-0.042-0.957-0.124-1.418l0.007 0.049c-0.45-0.5-1.1-0.75-2.1-1.25z"></path>
</svg>
