<!-- Generated by IcoMoon.io -->
<svg version="1.1" xmlns="http://www.w3.org/2000/svg" width="80" height="80" viewBox="0 0 80 80">
<title>wifi</title>
<path d="M64.367 43.598c-0.004 0-0.008 0-0.012 0-0.857 0-1.638-0.329-2.222-0.867l0.002 0.002c-5.809-5.219-13.531-8.41-21.998-8.41s-16.189 3.191-22.029 8.437l0.030-0.027c-0.601 0.54-1.401 0.87-2.277 0.87-1.012 0-1.922-0.44-2.547-1.14l-0.003-0.003c-0.517-0.601-0.832-1.389-0.832-2.251 0-1.022 0.443-1.941 1.147-2.574l0.003-0.003c6.99-6.311 16.298-10.172 26.507-10.172s19.517 3.861 26.542 10.203l-0.035-0.031c0.708 0.636 1.15 1.555 1.15 2.577 0 0.862-0.315 1.65-0.835 2.255l0.004-0.005c-0.651 0.694-1.572 1.13-2.594 1.139h-0.002z"></path>
<path d="M76.436 30.891c-0.897-0.005-1.713-0.35-2.325-0.913l0.002 0.002c-8.867-8.464-20.904-13.672-34.159-13.672s-25.292 5.209-34.178 13.69l0.019-0.018c-0.631 0.746-1.568 1.217-2.614 1.217-1.886 0-3.416-1.529-3.416-3.416 0-1.161 0.579-2.187 1.465-2.804l0.011-0.007c10.067-9.551 23.704-15.425 38.713-15.425s28.646 5.874 38.738 15.448l-0.025-0.024c0.674 0.626 1.095 1.517 1.095 2.506 0 1.855-1.479 3.365-3.322 3.415l-0.005 0z"></path>
<path d="M28.067 56.578c-1.114 0-2.103-0.533-2.726-1.358l-0.006-0.009c-0.438-0.563-0.702-1.28-0.702-2.059 0-1.115 0.541-2.103 1.376-2.717l0.009-0.006c3.837-2.96 8.713-4.744 14.005-4.744s10.168 1.784 14.059 4.784l-0.054-0.040c0.833 0.63 1.366 1.619 1.366 2.733 0 0.773-0.257 1.486-0.689 2.058l0.006-0.009c-0.639 0.824-1.629 1.349-2.742 1.349-0.767 0-1.476-0.25-2.050-0.672l0.010 0.007c-2.716-2.086-6.164-3.342-9.906-3.342s-7.19 1.257-9.945 3.371l0.039-0.029c-0.567 0.418-1.278 0.673-2.047 0.683h-0.002z"></path>
<path d="M40 70.743c-1.886 0-3.416-1.529-3.416-3.416s1.529-3.416 3.416-3.416v0 0c1.886 0 3.416 1.529 3.416 3.416s-1.529 3.416-3.416 3.416v0z"></path>
</svg>
