<!-- Generated by IcoMoon.io -->
<svg version="1.1" xmlns="http://www.w3.org/2000/svg" width="80" height="80" viewBox="0 0 80 80">
<title>window-minimize</title>
<path d="M67.427 0.002h-54.855c-6.943 0-12.571 5.628-12.571 12.571v0 27.427c0 1.893 1.535 3.428 3.428 3.428s3.428-1.535 3.428-3.428v0-27.427c0-3.156 2.558-5.714 5.714-5.714v0h54.855c3.156 0 5.714 2.558 5.714 5.714v0 54.855c0 3.156-2.558 5.714-5.714 5.714v0h-27.427c-1.893 0-3.428 1.535-3.428 3.428s1.535 3.428 3.428 3.428v0h27.427c6.943 0 12.571-5.628 12.571-12.571v0-54.855c0-6.943-5.628-12.571-12.571-12.571v0z"></path>
<path d="M36.389 45.44c0.391 0.171 0.846 0.272 1.325 0.274h18.286c1.893 0 3.428-1.535 3.428-3.428s-1.535-3.428-3.428-3.428v0h-10.011l14.719-14.719c0.57-0.611 0.92-1.433 0.92-2.337 0-1.893-1.535-3.428-3.428-3.428-0.904 0-1.727 0.35-2.339 0.922l0.002-0.002-14.719 14.719v-10.011c0-1.893-1.535-3.428-3.428-3.428s-3.428 1.535-3.428 3.428v0 18.285c0.003 0.479 0.103 0.935 0.283 1.348l-0.009-0.022c0.337 0.839 0.989 1.491 1.807 1.821l0.022 0.008z"></path>
<path d="M21.715 50.285h-13.714c-4.408 0.026-7.974 3.592-8 7.997v13.716c0.026 4.408 3.592 7.974 7.997 8h13.716c4.408-0.026 7.974-3.592 8-7.997v-13.716c-0.026-4.408-3.592-7.974-7.997-8h-0.003zM22.858 71.999c0 0.631-0.512 1.143-1.143 1.143v0h-13.714c-0.631 0-1.143-0.512-1.143-1.143v0-13.714c0-0.631 0.512-1.143 1.143-1.143v0h13.714c0.631 0 1.143 0.512 1.143 1.143v0z"></path>
</svg>
