<!-- Generated by IcoMoon.io -->
<svg version="1.1" xmlns="http://www.w3.org/2000/svg" width="80" height="80" viewBox="0 0 80 80">
<title>window-maximize</title>
<path d="M67.427 79.998h-27.427c-1.893 0-3.428-1.535-3.428-3.428s1.535-3.428 3.428-3.428v0h27.427c3.156 0 5.714-2.558 5.714-5.714v0-54.855c0-3.156-2.558-5.714-5.714-5.714v0h-54.855c-3.156 0-5.714 2.558-5.714 5.714v0 27.427c0 1.893-1.535 3.428-3.428 3.428s-3.428-1.535-3.428-3.428v0-27.427c0-6.943 5.628-12.571 12.571-12.571v0h54.855c6.943 0 12.571 5.628 12.571 12.571v0 54.855c0 6.943-5.628 12.571-12.571 12.571v0z"></path>
<path d="M58.285 43.428c-1.883-0.025-3.403-1.545-3.428-3.426v-14.859h-14.856c-1.893 0-3.428-1.535-3.428-3.428s1.535-3.428 3.428-3.428v0h18.285c1.883 0.025 3.403 1.545 3.428 3.426v18.287c-0.025 1.883-1.545 3.403-3.426 3.428h-0.003z"></path>
<path d="M37.714 45.714c-0.915-0.072-1.718-0.498-2.282-1.139l-0.003-0.004c-0.542-0.604-0.873-1.406-0.873-2.286s0.331-1.682 0.876-2.289l-0.003 0.003 20.571-20.571c0.611-0.57 1.433-0.92 2.337-0.92 1.893 0 3.428 1.535 3.428 3.428 0 0.904-0.35 1.727-0.922 2.339l0.002-0.002-20.845 20.296c-0.568 0.645-1.371 1.071-2.274 1.142l-0.012 0.001z"></path>
<path d="M21.715 79.998h-13.714c-4.408-0.026-7.974-3.592-8-7.997v-13.716c0.026-4.408 3.592-7.974 7.997-8h13.716c4.408 0.026 7.974 3.592 8 7.997v13.716c-0.026 4.408-3.592 7.974-7.997 8h-0.003zM8.001 57.142c-0.631 0-1.143 0.512-1.143 1.143v0 13.714c0 0.631 0.512 1.143 1.143 1.143v0h13.714c0.631 0 1.143-0.512 1.143-1.143v0-13.714c0-0.631-0.512-1.143-1.143-1.143v0z"></path>
</svg>
