<!-- Generated by IcoMoon.io -->
<svg version="1.1" xmlns="http://www.w3.org/2000/svg" width="80" height="80" viewBox="0 0 80 80">
<title>wrench</title>
<path d="M13.133 79.98v0c-3.473 0-6.762-1.371-9.275-3.838-5.118-5.118-5.118-13.388 0-18.505l25.176-25.176c-2.285-8.864 0.183-18.414 6.671-24.902 6.534-6.534 16.129-9.093 25.039-6.671 1.188 0.32 2.102 1.234 2.422 2.422s0 2.422-0.868 3.29l-11.195 11.195 2.376 8.727 8.727 2.376 11.195-11.195c0.868-0.868 2.147-1.188 3.29-0.868 1.188 0.32 2.102 1.234 2.422 2.422 2.422 8.91-0.091 18.505-6.671 25.039-6.488 6.488-16.038 8.956-24.902 6.671l-25.176 25.176c-2.467 2.467-5.757 3.838-9.23 3.838zM52.245 6.965c-4.386 0.365-8.544 2.285-11.743 5.483-5.209 5.209-6.9 12.839-4.386 19.876 0.457 1.234 0.137 2.65-0.822 3.564l-26.639 26.639c-2.422 2.422-2.422 6.397 0 8.819 1.188 1.188 2.741 1.828 4.432 1.828v0c1.645 0 3.244-0.64 4.386-1.828l26.639-26.639c0.96-0.96 2.33-1.234 3.564-0.822 7.037 2.467 14.667 0.822 19.876-4.386 3.199-3.199 5.072-7.356 5.483-11.743l-7.448 7.448c-0.868 0.868-2.148 1.188-3.336 0.868l-12.52-3.427c-1.188-0.32-2.102-1.234-2.422-2.422l-3.427-12.52c-0.32-1.188 0-2.467 0.868-3.336l7.448-7.448z"></path>
</svg>
