<!-- Generated by IcoMoon.io -->
<svg version="1.1" xmlns="http://www.w3.org/2000/svg" width="80" height="80" viewBox="0 0 80 80">
<title>youtube</title>
<path d="M78.347 20.701c-0.929-3.495-3.614-6.197-7.029-7.133l-0.070-0.016c-8.515-1.061-18.37-1.667-28.367-1.667-1.013 0-2.024 0.006-3.035 0.019l0.153-0.002c-0.857-0.011-1.868-0.017-2.881-0.017-9.997 0-19.852 0.606-29.531 1.782l1.164-0.115c-3.486 0.953-6.171 3.654-7.084 7.080l-0.016 0.070c-1.051 5.613-1.652 12.071-1.652 18.67 0 0.221 0.001 0.442 0.002 0.663l-0-0.034c-0.001 0.196-0.002 0.429-0.002 0.661 0 6.622 0.601 13.104 1.751 19.393l-0.099-0.656c0.974 3.433 3.647 6.073 7.030 6.983l0.070 0.016c8.515 1.061 18.37 1.667 28.367 1.667 1.013 0 2.024-0.006 3.035-0.019l-0.153 0.002c0.857 0.011 1.868 0.017 2.881 0.017 9.997 0 19.852-0.606 29.531-1.782l-1.164 0.115c3.452-0.926 6.125-3.566 7.082-6.929l0.017-0.070c1.051-5.634 1.652-12.115 1.652-18.737 0-0.233-0.001-0.465-0.002-0.697l0 0.036c0.001-0.187 0.002-0.407 0.002-0.629 0-6.599-0.601-13.056-1.751-19.322l0.099 0.652zM31.801 51.949v-23.798l20.948 11.849-20.948 11.899z"></path>
</svg>
